<svg width="375" height="326" viewBox="0 0 375 326" fill="none" xmlns="http://www.w3.org/2000/svg">
<mask id="path-1-inside-1_229_604" fill="white">
<path d="M27.1922 281.731C20.1143 283.012 13.3377 278.313 12.0562 271.235L2.31989 217.456C1.03847 210.378 5.73747 203.602 12.8154 202.32V202.32C19.8934 201.039 26.67 205.738 27.9514 212.816L37.6878 266.595C38.9692 273.673 34.2702 280.449 27.1922 281.731V281.731Z"/>
</mask>
<path d="M27.1922 281.731C20.1143 283.012 13.3377 278.313 12.0562 271.235L2.31989 217.456C1.03847 210.378 5.73747 203.602 12.8154 202.32V202.32C19.8934 201.039 26.67 205.738 27.9514 212.816L37.6878 266.595C38.9692 273.673 34.2702 280.449 27.1922 281.731V281.731Z" fill="#F986D1"/>
<path d="M14.3765 284.051L-0.000335635 204.64L14.3765 284.051ZM12.8154 202.32C20.9803 200.842 28.7975 206.263 30.2757 214.428L39.2995 264.27C40.7777 272.435 35.3571 280.252 27.1922 281.731C33.1833 280.646 37.0012 274.029 35.7198 266.951L25.9834 213.172C24.702 206.094 18.8065 201.236 12.8154 202.32ZM40.008 279.41L14.3765 284.051L40.008 279.41ZM-0.000335635 204.64L25.6312 200L-0.000335635 204.64Z" fill="white" mask="url(#path-1-inside-1_229_604)"/>
<path d="M19.3942 253.004C19.7939 252.931 20.1643 252.901 20.5053 252.914C20.8402 252.922 21.157 252.976 21.4555 253.075C21.754 253.174 22.04 253.321 22.3133 253.515C22.5866 253.709 22.8585 253.954 23.1289 254.249L26.0572 251.829L27.36 255.166L24.2994 256.943L24.5027 257.89L27.7258 257.45L28.3243 260.755C27.1511 260.941 25.9836 261.129 24.8216 261.318C23.6587 261.502 22.4902 261.685 21.3162 261.865C20.7249 261.962 20.1388 262.057 19.5578 262.152C18.9769 262.247 18.3889 262.332 17.7939 262.408C17.5957 262.073 17.4215 261.74 17.2713 261.407C17.1211 261.074 16.9914 260.738 16.8822 260.397C16.7669 260.053 16.6691 259.703 16.5888 259.347C16.5024 258.987 16.4249 258.617 16.3562 258.238C16.2504 257.654 16.2304 257.075 16.296 256.502C16.3556 255.925 16.5088 255.397 16.7556 254.918C17.0024 254.44 17.3439 254.031 17.7802 253.693C18.2156 253.349 18.7536 253.12 19.3942 253.004ZM20.2637 256.403C20.0485 256.442 19.8567 256.508 19.6885 256.602C19.5193 256.691 19.3813 256.806 19.2745 256.947C19.1617 257.084 19.0852 257.246 19.045 257.434C18.9987 257.617 18.9965 257.823 19.0382 258.054C19.0568 258.157 19.0826 258.255 19.1156 258.35C19.1434 258.445 19.1785 258.537 19.2209 258.624L22.1029 258.23L22.0695 258.045C22.0296 257.825 21.9611 257.607 21.8639 257.392C21.7657 257.171 21.6415 256.982 21.4911 256.824C21.3399 256.661 21.1618 256.539 20.9568 256.46C20.751 256.376 20.52 256.357 20.2637 256.403ZM24.2914 241.549L25.4737 245.273L23.8198 246.049L24.1372 247.802L25.9441 247.872L26.2696 251.862L15.4758 250.656L14.4868 246.421L24.2914 241.549ZM21.5175 246.752L18.9481 247.82L21.7263 247.905L21.5175 246.752ZM19.3062 232.432C19.8853 232.328 20.4607 232.231 21.0324 232.144C21.598 232.052 22.1701 231.967 22.7487 231.888L23.4735 236.33C22.5386 236.341 21.6099 236.371 20.6875 236.422C19.7599 236.473 18.8349 236.583 17.9124 236.75C17.8458 236.762 17.7386 236.784 17.5909 236.816C17.4432 236.848 17.2785 236.888 17.0968 236.937C16.9099 236.987 16.7219 237.045 16.5327 237.111C16.3375 237.172 16.1625 237.244 16.0078 237.325C15.8522 237.401 15.7296 237.484 15.6401 237.574C15.5445 237.66 15.5055 237.752 15.5232 237.849C15.5547 238.023 15.6329 238.163 15.7576 238.267C15.8815 238.367 16.0328 238.442 16.2117 238.495C16.3845 238.543 16.575 238.572 16.7832 238.582C16.9914 238.592 17.1978 238.591 17.4023 238.581C17.6059 238.565 17.7983 238.546 17.9795 238.524C18.1547 238.498 18.2987 238.474 18.4114 238.454C19.3232 238.315 20.2289 238.172 21.1286 238.025C22.0231 237.879 22.9288 237.736 23.8457 237.597L24.7247 241.487C22.897 241.712 21.0805 241.94 19.2751 242.172C17.4689 242.398 15.6561 242.647 13.8367 242.918L12.9953 239.323L14.2309 239.131C14.0306 239.019 13.8388 238.895 13.6554 238.759C13.471 238.618 13.3078 238.462 13.1659 238.292C13.0188 238.123 12.8955 237.939 12.7959 237.74C12.6903 237.536 12.6162 237.317 12.5735 237.081C12.4947 236.646 12.4973 236.251 12.5814 235.897C12.6655 235.543 12.8092 235.226 13.0126 234.945C13.2159 234.665 13.4723 234.415 13.7818 234.195C14.0861 233.976 14.4191 233.783 14.7807 233.617C15.1424 233.451 15.5261 233.305 15.932 233.178C16.3327 233.053 16.7315 232.946 17.1285 232.858C17.5245 232.765 17.9096 232.685 18.2837 232.617C18.6579 232.55 18.9987 232.488 19.3062 232.432ZM11.4211 223.348L16.0799 226.014L20.8038 221.935L22.08 225.388L19.3358 228.298L22.3716 227.876L23.0736 231.052L12.0205 232.799L11.5718 229.18L14.7892 228.883L11.1722 227.236L11.4211 223.348Z" fill="white"/>
<rect x="13.0195" y="41.2314" width="278" height="287" rx="15.5" transform="rotate(-8.35893 13.0195 41.2314)" fill="#130832" stroke="#39383B"/>
<rect x="131.451" y="162.806" width="85" height="21" rx="6" transform="rotate(-8.35893 131.451 162.806)" fill="#7269E3"/>
<path d="M153.682 171.514L153.862 174.993L147.429 176.46C147.195 174.657 146.966 172.864 146.741 171.08C146.521 169.297 146.307 167.501 146.099 165.695L150.119 165.104C150.166 166.25 150.219 167.395 150.276 168.54C150.333 169.679 150.422 170.824 150.544 171.975C150.788 171.949 151.028 171.919 151.265 171.884C151.502 171.85 151.742 171.814 151.984 171.779C152.273 171.736 152.556 171.692 152.833 171.646C153.111 171.6 153.394 171.556 153.682 171.514ZM162.401 168.353C162.467 168.801 162.502 169.254 162.506 169.712C161.633 169.898 160.771 170.119 159.919 170.376C159.066 170.628 158.214 170.879 157.361 171.131C157.549 171.482 157.802 171.748 158.118 171.928C158.439 172.107 158.798 172.167 159.195 172.109C159.401 172.079 159.619 172.007 159.85 171.894C160.086 171.781 160.317 171.649 160.542 171.5C160.767 171.346 160.98 171.186 161.182 171.02C161.384 170.853 161.557 170.704 161.701 170.572L161.845 174.136C161.667 174.32 161.467 174.484 161.246 174.627C161.03 174.769 160.801 174.892 160.558 174.996C160.316 175.1 160.068 175.187 159.815 175.255C159.562 175.324 159.311 175.377 159.064 175.413C158.554 175.488 158.077 175.487 157.634 175.41C157.191 175.333 156.779 175.196 156.397 175C156.02 174.797 155.678 174.545 155.37 174.242C155.063 173.94 154.794 173.601 154.565 173.224C154.336 172.847 154.145 172.44 153.991 172.005C153.838 171.57 153.727 171.123 153.66 170.664C153.59 170.185 153.563 169.699 153.58 169.207C153.597 168.715 153.661 168.234 153.771 167.765C153.886 167.296 154.05 166.853 154.263 166.438C154.48 166.016 154.748 165.637 155.067 165.301C155.386 164.964 155.761 164.683 156.191 164.457C156.626 164.23 157.119 164.075 157.671 163.994C158.129 163.927 158.556 163.93 158.951 164.004C159.351 164.071 159.714 164.197 160.041 164.381C160.372 164.558 160.669 164.786 160.931 165.063C161.198 165.34 161.428 165.653 161.622 166.004C161.82 166.349 161.983 166.722 162.11 167.124C162.242 167.521 162.339 167.93 162.401 168.353ZM159.25 168.405C159.229 168.261 159.192 168.117 159.139 167.972C159.086 167.822 159.014 167.69 158.923 167.577C158.838 167.463 158.733 167.376 158.609 167.315C158.483 167.249 158.335 167.229 158.165 167.254C157.959 167.284 157.785 167.368 157.641 167.505C157.503 167.636 157.389 167.794 157.301 167.981C157.212 168.163 157.145 168.357 157.102 168.563C157.059 168.77 157.031 168.958 157.019 169.128L159.275 168.575L159.25 168.405ZM172.422 170.45C172.485 170.878 172.459 171.258 172.345 171.59C172.236 171.922 172.065 172.216 171.834 172.471C171.603 172.726 171.326 172.948 171.001 173.138C170.68 173.322 170.34 173.48 169.981 173.612C169.621 173.744 169.255 173.85 168.883 173.931C168.515 174.011 168.169 174.075 167.845 174.123C167.525 174.17 167.191 174.206 166.842 174.231C166.499 174.26 166.153 174.272 165.805 174.265C165.456 174.258 165.11 174.233 164.767 174.188C164.423 174.139 164.093 174.064 163.778 173.962L162.3 164.009C162.571 163.848 162.862 163.697 163.173 163.557C163.483 163.411 163.802 163.283 164.127 163.172C164.458 163.055 164.788 162.957 165.118 162.876C165.448 162.791 165.77 162.725 166.084 162.679C166.45 162.625 166.822 162.594 167.2 162.586C167.583 162.577 167.955 162.602 168.316 162.659C168.677 162.717 169.02 162.811 169.345 162.942C169.669 163.069 169.96 163.242 170.219 163.462C170.482 163.681 170.701 163.949 170.874 164.265C171.052 164.581 171.173 164.958 171.237 165.396C171.28 165.685 171.278 165.962 171.233 166.226C171.187 166.491 171.102 166.735 170.977 166.959C170.852 167.182 170.689 167.383 170.489 167.559C170.288 167.731 170.053 167.871 169.785 167.979C170.133 168.017 170.455 168.101 170.754 168.231C171.057 168.36 171.322 168.532 171.548 168.746C171.779 168.96 171.969 169.211 172.117 169.5C172.269 169.788 172.371 170.105 172.422 170.45ZM167.848 166.621C167.826 166.472 167.777 166.35 167.7 166.256C167.622 166.157 167.532 166.08 167.429 166.027C167.332 165.973 167.227 165.938 167.114 165.923C167.006 165.908 166.911 165.906 166.829 165.918C166.726 165.933 166.627 165.963 166.534 166.009C166.441 166.054 166.351 166.104 166.264 166.159L166.47 167.882C166.588 167.864 166.734 167.832 166.906 167.786C167.078 167.74 167.239 167.671 167.389 167.581C167.543 167.484 167.667 167.361 167.761 167.21C167.854 167.054 167.883 166.858 167.848 166.621ZM167.121 169.302C166.971 169.324 166.829 169.361 166.695 169.412L166.923 171.179C167.002 171.183 167.079 171.187 167.154 171.192C167.232 171.191 167.308 171.185 167.38 171.175C167.488 171.159 167.605 171.131 167.731 171.092C167.856 171.047 167.97 170.983 168.074 170.899C168.177 170.81 168.255 170.701 168.31 170.572C168.37 170.442 168.386 170.28 168.357 170.084C168.328 169.888 168.266 169.734 168.17 169.622C168.08 169.508 167.976 169.426 167.858 169.375C167.739 169.319 167.614 169.29 167.482 169.288C167.349 169.282 167.229 169.286 167.121 169.302ZM181.208 164.358C181.267 164.76 181.285 165.131 181.261 165.471C181.242 165.806 181.177 166.121 181.068 166.416C180.959 166.711 180.803 166.992 180.6 167.258C180.397 167.525 180.143 167.789 179.839 168.049L182.16 171.056L178.782 172.247L177.108 169.13L176.154 169.301L176.487 172.537L173.164 173.026C173.017 171.847 172.868 170.674 172.718 169.506C172.572 168.338 172.429 167.164 172.287 165.984C172.21 165.39 172.134 164.801 172.059 164.218C171.984 163.634 171.918 163.043 171.862 162.446C172.203 162.259 172.542 162.096 172.88 161.957C173.217 161.818 173.558 161.7 173.901 161.602C174.249 161.498 174.603 161.412 174.961 161.343C175.324 161.269 175.696 161.204 176.077 161.148C176.665 161.061 177.244 161.061 177.814 161.145C178.389 161.224 178.911 161.395 179.382 161.657C179.852 161.92 180.249 162.275 180.573 162.722C180.901 163.168 181.113 163.714 181.208 164.358ZM177.781 165.114C177.75 164.898 177.689 164.704 177.601 164.532C177.518 164.36 177.408 164.219 177.27 164.107C177.137 163.99 176.978 163.908 176.792 163.862C176.61 163.809 176.404 163.8 176.172 163.834C176.069 163.85 175.97 163.872 175.874 163.902C175.777 163.927 175.685 163.959 175.596 163.998L175.895 166.892L176.08 166.864C176.302 166.832 176.522 166.77 176.74 166.68C176.964 166.59 177.157 166.472 177.32 166.327C177.488 166.181 177.615 166.007 177.701 165.805C177.792 165.602 177.819 165.372 177.781 165.114ZM191.527 164.405C191.596 164.874 191.609 165.335 191.565 165.789C191.52 166.238 191.423 166.668 191.273 167.08C191.128 167.491 190.932 167.877 190.685 168.24C190.443 168.597 190.155 168.915 189.823 169.196C189.496 169.476 189.127 169.711 188.719 169.903C188.309 170.09 187.865 170.218 187.386 170.288C186.922 170.357 186.47 170.362 186.03 170.306C185.595 170.249 185.179 170.141 184.782 169.984C184.385 169.821 184.014 169.612 183.672 169.357C183.333 169.097 183.032 168.799 182.767 168.464C182.506 168.123 182.285 167.75 182.105 167.345C181.929 166.939 181.808 166.507 181.74 166.048C181.675 165.6 181.664 165.154 181.71 164.711C181.754 164.262 181.849 163.832 181.994 163.421C182.144 163.01 182.34 162.623 182.582 162.261C182.823 161.899 183.105 161.576 183.426 161.292C183.753 161.007 184.115 160.769 184.514 160.579C184.912 160.389 185.343 160.26 185.807 160.192C186.554 160.082 187.252 160.098 187.899 160.24C188.551 160.381 189.126 160.636 189.622 161.005C190.123 161.369 190.537 161.839 190.864 162.418C191.196 162.99 191.417 163.653 191.527 164.405ZM188.125 165.11C188.092 164.889 188.028 164.68 187.93 164.483C187.837 164.281 187.717 164.109 187.57 163.968C187.422 163.821 187.248 163.712 187.049 163.642C186.853 163.565 186.637 163.544 186.4 163.579C186.158 163.615 185.948 163.69 185.77 163.806C185.592 163.922 185.445 164.067 185.328 164.242C185.216 164.411 185.139 164.604 185.098 164.821C185.055 165.032 185.05 165.251 185.084 165.478C185.115 165.695 185.178 165.906 185.272 166.114C185.365 166.321 185.487 166.503 185.636 166.66C185.786 166.817 185.959 166.937 186.155 167.018C186.356 167.099 186.578 167.122 186.82 167.087C187.063 167.051 187.272 166.973 187.449 166.852C187.631 166.725 187.777 166.572 187.887 166.393C187.997 166.208 188.072 166.005 188.113 165.783C188.154 165.561 188.158 165.337 188.125 165.11ZM201.863 164.939C201.949 165.522 202.026 166.1 202.095 166.674C202.168 167.243 202.234 167.817 202.293 168.398L197.829 168.975C197.85 168.04 197.85 167.111 197.83 166.187C197.809 165.259 197.731 164.331 197.595 163.403C197.585 163.336 197.566 163.228 197.539 163.079C197.512 162.931 197.477 162.765 197.434 162.582C197.391 162.393 197.339 162.203 197.28 162.012C197.224 161.815 197.159 161.638 197.083 161.48C197.013 161.322 196.934 161.197 196.846 161.105C196.763 161.006 196.673 160.964 196.575 160.979C196.4 161.004 196.258 161.078 196.149 161.199C196.046 161.32 195.965 161.468 195.907 161.645C195.853 161.816 195.818 162.006 195.801 162.214C195.784 162.421 195.778 162.628 195.781 162.832C195.79 163.036 195.803 163.229 195.819 163.411C195.84 163.587 195.858 163.732 195.875 163.845C195.983 164.761 196.096 165.671 196.213 166.575C196.329 167.474 196.442 168.384 196.551 169.305L192.634 170.054C192.47 168.22 192.302 166.397 192.13 164.585C191.964 162.772 191.775 160.952 191.565 159.125L195.186 158.403L195.337 159.644C195.455 159.448 195.586 159.26 195.728 159.082C195.875 158.902 196.036 158.744 196.211 158.608C196.385 158.467 196.573 158.349 196.775 158.257C196.982 158.158 197.204 158.091 197.441 158.056C197.879 157.992 198.273 158.007 198.624 158.103C198.975 158.199 199.287 158.353 199.561 158.566C199.834 158.778 200.076 159.043 200.285 159.36C200.494 159.671 200.676 160.01 200.83 160.377C200.984 160.744 201.117 161.132 201.23 161.542C201.342 161.947 201.435 162.349 201.51 162.749C201.59 163.148 201.657 163.535 201.712 163.911C201.768 164.288 201.818 164.63 201.863 164.939Z" fill="white"/>
<rect x="155.771" y="185.512" width="45.089" height="21" rx="6" transform="rotate(-8.35893 155.771 185.512)" fill="#7269E3"/>
<path d="M177.078 188.194L174.109 193.889L178.051 198.901L174.558 200.062L171.717 197.068L172.107 200.58L168.91 201.176L167.417 189.298L171.049 188.97L171.284 192.504L173.137 188.457L177.078 188.194ZM181.385 197.242C181.418 197.469 181.405 197.687 181.346 197.895C181.287 198.104 181.194 198.294 181.067 198.466C180.944 198.631 180.791 198.772 180.608 198.888C180.424 199 180.221 199.071 180 199.104C179.773 199.137 179.556 199.127 179.348 199.074C179.139 199.015 178.95 198.924 178.779 198.802C178.613 198.674 178.471 198.518 178.355 198.335C178.244 198.151 178.171 197.946 178.138 197.719C178.106 197.498 178.116 197.28 178.169 197.067C178.227 196.854 178.317 196.664 178.44 196.498C178.568 196.327 178.723 196.183 178.906 196.067C179.089 195.95 179.294 195.876 179.521 195.842C179.742 195.81 179.957 195.823 180.166 195.882C180.375 195.94 180.562 196.034 180.728 196.162C180.899 196.285 181.043 196.44 181.16 196.628C181.277 196.816 181.352 197.021 181.385 197.242ZM189.992 191.335C190.098 192.056 190.101 192.721 190.001 193.331C189.901 193.935 189.716 194.489 189.448 194.992C189.184 195.488 188.846 195.933 188.435 196.325C188.025 196.717 187.561 197.059 187.046 197.35C186.53 197.636 185.971 197.877 185.368 198.071C184.769 198.259 184.145 198.4 183.495 198.496C183.253 198.531 183.015 198.561 182.782 198.585C182.548 198.603 182.308 198.618 182.062 198.627L180.754 188.223C181.294 187.959 181.858 187.747 182.445 187.587C183.037 187.421 183.629 187.295 184.222 187.208C184.958 187.099 185.652 187.111 186.303 187.241C186.954 187.372 187.534 187.613 188.044 187.965C188.554 188.316 188.976 188.775 189.312 189.342C189.654 189.908 189.88 190.572 189.992 191.335ZM186.896 192.295C186.86 192.016 186.79 191.752 186.685 191.505C186.585 191.256 186.446 191.045 186.268 190.871C186.094 190.691 185.885 190.559 185.641 190.474C185.396 190.383 185.116 190.356 184.8 190.392L185.195 195.23C185.497 195.138 185.763 194.996 185.993 194.804C186.222 194.607 186.41 194.382 186.557 194.129C186.709 193.87 186.813 193.594 186.87 193.301C186.931 193.003 186.945 192.703 186.912 192.403L186.896 192.295Z" fill="white"/>
<rect x="149.894" y="212.655" width="63" height="21" rx="6" transform="rotate(-8.35893 149.894 212.655)" fill="#7269E3"/>
<path d="M175.623 213.691L172.653 219.386L176.596 224.398L173.102 225.558L170.262 222.565L170.652 226.076L167.454 226.673L165.962 214.795L169.593 214.466L169.828 218.001L171.681 213.954L175.623 213.691ZM179.929 222.739C179.962 222.966 179.95 223.184 179.891 223.392C179.832 223.601 179.739 223.791 179.611 223.962C179.488 224.128 179.335 224.269 179.152 224.385C178.969 224.496 178.766 224.568 178.544 224.601C178.318 224.634 178.1 224.624 177.892 224.57C177.684 224.512 177.494 224.421 177.323 224.299C177.157 224.17 177.016 224.015 176.899 223.832C176.788 223.648 176.716 223.443 176.683 223.216C176.65 222.995 176.66 222.777 176.713 222.564C176.771 222.35 176.862 222.161 176.985 221.995C177.112 221.824 177.268 221.68 177.45 221.564C177.633 221.447 177.838 221.372 178.065 221.339C178.287 221.306 178.502 221.32 178.71 221.378C178.919 221.437 179.107 221.531 179.273 221.659C179.443 221.781 179.587 221.937 179.704 222.125C179.822 222.313 179.896 222.518 179.929 222.739ZM190.608 222.118L186.847 223.176L186.127 221.497L184.364 221.756L184.235 223.559L180.236 223.752L181.799 213.004L186.065 212.157L190.608 222.118ZM185.501 219.173L184.518 216.569L184.342 219.343L185.501 219.173ZM193.904 220.686C193.937 220.913 193.924 221.13 193.866 221.339C193.807 221.548 193.714 221.738 193.586 221.909C193.463 222.075 193.31 222.215 193.127 222.332C192.943 222.443 192.741 222.515 192.519 222.547C192.293 222.581 192.075 222.571 191.867 222.517C191.659 222.458 191.469 222.368 191.298 222.245C191.132 222.117 190.991 221.961 190.874 221.778C190.763 221.595 190.691 221.39 190.658 221.163C190.625 220.941 190.635 220.724 190.688 220.511C190.746 220.297 190.837 220.107 190.96 219.942C191.087 219.77 191.243 219.627 191.425 219.51C191.608 219.394 191.813 219.319 192.04 219.286C192.262 219.253 192.477 219.266 192.685 219.325C192.894 219.384 193.082 219.477 193.248 219.606C193.418 219.728 193.562 219.883 193.679 220.071C193.797 220.259 193.871 220.464 193.904 220.686ZM201.38 214.707C201.425 215.011 201.469 215.313 201.513 215.612C201.557 215.911 201.585 216.214 201.599 216.523C201.637 217.175 201.588 217.806 201.451 218.416C201.313 219.021 201.086 219.567 200.768 220.056C200.456 220.544 200.047 220.954 199.543 221.286C199.039 221.618 198.437 221.836 197.736 221.939C197.463 221.979 197.174 221.998 196.868 221.995C196.567 221.992 196.264 221.966 195.956 221.916C195.654 221.866 195.359 221.793 195.071 221.699C194.788 221.598 194.53 221.473 194.298 221.323L194.307 218.052C194.654 218.301 195.027 218.491 195.425 218.622C195.822 218.748 196.24 218.779 196.678 218.715C196.962 218.673 197.195 218.597 197.379 218.485C197.562 218.374 197.708 218.237 197.816 218.074C197.923 217.911 197.999 217.728 198.043 217.527C198.092 217.32 198.116 217.106 198.115 216.885C198.118 216.658 198.106 216.428 198.077 216.196C198.053 215.962 198.024 215.732 197.991 215.505C197.871 214.686 197.71 213.878 197.509 213.081C197.306 212.279 197.115 211.475 196.933 210.67L200.439 209.918C200.83 211.503 201.144 213.1 201.38 214.707Z" fill="white"/>
<rect x="129.594" y="241.916" width="112.508" height="21" rx="6" transform="rotate(-8.35893 129.594 241.916)" fill="#7269E3"/>
<path d="M149.703 250.447C149.807 251.153 149.774 251.79 149.605 252.357C149.44 252.918 149.169 253.405 148.793 253.819C148.422 254.231 147.963 254.567 147.417 254.826C146.876 255.085 146.278 255.262 145.624 255.358C145.371 255.395 145.088 255.403 144.774 255.38C144.465 255.357 144.149 255.32 143.826 255.267C143.501 255.209 143.187 255.145 142.881 255.074C142.58 254.997 142.312 254.924 142.075 254.853L141.947 251.619C142.424 251.817 142.938 251.947 143.489 252.008C144.044 252.063 144.58 252.053 145.095 251.977C145.193 251.963 145.311 251.943 145.45 251.917C145.587 251.886 145.715 251.844 145.834 251.79C145.956 251.73 146.056 251.654 146.132 251.564C146.208 251.474 146.236 251.357 146.215 251.213C146.2 251.115 146.157 251.037 146.086 250.979C146.013 250.916 145.925 250.871 145.821 250.844C145.716 250.812 145.601 250.795 145.474 250.792C145.346 250.785 145.223 250.785 145.103 250.792C144.983 250.799 144.871 250.81 144.768 250.825C144.665 250.84 144.583 250.852 144.521 250.861C144.078 250.926 143.662 250.909 143.273 250.808C142.89 250.706 142.546 250.538 142.244 250.304C141.945 250.063 141.696 249.766 141.496 249.411C141.296 249.05 141.163 248.649 141.098 248.206C141.009 247.598 141.05 247.036 141.222 246.521C141.398 246.001 141.665 245.543 142.023 245.148C142.385 244.747 142.819 244.418 143.323 244.16C143.827 243.901 144.363 243.73 144.929 243.647C145.182 243.61 145.444 243.582 145.715 243.563C145.985 243.539 146.255 243.531 146.524 243.539C146.799 243.546 147.068 243.567 147.331 243.602C147.594 243.637 147.847 243.692 148.09 243.767L148.257 246.948C147.889 246.881 147.507 246.838 147.109 246.817C146.715 246.791 146.336 246.804 145.97 246.858C145.903 246.868 145.816 246.883 145.708 246.905C145.605 246.92 145.495 246.944 145.379 246.977C145.267 247.004 145.154 247.039 145.039 247.082C144.925 247.125 144.824 247.177 144.738 247.237C144.652 247.291 144.585 247.359 144.539 247.44C144.493 247.52 144.48 247.609 144.499 247.706C144.521 247.819 144.576 247.905 144.664 247.966C144.756 248.021 144.867 248.06 144.997 248.083C145.131 248.1 145.274 248.105 145.426 248.099C145.582 248.092 145.736 248.08 145.886 248.063C146.036 248.041 146.175 248.02 146.304 248.002C146.432 247.977 146.538 247.964 146.622 247.963C147.038 247.928 147.422 247.961 147.773 248.062C148.125 248.163 148.432 248.32 148.696 248.534C148.964 248.748 149.182 249.018 149.352 249.346C149.525 249.668 149.642 250.035 149.703 250.447ZM157.201 242.413L157.605 245.701L155.315 246.133L156.091 253.346L152.854 253.996L151.506 246.866L149.221 247.328L148.778 243.666L157.201 242.413ZM166.796 245.756C166.862 246.205 166.897 246.658 166.901 247.115C166.028 247.301 165.166 247.523 164.314 247.779C163.461 248.031 162.609 248.283 161.756 248.534C161.945 248.886 162.197 249.151 162.513 249.331C162.834 249.51 163.193 249.571 163.59 249.512C163.796 249.482 164.014 249.411 164.245 249.298C164.481 249.184 164.712 249.053 164.937 248.904C165.162 248.75 165.375 248.589 165.577 248.423C165.779 248.256 165.952 248.107 166.096 247.975L166.241 251.539C166.062 251.723 165.863 251.887 165.641 252.03C165.426 252.172 165.196 252.295 164.954 252.4C164.711 252.504 164.463 252.59 164.21 252.659C163.957 252.728 163.707 252.78 163.459 252.816C162.949 252.891 162.472 252.89 162.03 252.813C161.587 252.736 161.174 252.599 160.793 252.403C160.415 252.2 160.073 251.948 159.765 251.646C159.458 251.343 159.189 251.004 158.96 250.627C158.731 250.25 158.54 249.844 158.386 249.408C158.233 248.973 158.123 248.526 158.055 248.067C157.985 247.588 157.958 247.102 157.975 246.61C157.992 246.118 158.056 245.638 158.166 245.169C158.281 244.699 158.445 244.257 158.658 243.841C158.875 243.42 159.143 243.041 159.462 242.704C159.781 242.368 160.156 242.086 160.586 241.86C161.021 241.633 161.514 241.479 162.066 241.398C162.524 241.33 162.951 241.333 163.346 241.407C163.746 241.475 164.109 241.6 164.436 241.784C164.767 241.962 165.064 242.189 165.326 242.466C165.593 242.743 165.823 243.057 166.017 243.407C166.215 243.752 166.378 244.125 166.505 244.528C166.637 244.924 166.734 245.334 166.796 245.756ZM163.646 245.809C163.624 245.664 163.587 245.52 163.534 245.375C163.481 245.225 163.409 245.093 163.319 244.98C163.233 244.866 163.128 244.779 163.004 244.719C162.878 244.653 162.73 244.632 162.56 244.657C162.354 244.688 162.18 244.771 162.037 244.908C161.898 245.039 161.784 245.198 161.696 245.384C161.607 245.566 161.541 245.76 161.497 245.966C161.454 246.173 161.426 246.361 161.414 246.531L163.671 245.979L163.646 245.809ZM176.182 243.477C176.255 243.977 176.246 244.431 176.153 244.839C176.061 245.248 175.904 245.618 175.685 245.951C175.469 246.277 175.201 246.567 174.881 246.819C174.559 247.066 174.207 247.284 173.824 247.472C173.445 247.654 173.046 247.807 172.628 247.932C172.208 248.051 171.793 248.144 171.381 248.21L171.865 251.502L168.263 252.032C168.177 251.444 168.093 250.872 168.011 250.316C167.935 249.758 167.856 249.207 167.776 248.66C167.7 248.108 167.621 247.554 167.539 246.997C167.463 246.44 167.384 245.865 167.302 245.271C167.22 244.641 167.13 244.012 167.032 243.384C166.935 242.756 166.854 242.121 166.791 241.477C167.422 241.184 168.06 240.941 168.706 240.746C169.351 240.551 170.024 240.402 170.725 240.299C171.121 240.241 171.523 240.216 171.93 240.225C172.335 240.228 172.729 240.273 173.11 240.359C173.496 240.445 173.86 240.57 174.2 240.736C174.545 240.896 174.851 241.104 175.121 241.359C175.39 241.614 175.616 241.918 175.799 242.27C175.988 242.621 176.115 243.024 176.182 243.477ZM172.789 244.244C172.739 243.909 172.598 243.664 172.365 243.509C172.136 243.348 171.859 243.291 171.534 243.339C171.426 243.355 171.314 243.382 171.199 243.42C171.088 243.452 170.983 243.488 170.883 243.529L171.122 245.8C171.196 245.8 171.266 245.794 171.333 245.785C171.4 245.775 171.47 245.765 171.542 245.754C171.727 245.727 171.901 245.67 172.062 245.583C172.228 245.495 172.369 245.385 172.487 245.252C172.603 245.114 172.689 244.962 172.743 244.796C172.802 244.624 172.817 244.44 172.789 244.244ZM186.799 248.882L182.962 249.635L182.452 246.378L180.674 246.639L181.063 250.04L177.6 250.549L176.297 239.638L180.001 239.268L180.585 244.852L182.301 244.599L181.462 238.785L185 238.359L186.799 248.882ZM196.734 236.635L196.78 239.961C196.625 239.942 196.471 239.935 196.319 239.942C196.168 239.948 196.017 239.962 195.868 239.984C195.486 240.04 195.131 240.145 194.801 240.299C194.47 240.448 194.185 240.645 193.948 240.89C193.715 241.135 193.542 241.424 193.428 241.756C193.318 242.088 193.294 242.463 193.356 242.88C193.395 243.148 193.47 243.374 193.582 243.558C193.698 243.741 193.843 243.885 194.017 243.991C194.19 244.098 194.387 244.166 194.607 244.197C194.828 244.228 195.064 244.224 195.317 244.187C195.507 244.159 195.703 244.11 195.903 244.038C196.103 243.967 196.298 243.883 196.489 243.786C196.681 243.689 196.865 243.583 197.043 243.468C197.221 243.352 197.383 243.236 197.529 243.12L197.753 246.798C197.568 246.931 197.362 247.056 197.137 247.173C196.917 247.285 196.687 247.389 196.449 247.487C196.21 247.58 195.969 247.661 195.726 247.728C195.484 247.795 195.249 247.845 195.022 247.879C194.368 247.975 193.739 247.944 193.137 247.785C192.534 247.626 191.993 247.366 191.514 247.004C191.034 246.643 190.632 246.194 190.305 245.658C189.983 245.116 189.774 244.512 189.676 243.847C189.547 242.966 189.551 242.118 189.689 241.303C189.826 240.483 190.097 239.743 190.5 239.083C190.903 238.424 191.441 237.871 192.112 237.425C192.789 236.978 193.598 236.686 194.541 236.547C194.897 236.495 195.264 236.47 195.644 236.472C196.028 236.473 196.392 236.528 196.734 236.635ZM206.432 235.195C206.467 237.043 206.534 238.878 206.633 240.7C206.732 242.518 206.84 244.347 206.958 246.188L203.823 246.886L203.787 245.675C203.701 245.809 203.595 245.929 203.469 246.037C203.348 246.145 203.214 246.238 203.068 246.317C202.921 246.392 202.767 246.454 202.606 246.504C202.444 246.549 202.288 246.58 202.138 246.596C201.787 246.643 201.447 246.624 201.119 246.541C200.79 246.452 200.481 246.319 200.191 246.14C199.901 245.956 199.632 245.735 199.383 245.477C199.134 245.214 198.914 244.933 198.722 244.634C198.536 244.33 198.379 244.016 198.252 243.693C198.131 243.368 198.047 243.049 198.001 242.735C197.933 242.271 197.87 241.791 197.813 241.294C197.76 240.791 197.72 240.286 197.693 239.779C197.666 239.273 197.653 238.769 197.653 238.269C197.658 237.768 197.685 237.285 197.732 236.82C198.365 236.759 199.001 236.695 199.638 236.627C200.276 236.56 200.908 236.475 201.536 236.372C201.483 236.838 201.431 237.306 201.379 237.777C201.331 238.242 201.295 238.711 201.27 239.183C201.243 239.65 201.236 240.117 201.246 240.584C201.257 241.051 201.297 241.519 201.366 241.988C201.382 242.096 201.41 242.25 201.449 242.449C201.489 242.649 201.544 242.843 201.614 243.033C201.689 243.222 201.782 243.385 201.891 243.521C202.005 243.652 202.145 243.705 202.309 243.681C202.505 243.652 202.668 243.544 202.799 243.356C202.928 243.164 203.032 242.917 203.108 242.616C203.185 242.315 203.238 241.973 203.266 241.59C203.299 241.206 203.314 240.809 203.312 240.399C203.314 239.983 203.303 239.566 203.278 239.148C203.254 238.731 203.223 238.34 203.185 237.978C203.152 237.609 203.117 237.28 203.079 236.99C203.047 236.7 203.02 236.475 202.996 236.315C202.981 236.212 202.964 236.112 202.944 236.015C202.924 235.918 202.902 235.819 202.877 235.717C203.213 235.678 203.546 235.637 203.877 235.594C204.208 235.55 204.54 235.504 204.875 235.455C205.133 235.417 205.391 235.379 205.648 235.341C205.91 235.298 206.172 235.249 206.432 235.195ZM216.459 237.227C216.518 237.629 216.536 238 216.512 238.341C216.493 238.675 216.429 238.99 216.319 239.285C216.21 239.58 216.054 239.861 215.851 240.128C215.648 240.395 215.394 240.658 215.091 240.919L217.412 243.926L214.033 245.117L212.359 241.999L211.405 242.171L211.739 245.407L208.415 245.895C208.268 244.716 208.119 243.543 207.969 242.376C207.824 241.207 207.68 240.033 207.538 238.854C207.462 238.26 207.386 237.671 207.31 237.087C207.235 236.503 207.169 235.913 207.113 235.316C207.454 235.129 207.793 234.966 208.131 234.827C208.469 234.687 208.809 234.569 209.153 234.471C209.501 234.367 209.854 234.281 210.212 234.213C210.575 234.138 210.947 234.073 211.329 234.017C211.916 233.931 212.495 233.93 213.065 234.015C213.64 234.093 214.163 234.264 214.633 234.527C215.103 234.789 215.5 235.144 215.824 235.591C216.153 236.038 216.364 236.583 216.459 237.227ZM213.033 237.983C213.001 237.767 212.941 237.573 212.852 237.402C212.769 237.23 212.659 237.088 212.521 236.977C212.388 236.859 212.229 236.778 212.043 236.731C211.862 236.679 211.655 236.67 211.423 236.704C211.32 236.719 211.221 236.741 211.125 236.771C211.029 236.796 210.936 236.828 210.847 236.867L211.146 239.761L211.332 239.734C211.553 239.701 211.773 239.64 211.991 239.55C212.215 239.459 212.408 239.341 212.571 239.196C212.739 239.05 212.866 238.877 212.953 238.674C213.044 238.471 213.07 238.241 213.033 237.983ZM226.059 235.817C226.118 236.219 226.136 236.59 226.112 236.93C226.093 237.265 226.029 237.579 225.919 237.875C225.81 238.17 225.654 238.451 225.451 238.717C225.248 238.984 224.995 239.248 224.691 239.508L227.012 242.515L223.633 243.706L221.959 240.588L221.005 240.76L221.339 243.996L218.015 244.484C217.868 243.306 217.719 242.133 217.569 240.965C217.424 239.797 217.28 238.623 217.138 237.443C217.062 236.849 216.986 236.26 216.91 235.677C216.835 235.093 216.769 234.502 216.713 233.905C217.054 233.718 217.394 233.555 217.731 233.416C218.069 233.277 218.409 233.158 218.753 233.061C219.101 232.957 219.454 232.871 219.812 232.802C220.175 232.728 220.547 232.663 220.929 232.607C221.516 232.52 222.095 232.519 222.665 232.604C223.24 232.683 223.763 232.853 224.233 233.116C224.703 233.379 225.1 233.733 225.424 234.181C225.753 234.627 225.965 235.173 226.059 235.817ZM222.633 236.573C222.601 236.356 222.541 236.163 222.452 235.991C222.369 235.819 222.259 235.678 222.122 235.566C221.988 235.449 221.829 235.367 221.643 235.321C221.462 235.268 221.255 235.259 221.023 235.293C220.92 235.308 220.821 235.331 220.725 235.361C220.629 235.385 220.536 235.417 220.447 235.457L220.746 238.35L220.932 238.323C221.153 238.291 221.373 238.229 221.592 238.139C221.815 238.049 222.008 237.931 222.171 237.786C222.339 237.64 222.466 237.466 222.553 237.264C222.644 237.061 222.671 236.831 222.633 236.573ZM235.518 231.347L232.757 237.817L233.508 242.176L229.535 242.76L228.99 238.403L225.318 233.083L229.187 232.009L230.915 235.166L231.769 231.63L235.518 231.347Z" fill="white"/>
<rect x="162.114" y="263.417" width="53.908" height="21" rx="6" transform="rotate(-8.35893 162.114 263.417)" fill="#7269E3"/>
<path d="M179.777 265.381L176.808 271.077L180.75 276.088L177.257 277.249L174.416 274.255L174.806 277.767L171.609 278.363L170.116 266.485L173.747 266.157L173.982 269.691L175.836 265.645L179.777 265.381ZM189.206 269.255C189.275 269.724 189.287 270.185 189.243 270.639C189.199 271.088 189.101 271.518 188.951 271.93C188.806 272.341 188.61 272.727 188.364 273.09C188.121 273.447 187.834 273.765 187.501 274.046C187.174 274.326 186.806 274.561 186.397 274.753C185.988 274.939 185.543 275.068 185.064 275.138C184.6 275.206 184.148 275.212 183.708 275.156C183.274 275.099 182.858 274.991 182.461 274.834C182.063 274.671 181.693 274.462 181.35 274.207C181.012 273.947 180.71 273.649 180.445 273.314C180.184 272.973 179.964 272.6 179.783 272.195C179.608 271.789 179.486 271.357 179.419 270.898C179.353 270.45 179.343 270.004 179.388 269.56C179.433 269.112 179.527 268.682 179.672 268.271C179.822 267.859 180.018 267.473 180.26 267.111C180.502 266.749 180.783 266.426 181.105 266.142C181.431 265.857 181.794 265.619 182.192 265.429C182.591 265.239 183.022 265.11 183.486 265.042C184.233 264.932 184.93 264.948 185.577 265.09C186.23 265.231 186.804 265.486 187.301 265.855C187.801 266.219 188.215 266.689 188.543 267.268C188.874 267.84 189.095 268.503 189.206 269.255ZM185.803 269.96C185.771 269.739 185.706 269.53 185.609 269.333C185.516 269.131 185.396 268.959 185.249 268.818C185.101 268.671 184.927 268.562 184.727 268.492C184.531 268.415 184.315 268.394 184.078 268.429C183.836 268.465 183.626 268.54 183.448 268.656C183.27 268.772 183.123 268.917 183.007 269.092C182.895 269.261 182.818 269.454 182.776 269.671C182.733 269.882 182.729 270.101 182.762 270.328C182.794 270.545 182.857 270.756 182.95 270.964C183.044 271.171 183.165 271.353 183.315 271.51C183.464 271.667 183.637 271.787 183.833 271.868C184.035 271.949 184.257 271.972 184.499 271.936C184.741 271.901 184.95 271.823 185.128 271.702C185.309 271.575 185.455 271.422 185.565 271.243C185.675 271.058 185.751 270.855 185.792 270.633C185.833 270.411 185.837 270.187 185.803 269.96ZM199.21 271.023C199.272 271.45 199.247 271.83 199.132 272.163C199.023 272.495 198.853 272.788 198.622 273.043C198.391 273.299 198.113 273.521 197.788 273.711C197.468 273.895 197.128 274.053 196.768 274.184C196.409 274.316 196.043 274.423 195.67 274.504C195.303 274.584 194.957 274.648 194.632 274.696C194.313 274.743 193.979 274.779 193.63 274.804C193.287 274.833 192.941 274.844 192.592 274.838C192.244 274.831 191.898 274.805 191.555 274.761C191.21 274.712 190.881 274.636 190.566 274.535L189.088 264.582C189.359 264.421 189.65 264.27 189.961 264.13C190.271 263.984 190.589 263.856 190.915 263.745C191.245 263.628 191.576 263.529 191.906 263.449C192.236 263.364 192.558 263.298 192.872 263.252C193.238 263.198 193.61 263.167 193.988 263.159C194.371 263.15 194.743 263.175 195.104 263.232C195.465 263.289 195.808 263.384 196.132 263.515C196.456 263.641 196.748 263.814 197.006 264.034C197.27 264.253 197.488 264.521 197.661 264.838C197.839 265.154 197.961 265.531 198.025 265.969C198.067 266.258 198.066 266.534 198.02 266.799C197.975 267.064 197.89 267.308 197.765 267.531C197.64 267.755 197.477 267.955 197.277 268.132C197.076 268.304 196.841 268.444 196.572 268.552C196.92 268.59 197.243 268.674 197.541 268.804C197.844 268.933 198.109 269.105 198.335 269.319C198.567 269.532 198.756 269.784 198.904 270.072C199.057 270.361 199.159 270.677 199.21 271.023ZM194.636 267.194C194.614 267.044 194.564 266.923 194.487 266.829C194.41 266.729 194.319 266.653 194.217 266.6C194.119 266.546 194.014 266.511 193.901 266.496C193.794 266.48 193.699 266.479 193.616 266.491C193.513 266.506 193.415 266.536 193.322 266.581C193.228 266.627 193.138 266.677 193.052 266.732L193.257 268.454C193.376 268.437 193.521 268.405 193.693 268.359C193.866 268.312 194.027 268.244 194.177 268.153C194.331 268.057 194.455 267.934 194.549 267.783C194.641 267.627 194.67 267.431 194.636 267.194ZM193.908 269.875C193.759 269.897 193.617 269.933 193.482 269.985L193.71 271.752C193.79 271.756 193.867 271.76 193.941 271.765C194.02 271.764 194.096 271.758 194.168 271.748C194.276 271.732 194.393 271.704 194.519 271.664C194.644 271.62 194.758 271.556 194.862 271.472C194.964 271.383 195.043 271.274 195.098 271.145C195.158 271.015 195.173 270.852 195.144 270.657C195.116 270.461 195.054 270.307 194.958 270.194C194.868 270.081 194.764 269.999 194.646 269.948C194.527 269.892 194.401 269.863 194.27 269.861C194.137 269.854 194.017 269.859 193.908 269.875ZM207.585 266.223C207.651 266.671 207.686 267.124 207.69 267.581C206.817 267.767 205.955 267.989 205.103 268.246C204.25 268.497 203.398 268.749 202.545 269.001C202.733 269.352 202.986 269.618 203.302 269.798C203.623 269.977 203.982 270.037 204.378 269.979C204.585 269.949 204.803 269.877 205.034 269.764C205.27 269.65 205.501 269.519 205.726 269.37C205.951 269.216 206.164 269.056 206.366 268.889C206.568 268.723 206.741 268.574 206.885 268.442L207.029 272.006C206.851 272.19 206.651 272.353 206.43 272.496C206.214 272.639 205.985 272.762 205.742 272.866C205.5 272.97 205.252 273.056 204.999 273.125C204.746 273.194 204.495 273.247 204.248 273.283C203.738 273.358 203.261 273.357 202.818 273.28C202.375 273.203 201.963 273.066 201.581 272.869C201.204 272.667 200.862 272.414 200.554 272.112C200.247 271.81 199.978 271.47 199.749 271.093C199.52 270.716 199.329 270.31 199.175 269.875C199.022 269.439 198.911 268.992 198.844 268.534C198.773 268.054 198.747 267.569 198.764 267.077C198.781 266.585 198.845 266.104 198.955 265.635C199.07 265.166 199.234 264.723 199.447 264.307C199.664 263.886 199.932 263.507 200.251 263.171C200.57 262.834 200.945 262.553 201.375 262.326C201.81 262.099 202.303 261.945 202.854 261.864C203.313 261.797 203.74 261.8 204.135 261.873C204.535 261.941 204.898 262.067 205.225 262.25C205.556 262.428 205.853 262.655 206.115 262.933C206.382 263.209 206.612 263.523 206.806 263.874C207.004 264.218 207.167 264.592 207.294 264.994C207.426 265.391 207.523 265.8 207.585 266.223ZM204.434 266.275C204.413 266.131 204.376 265.986 204.323 265.841C204.27 265.691 204.198 265.56 204.107 265.447C204.022 265.333 203.917 265.246 203.792 265.185C203.667 265.119 203.519 265.099 203.349 265.124C203.143 265.154 202.968 265.238 202.825 265.374C202.687 265.505 202.573 265.664 202.485 265.851C202.396 266.032 202.329 266.226 202.286 266.433C202.243 266.639 202.215 266.828 202.203 266.998L204.459 266.445L204.434 266.275Z" fill="white"/>
<path d="M47.7753 77.3318L47.8333 81.4886C47.639 81.4645 47.447 81.4565 47.2573 81.4647C47.0677 81.4728 46.8795 81.4906 46.6927 81.518C46.216 81.588 45.7714 81.7192 45.3587 81.9114C44.9452 82.0972 44.5898 82.3435 44.2927 82.6504C44.0021 82.9563 43.7853 83.3172 43.6424 83.733C43.506 84.1479 43.4761 84.6162 43.5527 85.1379C43.602 85.4729 43.6961 85.7552 43.8351 85.9848C43.9806 86.2135 44.1617 86.3941 44.3786 86.5268C44.5955 86.6594 44.8417 86.745 45.1172 86.7834C45.3926 86.8219 45.6882 86.818 46.0038 86.7716C46.2421 86.7366 46.4863 86.6744 46.7364 86.585C46.9865 86.4956 47.231 86.3906 47.4699 86.27C47.7088 86.1493 47.9393 86.0167 48.1616 85.8722C48.3838 85.7277 48.5862 85.5828 48.7689 85.4375L49.0497 90.0354C48.8174 90.2011 48.5607 90.3573 48.2795 90.5039C48.0038 90.6431 47.7171 90.7741 47.4193 90.8968C47.1205 91.0131 46.8194 91.1132 46.5159 91.1973C46.2124 91.2814 45.9189 91.3443 45.6355 91.3859C44.8175 91.5061 44.0319 91.4669 43.2789 91.2682C42.5259 91.0696 41.8497 90.7445 41.2504 90.293C40.651 89.8415 40.1474 89.2805 39.7396 88.61C39.3373 87.9321 39.0751 87.1777 38.9531 86.3468C38.7912 85.2453 38.7966 84.1851 38.9694 83.1661C39.1411 82.1407 39.479 81.2158 39.983 80.3916C40.4871 79.5674 41.1587 78.8765 41.998 78.3188C42.8438 77.7603 43.856 77.3944 45.0348 77.2212C45.4792 77.1559 45.9385 77.1246 46.4127 77.1273C46.8933 77.1291 47.3475 77.1972 47.7753 77.3318ZM61.0801 81.694C61.1662 82.2801 61.1818 82.8569 61.127 83.4243C61.0713 83.9852 60.9496 84.5229 60.762 85.0374C60.5808 85.551 60.336 86.0344 60.0275 86.4877C59.7245 86.9337 59.3652 87.3319 58.9495 87.6825C58.5403 88.0322 58.0802 88.3268 57.5692 88.5664C57.0573 88.7996 56.5018 88.9601 55.9028 89.0482C55.3231 89.1333 54.7582 89.1407 54.2083 89.0701C53.6648 88.9986 53.1449 88.8644 52.6488 88.6675C52.1517 88.4642 51.6889 88.2032 51.2605 87.8845C50.8375 87.5584 50.4603 87.1861 50.129 86.7676C49.8032 86.3417 49.5275 85.8755 49.3017 85.3691C49.0824 84.8617 48.9306 84.3214 48.8464 83.7481C48.764 83.1877 48.7512 82.6303 48.8079 82.0758C48.8637 81.5149 48.9822 80.9776 49.1634 80.464C49.351 79.9495 49.5958 79.4661 49.8978 79.0137C50.1998 78.5614 50.5518 78.1576 50.9536 77.8025C51.3619 77.4464 51.8151 77.1495 52.3132 76.9118C52.8113 76.6741 53.3502 76.5126 53.9299 76.4275C54.8639 76.2902 55.7354 76.3102 56.5445 76.4874C57.3601 76.6637 58.0781 76.9827 58.6987 77.4442C59.3248 77.8984 59.8422 78.487 60.2512 79.2099C60.6656 79.9255 60.9419 80.7535 61.0801 81.694ZM56.8271 82.5755C56.7864 82.2985 56.7053 82.0374 56.5837 81.792C56.4676 81.5393 56.3176 81.3244 56.1336 81.1475C55.9487 80.9641 55.7314 80.8282 55.4815 80.7399C55.2371 80.6442 54.9668 80.6181 54.6705 80.6616C54.3678 80.7061 54.1053 80.8006 53.883 80.9451C53.6608 81.0897 53.4769 81.2713 53.3314 81.4901C53.1914 81.7015 53.0952 81.9427 53.0429 82.2136C52.9896 82.478 52.9838 82.752 53.0254 83.0354C53.0652 83.3059 53.1436 83.5708 53.2606 83.8299C53.3777 84.0891 53.5296 84.3169 53.7164 84.5131C53.9031 84.7094 54.1192 84.8586 54.3645 84.9608C54.6163 85.062 54.8935 85.0903 55.1962 85.0459C55.499 85.0014 55.761 84.9036 55.9823 84.7527C56.2091 84.5943 56.3915 84.403 56.5297 84.1787C56.6669 83.948 56.7611 83.694 56.8125 83.4166C56.8639 83.1393 56.8687 82.8589 56.8271 82.5755ZM72.6636 79.7156C72.7961 80.6173 72.7989 81.4427 72.6721 82.1918C72.5452 82.9409 72.3132 83.6231 71.9759 84.2386C71.6441 84.8467 71.22 85.3861 70.7035 85.8568C70.187 86.3275 69.6058 86.7386 68.96 87.0901C68.3132 87.4352 67.6118 87.7225 66.8559 87.952C66.1064 88.1806 65.3259 88.3545 64.5143 88.4738C64.2115 88.5182 63.9143 88.5553 63.6225 88.585C63.3298 88.6083 63.0298 88.6261 62.7223 88.6384L61.1444 76.0188C61.8198 75.6893 62.5245 75.4245 63.2584 75.2246C63.9979 75.0172 64.738 74.8591 65.4787 74.7503C66.3998 74.6149 67.2657 74.6193 68.0766 74.7634C68.8874 74.9075 69.6099 75.1895 70.2441 75.6096C70.8774 76.0232 71.4025 76.5745 71.8196 77.2634C72.2422 77.9449 72.5235 78.7623 72.6636 79.7156ZM66.6386 84.3911C67.0166 84.2763 67.3506 84.1088 67.6407 83.8885C67.9362 83.6608 68.181 83.4011 68.3751 83.1094C68.5681 82.8113 68.7017 82.4889 68.7759 82.1425C68.8555 81.7886 68.8678 81.4248 68.8129 81.0513C68.759 80.6841 68.6702 80.3484 68.5465 80.0441C68.4219 79.7334 68.2556 79.4749 68.0476 79.2686C67.8387 79.0558 67.5825 78.9026 67.2793 78.809C66.975 78.7089 66.6158 78.6827 66.2017 78.7304L66.6386 84.3911ZM84.035 77.9065C84.1174 78.4669 84.1611 79.033 84.1661 79.6047C83.0751 79.8374 81.9971 80.1142 80.9322 80.4352C79.8663 80.7498 78.8005 81.0643 77.7346 81.3788C77.9702 81.818 78.2855 82.15 78.6805 82.375C79.0819 82.5989 79.5306 82.6745 80.0266 82.6016C80.2842 82.5638 80.5573 82.4743 80.8459 82.3332C81.1408 82.1911 81.4293 82.027 81.7112 81.8408C81.9922 81.6482 82.2589 81.4478 82.5112 81.2396C82.7636 81.0314 82.9797 80.8451 83.1595 80.6804L83.3402 85.1351C83.1174 85.3652 82.8678 85.5697 82.5914 85.7485C82.3214 85.9264 82.0347 86.0804 81.7314 86.2105C81.4281 86.3406 81.1183 86.4486 80.8019 86.5346C80.4855 86.6206 80.1727 86.6863 79.8635 86.7317C79.2258 86.8254 78.6301 86.8241 78.0764 86.7278C77.5227 86.6315 77.0073 86.4604 76.5303 86.2147C76.0588 85.9615 75.6308 85.646 75.2463 85.2682C74.8617 84.8904 74.5263 84.4659 74.2399 83.9948C73.9535 83.5236 73.7144 83.0158 73.5226 82.4715C73.3307 81.9272 73.1927 81.3684 73.1084 80.7952C73.0204 80.1961 72.9872 79.5891 73.0086 78.9739C73.0301 78.3588 73.1097 77.7582 73.2473 77.172C73.3913 76.585 73.5963 76.0317 73.8621 75.5123C74.1335 74.9855 74.4686 74.5118 74.8674 74.0913C75.2662 73.6708 75.7344 73.319 76.2719 73.0361C76.8158 72.7522 77.4324 72.5596 78.1216 72.4583C78.6949 72.3741 79.2284 72.3779 79.7223 72.4699C80.2217 72.5544 80.6758 72.7114 81.0846 72.9409C81.4989 73.163 81.8697 73.4474 82.197 73.7941C82.5307 74.1399 82.8186 74.5319 83.0607 74.9701C83.3083 75.4009 83.5118 75.8678 83.6712 76.3708C83.8362 76.8664 83.9574 77.3783 84.035 77.9065ZM80.0965 77.972C80.07 77.7916 80.0237 77.6109 79.9576 77.4297C79.8905 77.2422 79.8006 77.0777 79.6877 76.9364C79.5812 76.7941 79.4501 76.6851 79.2941 76.6093C79.1373 76.527 78.9526 76.5015 78.74 76.5328C78.4824 76.5706 78.2641 76.6751 78.0853 76.8461C77.9119 77.0098 77.77 77.2083 77.6595 77.4417C77.5481 77.6686 77.4653 77.9111 77.4111 78.1691C77.3568 78.4271 77.3223 78.6625 77.3075 78.8753L80.1277 78.1845L80.0965 77.972ZM89.5177 83.0429C89.5594 83.3264 89.5434 83.5985 89.4699 83.8593C89.3964 84.1202 89.2799 84.3578 89.1206 84.572C88.9667 84.7789 88.7754 84.955 88.5468 85.1005C88.3171 85.2395 88.0638 85.3294 87.7869 85.3701C87.5034 85.4117 87.2318 85.399 86.9719 85.3319C86.711 85.2584 86.4739 85.1451 86.2606 84.9922C86.0528 84.8319 85.8762 84.6374 85.7307 84.4088C85.5917 84.1791 85.5014 83.9226 85.4597 83.6392C85.419 83.3622 85.4318 83.0906 85.4979 82.8242C85.5705 82.5569 85.6837 82.3198 85.8376 82.113C85.9969 81.8987 86.1909 81.7189 86.4196 81.5734C86.6483 81.428 86.9043 81.3344 87.1878 81.2928C87.4647 81.2521 87.7337 81.2685 87.9945 81.342C88.2554 81.4155 88.4897 81.5325 88.6975 81.6928C88.9108 81.8457 89.0907 82.0397 89.2371 82.2748C89.3835 82.5099 89.477 82.766 89.5177 83.0429ZM88.6091 76.8593C88.6508 77.1428 88.6348 77.4149 88.5613 77.6757C88.4878 77.9366 88.3713 78.1742 88.212 78.3884C88.0581 78.5953 87.8669 78.7714 87.6382 78.9169C87.4085 79.0559 87.1553 79.1458 86.8783 79.1865C86.5949 79.2281 86.3232 79.2154 86.0633 79.1483C85.8024 79.0747 85.5654 78.9615 85.3521 78.8086C85.1443 78.6483 84.9676 78.4538 84.8222 78.2252C84.6831 77.9955 84.5928 77.739 84.5512 77.4556C84.5105 77.1786 84.5232 76.907 84.5893 76.6406C84.6619 76.3733 84.7751 76.1362 84.929 75.9294C85.0883 75.7151 85.2824 75.5353 85.511 75.3898C85.7397 75.2443 85.9958 75.1508 86.2792 75.1091C86.5562 75.0684 86.8251 75.0849 87.0859 75.1584C87.3468 75.2319 87.5811 75.3489 87.7889 75.5092C88.0022 75.6621 88.1821 75.8561 88.3285 76.0912C88.4749 76.3263 88.5684 76.5824 88.6091 76.8593Z" fill="white"/>
<path d="M110.282 73.9514C110.372 74.5633 110.414 75.1887 110.409 75.8277C110.404 76.4603 110.341 77.0848 110.221 77.7012C110.106 78.3103 109.929 78.8924 109.688 79.4477C109.447 80.0029 109.135 80.5027 108.753 80.9471C108.37 81.385 107.908 81.7556 107.367 82.0589C106.832 82.3612 106.211 82.5644 105.502 82.6685C105.193 82.7139 104.866 82.7488 104.521 82.7732C104.181 82.7902 103.839 82.7911 103.495 82.7759C103.156 82.7533 102.82 82.7073 102.487 82.6377C102.154 82.5617 101.844 82.4492 101.559 82.3003L101.525 78.5743C101.742 78.6609 101.983 78.7372 102.249 78.8034C102.515 78.8631 102.785 78.9122 103.061 78.9507C103.336 78.9892 103.609 79.0116 103.88 79.0179C104.15 79.0177 104.404 79.0001 104.642 78.9651C105.016 78.9102 105.33 78.8113 105.586 78.6685C105.847 78.5183 106.056 78.3297 106.213 78.1026C106.377 77.8745 106.497 77.6134 106.572 77.3194C106.646 77.019 106.684 76.6911 106.684 76.3357C106.328 76.5986 105.945 76.816 105.536 76.988C105.127 77.1599 104.704 77.2781 104.266 77.3424C103.724 77.422 103.197 77.4139 102.683 77.3184C102.169 77.2228 101.705 77.0475 101.293 76.7922C100.879 76.5305 100.53 76.1904 100.244 75.7716C99.9592 75.3529 99.7745 74.8569 99.6902 74.2837C99.5824 73.5494 99.6155 72.8569 99.7897 72.2061C99.9703 71.5545 100.26 70.9756 100.66 70.4694C101.059 69.9633 101.556 69.5414 102.152 69.2039C102.753 68.8654 103.421 68.6423 104.156 68.5344C105.051 68.4028 105.849 68.4567 106.548 68.6961C107.254 68.928 107.861 69.2962 108.369 69.8006C108.883 70.2975 109.298 70.9045 109.614 71.6214C109.936 72.3373 110.159 73.114 110.282 73.9514ZM106.075 73.1285C106.046 72.9352 105.975 72.7679 105.863 72.6266C105.756 72.4843 105.627 72.3683 105.476 72.2787C105.325 72.1891 105.158 72.1281 104.975 72.0957C104.793 72.0632 104.615 72.0598 104.441 72.0854C104.267 72.1109 104.1 72.165 103.941 72.2476C103.781 72.3237 103.642 72.4265 103.523 72.5558C103.403 72.6788 103.312 72.8237 103.251 72.9906C103.196 73.1501 103.181 73.3232 103.209 73.51C103.236 73.6968 103.303 73.8614 103.41 74.0037C103.523 74.145 103.655 74.2605 103.806 74.3501C103.957 74.4397 104.125 74.504 104.308 74.5428C104.491 74.5752 104.669 74.5787 104.843 74.5531C105.017 74.5276 105.183 74.4735 105.342 74.3909C105.501 74.3083 105.641 74.2056 105.761 74.0827C105.88 73.9533 105.967 73.8088 106.023 73.6493C106.085 73.4889 106.102 73.3153 106.075 73.1285ZM121.403 75.1402C121.533 76.0227 121.491 76.8184 121.28 77.5272C121.074 78.2287 120.735 78.8378 120.265 79.3543C119.801 79.8699 119.228 80.2898 118.545 80.6138C117.869 80.9369 117.122 81.1586 116.304 81.2788C115.988 81.3252 115.634 81.3344 115.242 81.3065C114.856 81.2777 114.461 81.2304 114.056 81.1648C113.651 81.0928 113.257 81.0124 112.876 80.9237C112.5 80.8276 112.164 80.7355 111.868 80.6474L111.708 76.6042C112.304 76.8523 112.946 77.0145 113.635 77.091C114.33 77.16 114.999 77.1472 115.643 77.0526C115.765 77.0346 115.913 77.0096 116.086 76.9776C116.258 76.9392 116.418 76.886 116.566 76.8182C116.72 76.743 116.844 76.6491 116.939 76.5364C117.035 76.4237 117.069 76.2771 117.042 76.0968C117.024 75.9744 116.971 75.877 116.881 75.8046C116.791 75.7258 116.68 75.6696 116.55 75.6361C116.419 75.5961 116.275 75.5746 116.116 75.5715C115.957 75.562 115.802 75.5617 115.652 75.5706C115.502 75.5795 115.363 75.5934 115.234 75.6123C115.105 75.6313 115.002 75.6464 114.925 75.6578C114.371 75.7392 113.851 75.7168 113.365 75.5908C112.886 75.4638 112.457 75.2538 112.078 74.9606C111.705 74.6601 111.394 74.288 111.145 73.8443C110.894 73.3942 110.728 72.8921 110.647 72.3382C110.535 71.5781 110.587 70.8763 110.801 70.2328C111.022 69.5819 111.355 69.0097 111.803 68.5163C112.256 68.0154 112.797 67.6035 113.427 67.2806C114.058 66.9577 114.727 66.7442 115.436 66.6401C115.751 66.5937 116.079 66.5588 116.417 66.5353C116.755 66.5054 117.093 66.4953 117.43 66.505C117.773 66.5138 118.109 66.5401 118.438 66.5839C118.767 66.6277 119.083 66.6964 119.386 66.79L119.596 70.7667C119.136 70.6829 118.657 70.6282 118.16 70.6025C117.668 70.5695 117.194 70.5866 116.736 70.6538C116.652 70.6661 116.543 70.6854 116.409 70.7117C116.28 70.7307 116.143 70.7607 115.998 70.8018C115.858 70.8355 115.717 70.8793 115.573 70.9333C115.43 70.9873 115.304 71.0517 115.197 71.1268C115.088 71.1953 115.005 71.2799 114.948 71.3805C114.89 71.4811 114.874 71.5921 114.898 71.7135C114.925 71.8543 114.994 71.9627 115.104 72.0386C115.219 72.1072 115.358 72.1559 115.52 72.1847C115.688 72.2062 115.866 72.2128 116.056 72.2047C116.252 72.1956 116.444 72.1806 116.632 72.1596C116.819 72.1321 116.992 72.1066 117.153 72.0829C117.314 72.0528 117.446 72.0366 117.551 72.0344C118.071 71.9909 118.551 72.0322 118.991 72.1585C119.43 72.2847 119.815 72.4816 120.143 72.7491C120.479 73.0157 120.752 73.3539 120.964 73.7637C121.181 74.1661 121.327 74.6249 121.403 75.1402ZM135.644 63.9077L136.839 78.2219L132.462 79.0625L131.401 71.5786L130.297 77.9L128.596 78.1499L126.278 72.9829L127.178 79.2466L122.734 80.0378L120.966 66.6566L125.904 65.7337L128.814 71.8402L130.446 64.6715L135.644 63.9077ZM146.338 67.4295C146.414 67.9448 146.393 68.4513 146.275 68.949C146.156 69.4402 145.973 69.9146 145.724 70.3723C145.481 70.8226 145.188 71.2505 144.847 71.6561C144.51 72.0542 144.163 72.4211 143.804 72.7568L146.857 72.3082L147.216 76.3616L138.127 77.3812L137.61 73.8643C137.935 73.6982 138.272 73.5072 138.622 73.2913C138.977 73.0679 139.32 72.8235 139.649 72.5579C139.985 72.2914 140.295 72.0025 140.578 71.6911C140.867 71.3787 141.112 71.05 141.311 70.7048C141.516 70.3523 141.662 69.982 141.75 69.594C141.844 69.2051 141.86 68.7981 141.798 68.373C141.762 68.1282 141.685 67.9191 141.567 67.7455C141.456 67.571 141.314 67.4339 141.142 67.3343C140.968 67.2282 140.774 67.1613 140.56 67.1336C140.35 67.0985 140.13 67.098 139.898 67.1321C139.705 67.1605 139.512 67.2119 139.319 67.2863C139.125 67.3543 138.937 67.4411 138.755 67.5468C138.573 67.6525 138.404 67.7761 138.247 67.9176C138.095 68.0517 137.962 68.1996 137.848 68.3611L136.441 64.6986C136.644 64.4253 136.889 64.1854 137.174 63.9789C137.46 63.7724 137.766 63.5958 138.093 63.449C138.42 63.2958 138.757 63.1706 139.104 63.0735C139.452 62.9763 139.796 62.9027 140.138 62.8525C140.898 62.7409 141.627 62.7752 142.324 62.9557C143.021 63.1297 143.647 63.4227 144.201 63.8348C144.76 64.2396 145.227 64.7501 145.6 65.3664C145.98 65.9817 146.226 66.6695 146.338 67.4295ZM156.22 64.418C155.837 66.3364 155.491 68.0752 155.18 69.6343C155.047 70.2987 154.917 70.9561 154.789 71.6067C154.66 72.2508 154.539 72.841 154.427 73.3773C154.321 73.9062 154.232 74.3536 154.16 74.7194C154.089 75.0852 154.043 75.3123 154.024 75.4008L148.918 75.8549L151.971 65.5951L146.757 66.6572L146.144 62.4833L155.703 60.9011L156.22 64.418ZM165.628 59.6599C165.678 60.271 165.731 60.8753 165.786 61.4726C165.841 62.0699 165.887 62.6751 165.924 63.2882L161.859 64.1027L162.038 65.3201L165.593 64.7976L165.84 67.8212L162.473 68.4147L163.333 74.1317L158.458 74.9467L156.72 60.9688L165.628 59.6599Z" fill="#00C299"/>
<mask id="path-17-inside-2_229_604" fill="white">
<path d="M187.769 64.5754C186.645 56.9255 191.935 49.8129 199.585 48.6889L271.81 38.0766C279.46 36.9526 286.572 42.2428 287.696 49.8926V49.8926C288.82 57.5425 283.53 64.6551 275.88 65.7791L203.656 76.3914C196.006 77.5155 188.893 72.2252 187.769 64.5754V64.5754Z"/>
</mask>
<path d="M187.769 64.5754C186.645 56.9255 191.935 49.8129 199.585 48.6889L271.81 38.0766C279.46 36.9526 286.572 42.2428 287.696 49.8926V49.8926C288.82 57.5425 283.53 64.6551 275.88 65.7791L203.656 76.3914C196.006 77.5155 188.893 72.2252 187.769 64.5754V64.5754Z" fill="#50A2FF"/>
<path d="M185.734 50.7241L285.661 36.0414L185.734 50.7241ZM287.696 49.8926C288.9 58.0889 283.232 65.7096 275.036 66.9139L204.79 77.2354C196.594 78.4398 188.973 72.7717 187.769 64.5754C188.813 71.6788 195.86 76.5261 203.51 75.4021L275.735 64.7898C283.385 63.6657 288.74 56.9961 287.696 49.8926ZM189.804 78.4267L185.734 50.7241L189.804 78.4267ZM285.661 36.0414L289.731 63.7439L285.661 36.0414Z" fill="white" mask="url(#path-17-inside-2_229_604)"/>
<path d="M212.944 60.8764C213.048 61.5823 213.014 62.2111 212.842 62.7628C212.675 63.3085 212.402 63.7803 212.024 64.1781C211.65 64.5699 211.188 64.8878 210.64 65.1316C210.096 65.3694 209.496 65.5365 208.842 65.6326C208.589 65.6697 208.306 65.6771 207.992 65.6548C207.684 65.6317 207.367 65.5939 207.044 65.5415C206.72 65.4838 206.405 65.4195 206.1 65.3486C205.799 65.2717 205.53 65.198 205.293 65.1275L205.188 62.0476C205.665 62.246 206.179 62.3758 206.73 62.437C207.285 62.4922 207.821 62.4819 208.336 62.4062C208.434 62.3918 208.552 62.3719 208.691 62.3463C208.828 62.3155 208.956 62.273 209.075 62.2188C209.197 62.1586 209.297 62.0835 209.373 61.9933C209.449 61.9031 209.477 61.7859 209.456 61.6416C209.441 61.5437 209.398 61.4658 209.327 61.4079C209.254 61.3448 209.166 61.2999 209.062 61.2731C208.957 61.2411 208.842 61.2239 208.715 61.2214C208.587 61.2138 208.464 61.2136 208.344 61.2207C208.224 61.2278 208.112 61.2389 208.009 61.2541C207.906 61.2692 207.823 61.2813 207.762 61.2904C207.318 61.3555 206.904 61.3454 206.517 61.26C206.136 61.1739 205.796 61.0239 205.496 60.81C205.2 60.5902 204.954 60.3106 204.757 59.971C204.559 59.6264 204.427 59.2325 204.362 58.7893C204.273 58.1813 204.314 57.6198 204.486 57.105C204.662 56.5843 204.929 56.1265 205.287 55.7318C205.649 55.3311 206.082 55.0016 206.586 54.7433C207.091 54.4849 207.626 54.3141 208.193 54.2308C208.446 54.1937 208.707 54.1658 208.978 54.147C209.249 54.1231 209.518 54.115 209.788 54.1228C210.063 54.1298 210.332 54.1508 210.595 54.1859C210.858 54.2209 211.111 54.2759 211.353 54.3508L211.521 57.5321C211.153 57.4651 210.77 57.4213 210.372 57.4008C209.979 57.3744 209.599 57.3881 209.233 57.4418C209.166 57.4517 209.079 57.4671 208.972 57.4882C208.869 57.5033 208.759 57.5273 208.643 57.5602C208.531 57.5871 208.418 57.6222 208.303 57.6654C208.188 57.7086 208.088 57.7602 208.002 57.8202C207.915 57.875 207.849 57.9427 207.803 58.0232C207.757 58.1036 207.743 58.1924 207.763 58.2896C207.785 58.4022 207.839 58.4837 207.925 58.5342C208.017 58.5839 208.127 58.6152 208.255 58.6279C208.387 58.6348 208.528 58.6272 208.678 58.6052C208.832 58.5825 208.984 58.5576 209.133 58.5305C209.281 58.4982 209.419 58.4701 209.547 58.446C209.674 58.4168 209.779 58.3987 209.863 58.3917C210.279 58.3569 210.662 58.39 211.014 58.491C211.366 58.5919 211.673 58.7494 211.936 58.9635C212.205 59.1767 212.423 59.4473 212.593 59.7751C212.766 60.0971 212.883 60.4641 212.944 60.8764ZM223.203 63.4119L219.365 64.1653L218.81 60.5988L217.032 60.8601L217.421 64.2615L213.958 64.7703L212.655 53.8594L216.359 53.4889L216.943 59.0727L218.659 58.8206L217.798 52.8512L221.336 52.426L223.203 63.4119ZM233.586 61.2072L229.825 62.2652L229.105 60.5864L227.342 60.8454L227.213 62.649L223.214 62.8418L224.777 52.0941L229.043 51.2462L233.586 61.2072ZM228.479 58.2621L227.496 55.6585L227.32 58.4325L228.479 58.2621ZM241.811 53.0657C241.87 53.4677 241.887 53.8388 241.864 54.1792C241.844 54.5137 241.78 54.8285 241.671 55.1235C241.561 55.4186 241.405 55.6995 241.202 55.9662C240.999 56.2329 240.746 56.4965 240.442 56.757L242.763 59.764L239.385 60.9553L237.711 57.8374L236.757 58.0092L237.09 61.2451L233.766 61.7335C233.62 60.5548 233.471 59.3816 233.32 58.214C233.175 57.0457 233.031 55.8718 232.89 54.6924C232.813 54.0982 232.737 53.5093 232.662 52.9255C232.586 52.3417 232.521 51.7512 232.465 51.1541C232.806 50.9671 233.145 50.8041 233.482 50.665C233.82 50.5259 234.161 50.4074 234.504 50.3095C234.852 50.2058 235.205 50.1196 235.564 50.0512C235.927 49.9768 236.299 49.9116 236.68 49.8556C237.267 49.7693 237.846 49.7684 238.417 49.8531C238.992 49.9318 239.514 50.1024 239.984 50.365C240.455 50.6275 240.852 50.9825 241.175 51.4297C241.504 51.8763 241.716 52.4216 241.811 53.0657ZM238.384 53.8219C238.352 53.6054 238.292 53.4116 238.204 53.2403C238.121 53.0683 238.01 52.9266 237.873 52.8152C237.74 52.6979 237.58 52.616 237.395 52.5696C237.213 52.5173 237.007 52.5082 236.775 52.5422C236.672 52.5574 236.572 52.5799 236.477 52.6097C236.38 52.6344 236.288 52.6665 236.199 52.7058L236.497 55.5994L236.683 55.5721C236.904 55.5396 237.124 55.4783 237.343 55.3883C237.566 55.2976 237.76 55.1797 237.923 55.0346C238.091 54.8889 238.218 54.7149 238.304 54.5127C238.395 54.3098 238.422 54.0795 238.384 53.8219ZM249.129 48.216C249.169 48.7049 249.211 49.1883 249.255 49.6662C249.299 50.144 249.336 50.6282 249.366 51.1186L246.113 51.7702L246.179 52.7555L248.482 52.417L248.664 54.8382L246.357 55.2562L246.445 56.396L248.362 56.1144L249.723 55.9145C249.775 56.4859 249.825 57.055 249.871 57.622C249.922 58.1831 249.976 58.7464 250.032 59.3118L243.392 60.4454L242.002 49.2631L249.129 48.216Z" fill="white"/>
<g clip-path="url(#clip0_229_604)">
<path d="M263.251 52.6559C263.024 52.3591 262.704 52.146 262.343 52.0502C261.982 51.9545 261.599 51.9814 261.254 52.1268C260.91 52.2722 260.623 52.5279 260.44 52.8537C260.257 53.1794 260.187 53.5569 260.241 53.9267C260.295 54.2966 260.471 54.638 260.74 54.8972C261.01 55.1565 261.358 55.3189 261.729 55.3591C262.101 55.3993 262.475 55.315 262.794 55.1193C263.112 54.9236 263.357 54.6277 263.489 54.278M263.251 52.6559C263.42 52.8767 263.537 53.1415 263.58 53.4361C263.623 53.7307 263.587 54.0187 263.489 54.278M263.251 52.6559L269.77 47.6698M263.489 54.278L271.167 57.1782M269.77 47.6698C269.903 47.8505 270.07 48.0029 270.263 48.1181C270.455 48.2333 270.669 48.309 270.891 48.3407C271.113 48.3724 271.339 48.3595 271.556 48.3028C271.773 48.2461 271.976 48.1468 272.154 48.0105C272.333 47.8742 272.482 47.7038 272.593 47.5092C272.705 47.3146 272.777 47.0997 272.804 46.8771C272.832 46.6545 272.814 46.4286 272.754 46.2127C272.693 45.9968 272.59 45.7952 272.45 45.6196C272.175 45.2737 271.775 45.0496 271.336 44.9954C270.897 44.9412 270.455 45.0613 270.104 45.3298C269.753 45.5984 269.521 45.9939 269.459 46.4315C269.396 46.8691 269.508 47.3137 269.77 47.6698ZM271.167 57.1782C271.088 57.3856 271.052 57.6064 271.059 57.8279C271.066 58.0495 271.116 58.2675 271.208 58.4695C271.299 58.6716 271.429 58.8536 271.591 59.0054C271.752 59.1571 271.942 59.2755 272.149 59.3539C272.357 59.4322 272.578 59.4689 272.799 59.4619C273.021 59.4549 273.239 59.4044 273.441 59.3131C273.643 59.2219 273.825 59.0918 273.977 58.9302C274.128 58.7685 274.247 58.5786 274.325 58.3713C274.483 57.9524 274.469 57.4879 274.284 57.0799C274.1 56.6719 273.761 56.3538 273.342 56.1956C272.924 56.0374 272.459 56.052 272.051 56.2363C271.643 56.4206 271.325 56.7594 271.167 57.1782Z" stroke="white" stroke-width="1.5" stroke-linecap="round" stroke-linejoin="round"/>
</g>
<path d="M103.121 107.951L104.077 119.403L100.575 120.075L99.7267 114.088L98.8431 119.145L97.4827 119.345L95.6277 115.211L96.3482 120.222L92.7931 120.855L91.3781 110.15L95.3283 109.412L97.657 114.297L98.9622 108.562L103.121 107.951ZM113.743 107.212L110.364 113.772L110.874 118.641L107.21 119.179L106.597 114.358L103.543 108.947L107.413 107.873L108.522 111.121L109.994 107.494L113.743 107.212ZM123.878 105.628L124.079 108.93C123.924 108.911 123.773 108.904 123.626 108.91C123.48 108.916 123.332 108.93 123.182 108.952C122.816 109.005 122.473 109.103 122.152 109.245C121.835 109.386 121.562 109.571 121.333 109.8C121.108 110.027 120.94 110.3 120.829 110.616C120.722 110.927 120.698 111.28 120.756 111.677C120.798 111.966 120.877 112.212 120.991 112.416C121.109 112.615 121.257 112.775 121.432 112.896C121.613 113.012 121.819 113.09 122.051 113.129C122.288 113.168 122.544 113.167 122.817 113.127C123.007 113.099 123.201 113.052 123.396 112.987C123.591 112.916 123.784 112.832 123.975 112.736C124.166 112.639 124.348 112.534 124.521 112.419C124.694 112.304 124.853 112.186 124.998 112.064L125.408 115.715C125.222 115.848 125.019 115.973 124.8 116.089C124.579 116.2 124.349 116.303 124.11 116.396C123.877 116.493 123.639 116.575 123.396 116.643C123.159 116.709 122.929 116.759 122.708 116.791C121.976 116.899 121.288 116.86 120.645 116.676C120.008 116.491 119.438 116.195 118.936 115.79C118.439 115.379 118.026 114.879 117.697 114.29C117.368 113.701 117.152 113.054 117.048 112.348C116.924 111.503 116.927 110.697 117.056 109.931C117.191 109.163 117.451 108.478 117.836 107.874C118.225 107.264 118.74 106.756 119.381 106.352C120.026 105.941 120.794 105.67 121.686 105.539C122.042 105.487 122.406 105.462 122.781 105.465C123.155 105.468 123.521 105.522 123.878 105.628ZM134.716 108.773C134.785 109.242 134.798 109.703 134.754 110.157C134.709 110.606 134.612 111.036 134.462 111.448C134.317 111.859 134.121 112.245 133.874 112.608C133.632 112.965 133.344 113.283 133.012 113.564C132.685 113.843 132.316 114.079 131.908 114.271C131.498 114.457 131.054 114.586 130.575 114.656C130.111 114.724 129.659 114.73 129.219 114.674C128.784 114.617 128.368 114.509 127.971 114.352C127.574 114.189 127.203 113.98 126.861 113.725C126.522 113.464 126.221 113.167 125.956 112.832C125.695 112.491 125.474 112.118 125.294 111.713C125.118 111.307 124.997 110.875 124.929 110.416C124.864 109.968 124.853 109.522 124.899 109.078C124.943 108.63 125.038 108.2 125.183 107.789C125.333 107.377 125.529 106.991 125.771 106.629C126.012 106.267 126.294 105.944 126.615 105.66C126.942 105.375 127.304 105.137 127.703 104.947C128.101 104.757 128.532 104.628 128.996 104.56C129.743 104.45 130.441 104.466 131.088 104.608C131.74 104.749 132.315 105.004 132.811 105.373C133.312 105.736 133.726 106.207 134.053 106.786C134.385 107.358 134.606 108.021 134.716 108.773ZM131.314 109.478C131.281 109.257 131.217 109.048 131.119 108.851C131.026 108.649 130.906 108.477 130.759 108.336C130.611 108.189 130.437 108.08 130.238 108.01C130.042 107.933 129.826 107.912 129.589 107.947C129.347 107.983 129.137 108.058 128.959 108.174C128.781 108.289 128.634 108.435 128.517 108.61C128.405 108.779 128.328 108.972 128.287 109.189C128.244 109.4 128.239 109.619 128.273 109.846C128.304 110.062 128.367 110.274 128.461 110.482C128.554 110.689 128.676 110.871 128.825 111.028C128.975 111.185 129.148 111.305 129.344 111.386C129.545 111.467 129.767 111.49 130.009 111.454C130.252 111.419 130.461 111.341 130.638 111.22C130.82 111.093 130.966 110.94 131.076 110.761C131.186 110.576 131.261 110.373 131.302 110.151C131.343 109.929 131.347 109.705 131.314 109.478ZM144.811 107.29C144.88 107.759 144.893 108.22 144.849 108.674C144.804 109.123 144.707 109.553 144.557 109.964C144.412 110.375 144.216 110.762 143.969 111.125C143.727 111.481 143.439 111.8 143.107 112.08C142.779 112.36 142.411 112.596 142.002 112.788C141.593 112.974 141.148 113.103 140.669 113.173C140.205 113.241 139.754 113.247 139.314 113.191C138.879 113.133 138.463 113.026 138.066 112.868C137.668 112.706 137.298 112.497 136.955 112.242C136.617 111.981 136.315 111.683 136.05 111.349C135.79 111.008 135.569 110.635 135.388 110.23C135.213 109.824 135.092 109.392 135.024 108.933C134.958 108.485 134.948 108.039 134.993 107.595C135.038 107.146 135.133 106.717 135.278 106.306C135.428 105.894 135.624 105.507 135.865 105.145C136.107 104.784 136.388 104.461 136.71 104.176C137.037 103.892 137.399 103.654 137.798 103.464C138.196 103.274 138.627 103.145 139.091 103.076C139.838 102.967 140.535 102.983 141.183 103.124C141.835 103.265 142.41 103.521 142.906 103.89C143.407 104.253 143.821 104.724 144.148 105.302C144.48 105.875 144.701 106.537 144.811 107.29ZM141.409 107.995C141.376 107.773 141.311 107.564 141.214 107.368C141.121 107.166 141.001 106.994 140.854 106.852C140.706 106.706 140.532 106.597 140.332 106.526C140.137 106.45 139.92 106.429 139.683 106.464C139.441 106.499 139.231 106.575 139.053 106.691C138.876 106.806 138.729 106.952 138.612 107.127C138.5 107.296 138.423 107.489 138.381 107.705C138.339 107.917 138.334 108.136 138.367 108.363C138.399 108.579 138.462 108.791 138.556 108.998C138.649 109.206 138.771 109.388 138.92 109.545C139.07 109.702 139.242 109.821 139.439 109.903C139.64 109.984 139.862 110.007 140.104 109.971C140.346 109.936 140.556 109.857 140.733 109.737C140.914 109.61 141.06 109.457 141.171 109.277C141.281 109.093 141.356 108.89 141.397 108.668C141.438 108.446 141.442 108.222 141.409 107.995ZM152.399 108.038L152.579 111.518L146.145 112.984L144.771 101.91L148.79 101.32L149.261 108.499L152.399 108.038ZM162.138 99.4057C162.178 99.8946 162.22 100.378 162.264 100.856C162.308 101.334 162.345 101.818 162.375 102.308L159.123 102.96L159.266 103.934L162.11 103.516L162.308 105.935L159.614 106.41L160.302 110.983L156.402 111.635L155.012 100.453L162.138 99.4057ZM172.134 101.711C172.193 102.113 172.211 102.485 172.187 102.825C172.168 103.159 172.104 103.474 171.994 103.769C171.885 104.064 171.729 104.345 171.526 104.612C171.323 104.879 171.07 105.142 170.766 105.403L173.087 108.41L169.708 109.601L168.034 106.483L167.08 106.655L167.414 109.891L164.09 110.379C163.943 109.2 163.794 108.027 163.644 106.86C163.499 105.691 163.355 104.517 163.213 103.338C163.137 102.744 163.061 102.155 162.985 101.571C162.91 100.987 162.844 100.397 162.788 99.7998C163.129 99.6128 163.469 99.4498 163.806 99.3107C164.144 99.1716 164.484 99.0531 164.828 98.9552C165.176 98.8515 165.529 98.7654 165.887 98.6969C166.25 98.6225 166.622 98.5573 167.004 98.5013C167.591 98.415 168.17 98.4141 168.74 98.4988C169.315 98.5775 169.838 98.7481 170.308 99.0107C170.778 99.2732 171.175 99.6282 171.499 100.075C171.828 100.522 172.04 101.067 172.134 101.711ZM168.708 102.468C168.676 102.251 168.616 102.057 168.528 101.886C168.444 101.714 168.334 101.572 168.197 101.461C168.064 101.344 167.904 101.262 167.718 101.215C167.537 101.163 167.33 101.154 167.098 101.188C166.995 101.203 166.896 101.226 166.8 101.255C166.704 101.28 166.611 101.312 166.522 101.352L166.821 104.245L167.007 104.218C167.228 104.185 167.448 104.124 167.667 104.034C167.89 103.943 168.083 103.825 168.246 103.68C168.414 103.535 168.542 103.361 168.628 103.158C168.719 102.956 168.746 102.725 168.708 102.468ZM176.206 97.6072L177.212 108.214L173.975 108.864L172.125 98.4278L176.206 97.6072ZM186.147 100.884C186.213 101.333 186.248 101.785 186.252 102.243C185.379 102.429 184.517 102.65 183.665 102.907C182.812 103.159 181.96 103.411 181.107 103.662C181.295 104.013 181.548 104.279 181.864 104.459C182.185 104.638 182.544 104.699 182.94 104.64C183.147 104.61 183.365 104.538 183.596 104.426C183.832 104.312 184.063 104.181 184.288 104.032C184.513 103.878 184.726 103.717 184.928 103.551C185.13 103.384 185.303 103.235 185.447 103.103L185.591 106.667C185.413 106.851 185.213 107.015 184.992 107.158C184.776 107.3 184.547 107.423 184.304 107.527C184.062 107.632 183.814 107.718 183.561 107.787C183.308 107.856 183.057 107.908 182.81 107.944C182.3 108.019 181.823 108.018 181.38 107.941C180.937 107.864 180.525 107.727 180.143 107.531C179.766 107.328 179.424 107.076 179.116 106.774C178.809 106.471 178.54 106.132 178.311 105.755C178.082 105.378 177.891 104.972 177.737 104.536C177.584 104.101 177.473 103.654 177.406 103.195C177.335 102.716 177.309 102.23 177.326 101.738C177.343 101.246 177.407 100.766 177.517 100.297C177.632 99.827 177.796 99.3844 178.009 98.9689C178.226 98.5474 178.494 98.1685 178.813 97.8321C179.132 97.4957 179.507 97.2143 179.937 96.9879C180.372 96.7608 180.865 96.6067 181.416 96.5257C181.875 96.4583 182.302 96.4614 182.697 96.5349C183.096 96.6026 183.46 96.7282 183.787 96.9118C184.118 97.0894 184.415 97.317 184.677 97.5943C184.944 97.871 185.174 98.1846 185.368 98.5351C185.566 98.8798 185.729 99.2533 185.856 99.6557C185.988 100.052 186.085 100.462 186.147 100.884ZM182.996 100.937C182.975 100.792 182.938 100.648 182.885 100.503C182.832 100.353 182.76 100.221 182.669 100.108C182.584 99.9943 182.479 99.9071 182.354 99.8465C182.229 99.7807 182.081 99.7603 181.911 99.7853C181.705 99.8156 181.53 99.8991 181.387 100.036C181.249 100.167 181.135 100.326 181.047 100.512C180.958 100.694 180.891 100.888 180.848 101.094C180.805 101.301 180.777 101.489 180.765 101.659L183.021 101.107L182.996 100.937ZM196.593 101.734C196.678 102.316 196.755 102.895 196.824 103.469C196.897 104.037 196.963 104.612 197.022 105.193L192.558 105.77C192.579 104.835 192.579 103.906 192.559 102.982C192.539 102.053 192.46 101.125 192.324 100.198C192.314 100.131 192.296 100.023 192.269 99.8743C192.241 99.7256 192.206 99.5596 192.164 99.3764C192.12 99.188 192.069 98.9982 192.009 98.8069C191.954 98.6097 191.888 98.4325 191.812 98.2752C191.742 98.1171 191.663 97.9918 191.576 97.8993C191.493 97.801 191.402 97.759 191.304 97.7734C191.129 97.7991 190.987 97.8726 190.879 97.9938C190.775 98.1143 190.695 98.263 190.636 98.4401C190.583 98.6112 190.547 98.8006 190.53 99.0084C190.514 99.2162 190.507 99.4224 190.511 99.6272C190.52 99.8312 190.532 100.024 190.548 100.206C190.569 100.382 190.588 100.527 190.604 100.64C190.713 101.556 190.825 102.466 190.942 103.37C191.059 104.269 191.171 105.179 191.28 106.1L187.363 106.849C187.199 105.015 187.031 103.192 186.86 101.38C186.693 99.5669 186.505 97.7469 186.294 95.9195L189.915 95.198L190.066 96.4392C190.185 96.2428 190.315 96.0552 190.457 95.8764C190.604 95.6968 190.766 95.5389 190.94 95.4027C191.114 95.2613 191.302 95.1442 191.505 95.0513C191.711 94.9525 191.933 94.8857 192.17 94.8509C192.608 94.7865 193.003 94.8022 193.353 94.8981C193.704 94.9939 194.017 95.1481 194.29 95.3606C194.563 95.5731 194.805 95.8377 195.015 96.1543C195.224 96.4658 195.405 96.805 195.559 97.1719C195.713 97.5388 195.846 97.9272 195.959 98.337C196.071 98.7417 196.165 99.1439 196.239 99.5435C196.319 99.9424 196.386 100.33 196.442 100.706C196.497 101.082 196.547 101.425 196.593 101.734ZM205.757 98.1134C205.863 98.8348 205.866 99.4951 205.764 100.094C205.663 100.694 205.477 101.239 205.207 101.732C204.942 102.218 204.603 102.65 204.189 103.026C203.776 103.403 203.311 103.732 202.794 104.013C202.277 104.289 201.716 104.519 201.111 104.703C200.512 104.885 199.887 105.025 199.238 105.12C198.996 105.156 198.758 105.185 198.525 105.209C198.29 105.228 198.05 105.242 197.804 105.252L196.542 95.156C197.082 94.8924 197.646 94.6806 198.233 94.5206C198.825 94.3547 199.417 94.2282 200.009 94.1412C200.746 94.0329 201.439 94.0364 202.088 94.1516C202.736 94.2669 203.314 94.4926 203.822 94.8286C204.328 95.1595 204.749 95.6005 205.082 96.1516C205.42 96.6968 205.645 97.3508 205.757 98.1134ZM200.937 101.854C201.24 101.762 201.507 101.628 201.739 101.452C201.976 101.27 202.171 101.062 202.327 100.828C202.481 100.59 202.588 100.332 202.647 100.055C202.711 99.7718 202.721 99.4808 202.677 99.1819C202.634 98.8882 202.563 98.6197 202.464 98.3762C202.364 98.1277 202.231 97.9209 202.065 97.7558C201.897 97.5856 201.693 97.463 201.45 97.3881C201.207 97.3081 200.919 97.2871 200.588 97.3253L200.937 101.854ZM214.487 99.0574C214.591 99.7634 214.557 100.392 214.386 100.944C214.218 101.49 213.945 101.961 213.567 102.359C213.193 102.751 212.732 103.069 212.183 103.313C211.639 103.551 211.04 103.718 210.385 103.814C210.133 103.851 209.85 103.858 209.536 103.836C209.227 103.813 208.911 103.775 208.587 103.723C208.263 103.665 207.948 103.601 207.643 103.53C207.342 103.453 207.073 103.379 206.837 103.309L206.731 100.229C207.208 100.427 207.722 100.557 208.273 100.618C208.829 100.673 209.364 100.663 209.88 100.587C209.977 100.573 210.096 100.553 210.234 100.527C210.372 100.497 210.5 100.454 210.618 100.4C210.741 100.34 210.84 100.265 210.916 100.174C210.993 100.084 211.02 99.967 210.999 99.8227C210.985 99.7248 210.942 99.6469 210.87 99.589C210.798 99.5259 210.709 99.481 210.605 99.4541C210.501 99.4221 210.385 99.4049 210.258 99.4025C210.131 99.3949 210.007 99.3946 209.887 99.4017C209.767 99.4089 209.655 99.42 209.552 99.4351C209.449 99.4503 209.367 99.4624 209.305 99.4715C208.862 99.5366 208.447 99.5265 208.061 99.4411C207.68 99.3549 207.339 99.2049 207.039 98.9911C206.744 98.7713 206.497 98.4916 206.3 98.1521C206.102 97.8074 205.97 97.4135 205.905 96.9704C205.816 96.3623 205.857 95.8009 206.029 95.2861C206.205 94.7653 206.472 94.3076 206.83 93.9128C207.192 93.5122 207.626 93.1827 208.13 92.9243C208.634 92.666 209.17 92.4952 209.736 92.4119C209.989 92.3748 210.251 92.3468 210.522 92.3281C210.792 92.3042 211.062 92.2961 211.331 92.3039C211.606 92.3109 211.875 92.3319 212.138 92.3669C212.401 92.402 212.654 92.4569 212.897 92.5318L213.064 95.7132C212.696 95.6461 212.314 95.6024 211.916 95.5819C211.522 95.5554 211.143 95.5691 210.777 95.6229C210.71 95.6327 210.623 95.6482 210.515 95.6692C210.412 95.6844 210.302 95.7084 210.186 95.7412C210.074 95.7682 209.961 95.8033 209.846 95.8465C209.732 95.8896 209.631 95.9412 209.545 96.0012C209.459 96.0561 209.392 96.1238 209.346 96.2042C209.3 96.2847 209.287 96.3735 209.306 96.4707C209.328 96.5833 209.382 96.6648 209.469 96.7153C209.56 96.765 209.67 96.7962 209.798 96.809C209.931 96.8158 210.072 96.8083 210.221 96.7863C210.376 96.7636 210.527 96.7387 210.676 96.7116C210.824 96.6793 210.962 96.6511 211.09 96.627C211.217 96.5978 211.323 96.5797 211.406 96.5728C211.822 96.5379 212.206 96.571 212.558 96.672C212.909 96.773 213.217 96.9305 213.48 97.1445C213.748 97.3578 213.967 97.6284 214.136 97.9562C214.31 98.2781 214.427 98.6452 214.487 99.0574Z" fill="white"/>
<path d="M55.6886 147.675L55.7351 151C55.5796 150.981 55.426 150.975 55.2743 150.981C55.1226 150.988 54.972 151.002 54.8225 151.024C54.4412 151.08 54.0855 151.185 53.7554 151.339C53.4245 151.487 53.1403 151.684 52.9026 151.93C52.6701 152.174 52.4967 152.463 52.3823 152.796C52.2732 153.128 52.2493 153.502 52.3106 153.92C52.35 154.188 52.4253 154.414 52.5365 154.597C52.6529 154.78 52.7978 154.925 52.9713 155.031C53.1448 155.137 53.3418 155.205 53.5621 155.236C53.7825 155.267 54.0189 155.264 54.2714 155.227C54.4621 155.199 54.6575 155.149 54.8575 155.077C55.0576 155.006 55.2532 154.922 55.4443 154.825C55.6354 154.729 55.8199 154.623 55.9977 154.507C56.1755 154.392 56.3374 154.276 56.4835 154.159L56.7081 157.838C56.5223 157.97 56.3169 158.095 56.092 158.212C55.8715 158.324 55.6421 158.429 55.4038 158.527C55.1648 158.62 54.9239 158.7 54.6811 158.767C54.4383 158.834 54.2035 158.885 53.9768 158.918C53.3224 159.014 52.694 158.983 52.0915 158.824C51.4891 158.665 50.9482 158.405 50.4687 158.044C49.9892 157.683 49.5864 157.234 49.2601 156.697C48.9383 156.155 48.7285 155.552 48.6308 154.887C48.5014 154.006 48.5057 153.157 48.6439 152.342C48.7813 151.522 49.0516 150.782 49.4548 150.123C49.8581 149.463 50.3954 148.911 51.0668 148.464C51.7434 148.018 52.5532 147.725 53.4962 147.586C53.8518 147.534 54.2192 147.509 54.5986 147.511C54.9831 147.513 55.3464 147.567 55.6886 147.675ZM67.4217 156.374L63.6605 157.432L62.9401 155.753L61.1778 156.012L61.048 157.816L57.0491 158.009L58.6127 147.261L62.8785 146.413L67.4217 156.374ZM62.3143 153.429L61.3316 150.825L61.1549 153.599L62.3143 153.429ZM73.3074 145.054L73.7116 148.343L71.4219 148.774L72.1976 155.988L68.9607 156.637L67.613 149.508L65.3278 149.97L64.8845 146.308L73.3074 145.054ZM82.9032 148.398C82.9691 148.846 83.004 149.299 83.0081 149.757C82.1352 149.943 81.2728 150.164 80.4209 150.421C79.5682 150.673 78.7155 150.924 77.8629 151.176C78.0514 151.527 78.3036 151.793 78.6196 151.973C78.9407 152.152 79.2996 152.212 79.6964 152.154C79.9025 152.124 80.121 152.052 80.3519 151.939C80.5878 151.826 80.8186 151.694 81.0441 151.546C81.2689 151.391 81.4822 151.231 81.6841 151.065C81.886 150.898 82.0589 150.749 82.2027 150.617L82.3473 154.181C82.1691 154.365 81.9694 154.529 81.7483 154.672C81.5323 154.814 81.303 154.937 81.0603 155.041C80.8177 155.145 80.5698 155.232 80.3167 155.301C80.0636 155.369 79.8133 155.422 79.566 155.458C79.0558 155.533 78.5793 155.532 78.1363 155.455C77.6933 155.378 77.281 155.241 76.8994 155.045C76.5222 154.842 76.1798 154.59 75.8722 154.287C75.5645 153.985 75.2962 153.646 75.0671 153.269C74.838 152.892 74.6467 152.486 74.4932 152.05C74.3397 151.615 74.2293 151.168 74.1619 150.709C74.0915 150.23 74.0649 149.744 74.0821 149.252C74.0993 148.76 74.1629 148.279 74.273 147.811C74.3882 147.341 74.5522 146.898 74.7649 146.483C74.9819 146.061 75.25 145.682 75.5691 145.346C75.8882 145.009 76.2627 144.728 76.6927 144.502C77.1278 144.275 77.6211 144.121 78.1724 144.04C78.6311 143.972 79.0579 143.975 79.453 144.049C79.8525 144.116 80.2158 144.242 80.5428 144.426C80.8742 144.603 81.1709 144.831 81.4327 145.108C81.6998 145.385 81.9301 145.698 82.1237 146.049C82.3218 146.394 82.4846 146.767 82.6121 147.17C82.7441 147.566 82.8411 147.976 82.9032 148.398ZM79.7523 148.45C79.7311 148.306 79.6941 148.162 79.6412 148.017C79.5876 147.867 79.5156 147.735 79.4253 147.622C79.3401 147.508 79.2352 147.421 79.1105 147.36C78.985 147.295 78.8372 147.274 78.6672 147.299C78.4611 147.329 78.2865 147.413 78.1434 147.55C78.0047 147.681 77.8912 147.84 77.8028 148.026C77.7136 148.208 77.6474 148.402 77.604 148.608C77.5606 148.815 77.533 149.003 77.5212 149.173L79.7773 148.62L79.7523 148.45ZM93.5143 151.45C93.3168 151.79 93.0569 152.099 92.7347 152.378C92.4125 152.657 92.0588 152.901 91.6736 153.111C91.2885 153.32 90.8878 153.495 90.4714 153.635C90.0543 153.77 89.6525 153.866 89.2661 153.922C88.5189 154.032 87.8124 154.007 87.1466 153.847C86.4809 153.687 85.8857 153.416 85.3613 153.035C84.8412 152.648 84.4065 152.162 84.0572 151.577C83.708 150.991 83.4792 150.33 83.3709 149.593C83.2884 149.031 83.2725 148.475 83.3234 147.926C83.3742 147.376 83.4841 146.852 83.653 146.353C83.827 145.854 84.0583 145.386 84.3467 144.948C84.6352 144.511 84.978 144.121 85.3751 143.779C85.7722 143.436 86.22 143.152 86.7185 142.926C87.2214 142.694 87.7666 142.535 88.354 142.449C88.5756 142.416 88.8142 142.392 89.0697 142.375C89.3245 142.354 89.5789 142.348 89.8331 142.358C90.0916 142.362 90.3451 142.385 90.5935 142.428C90.8419 142.47 91.0723 142.534 91.2848 142.618L91.5022 145.603C91.1978 145.537 90.8883 145.509 90.5738 145.518C90.2637 145.521 89.9618 145.545 89.6681 145.588C89.2559 145.648 88.8777 145.762 88.5337 145.928C88.194 146.089 87.9061 146.297 87.6699 146.553C87.4389 146.808 87.27 147.109 87.1631 147.456C87.0562 147.804 87.0342 148.191 87.097 148.619C87.1364 148.887 87.2107 149.142 87.32 149.384C87.4284 149.62 87.5692 149.826 87.7423 150.001C87.9197 150.169 88.1254 150.297 88.3592 150.384C88.5982 150.47 88.862 150.492 89.1506 150.449C89.3464 150.42 89.5436 150.365 89.7421 150.283C89.9458 150.201 90.1133 150.087 90.2445 149.941L90.1869 149.334L88.3273 149.575L88.0793 147.243C88.8433 147.104 89.6081 146.971 90.3736 146.842C91.1384 146.709 91.9075 146.57 92.6811 146.424L93.5143 151.45ZM103.048 145.77C103.117 146.239 103.129 146.7 103.085 147.154C103.041 147.603 102.943 148.033 102.793 148.445C102.648 148.855 102.452 149.242 102.206 149.605C101.963 149.962 101.676 150.28 101.343 150.561C101.016 150.84 100.648 151.076 100.239 151.268C99.8294 151.454 99.385 151.583 98.9058 151.653C98.442 151.721 97.9901 151.727 97.5502 151.671C97.1154 151.614 96.6995 151.506 96.3026 151.349C95.9049 151.186 95.5347 150.977 95.1919 150.722C94.8535 150.461 94.5518 150.164 94.2868 149.829C94.0262 149.488 93.8055 149.115 93.6249 148.71C93.4495 148.304 93.3281 147.872 93.2607 147.413C93.1948 146.965 93.1846 146.519 93.2299 146.075C93.2745 145.627 93.3693 145.197 93.5142 144.786C93.6643 144.374 93.8602 143.988 94.1018 143.626C94.3434 143.264 94.625 142.941 94.9465 142.657C95.2731 142.372 95.6357 142.134 96.0341 141.944C96.4326 141.754 96.8637 141.625 97.3275 141.557C98.0747 141.447 98.7719 141.463 99.4192 141.605C100.072 141.746 100.646 142.001 101.143 142.37C101.643 142.733 102.057 143.204 102.384 143.783C102.716 144.355 102.937 145.017 103.048 145.77ZM99.6452 146.475C99.6127 146.253 99.5478 146.045 99.4505 145.848C99.3576 145.646 99.2376 145.474 99.0905 145.333C98.9426 145.186 98.7687 145.077 98.5688 145.007C98.3733 144.93 98.157 144.909 97.92 144.944C97.6778 144.98 97.4678 145.055 97.29 145.171C97.1122 145.286 96.9651 145.432 96.8487 145.607C96.7367 145.776 96.6597 145.969 96.6179 146.186C96.5753 146.397 96.5706 146.616 96.6039 146.843C96.6357 147.059 96.6984 147.271 96.7921 147.479C96.8857 147.686 97.0072 147.868 97.1567 148.025C97.3061 148.182 97.4789 148.302 97.6752 148.383C97.8766 148.464 98.0984 148.487 98.3406 148.451C98.5828 148.416 98.7924 148.338 98.9694 148.217C99.1508 148.09 99.2968 147.937 99.4073 147.758C99.517 147.573 99.5925 147.37 99.6336 147.148C99.6747 146.926 99.6786 146.702 99.6452 146.475ZM112.423 142.829C112.482 143.231 112.5 143.602 112.476 143.942C112.457 144.277 112.392 144.592 112.283 144.887C112.174 145.182 112.018 145.463 111.815 145.729C111.612 145.996 111.358 146.26 111.054 146.52L113.375 149.527L109.997 150.718L108.323 147.6L107.369 147.772L107.702 151.008L104.379 151.497C104.232 150.318 104.083 149.145 103.933 147.977C103.787 146.809 103.644 145.635 103.502 144.455C103.425 143.861 103.349 143.272 103.274 142.689C103.199 142.105 103.133 141.514 103.077 140.917C103.418 140.73 103.757 140.567 104.095 140.428C104.432 140.289 104.773 140.17 105.116 140.073C105.464 139.969 105.818 139.883 106.176 139.814C106.539 139.74 106.911 139.675 107.292 139.619C107.88 139.532 108.459 139.532 109.029 139.616C109.604 139.695 110.126 139.866 110.597 140.128C111.067 140.391 111.464 140.746 111.788 141.193C112.116 141.639 112.328 142.185 112.423 142.829ZM108.996 143.585C108.965 143.369 108.904 143.175 108.816 143.003C108.733 142.831 108.623 142.69 108.485 142.578C108.352 142.461 108.193 142.379 108.007 142.333C107.825 142.28 107.619 142.271 107.387 142.305C107.284 142.32 107.185 142.343 107.089 142.373C106.993 142.397 106.9 142.43 106.811 142.469L107.11 145.362L107.295 145.335C107.517 145.303 107.737 145.241 107.955 145.151C108.179 145.061 108.372 144.943 108.535 144.798C108.703 144.652 108.83 144.478 108.916 144.276C109.007 144.073 109.034 143.843 108.996 143.585ZM121.881 138.359L119.121 144.829L119.872 149.188L115.899 149.772L115.353 145.415L111.682 140.095L115.551 139.021L117.278 142.179L118.133 138.642L121.881 138.359ZM131.092 136.611C130.63 136.979 130.242 137.399 129.927 137.872C129.612 138.345 129.367 138.839 129.19 139.354C129.013 139.87 128.899 140.389 128.85 140.913C128.8 141.431 128.809 141.921 128.877 142.385C128.945 142.849 129.066 143.331 129.239 143.832C129.413 144.333 129.638 144.821 129.913 145.297C130.187 145.767 130.51 146.212 130.883 146.631C131.259 147.044 131.683 147.4 132.153 147.7L129.552 149.235C129.14 149.048 128.763 148.809 128.42 148.517C128.077 148.225 127.766 147.902 127.488 147.548C127.209 147.189 126.96 146.807 126.743 146.402C126.531 145.996 126.344 145.589 126.184 145.181C126.029 144.767 125.898 144.36 125.792 143.96C125.69 143.554 125.613 143.17 125.56 142.809C125.477 142.248 125.469 141.654 125.535 141.029C125.6 140.398 125.74 139.772 125.954 139.151C126.172 138.524 126.468 137.922 126.841 137.346C127.215 136.77 127.671 136.256 128.21 135.803L131.092 136.611ZM136.503 135.548L137.67 146.605L134.277 146.946L133.388 139.606L132.276 140.638L130.728 138.165L132.971 135.909L136.503 135.548ZM144.205 135.032C143.64 136.952 143.141 138.894 142.708 140.858C142.28 142.816 141.901 144.788 141.572 146.774L138.303 146.022C138.542 145.034 138.781 144.049 139.021 143.066C139.26 142.078 139.508 141.097 139.765 140.122C140.026 139.141 140.304 138.166 140.599 137.196C140.893 136.227 141.218 135.266 141.573 134.313L144.205 135.032ZM153.394 140.441C153.494 141.126 153.471 141.738 153.324 142.275C153.181 142.807 152.938 143.269 152.596 143.662C152.252 144.049 151.82 144.365 151.298 144.61C150.78 144.85 150.197 145.017 149.548 145.112C149.254 145.155 148.948 145.171 148.631 145.16C148.313 145.149 147.995 145.117 147.677 145.063C147.358 145.01 147.045 144.938 146.737 144.846C146.434 144.754 146.147 144.649 145.877 144.53L145.714 141.38C145.93 141.485 146.168 141.582 146.428 141.67C146.688 141.753 146.953 141.824 147.226 141.884C147.502 141.938 147.776 141.975 148.047 141.993C148.323 142.01 148.585 142 148.832 141.964C148.977 141.943 149.122 141.911 149.268 141.868C149.419 141.82 149.552 141.756 149.666 141.676C149.781 141.596 149.869 141.493 149.929 141.369C149.995 141.243 150.015 141.09 149.988 140.91C149.972 140.797 149.904 140.698 149.787 140.616C149.67 140.533 149.534 140.469 149.38 140.423C149.225 140.372 149.067 140.34 148.908 140.326C148.747 140.308 148.615 140.306 148.512 140.321C148.44 140.332 148.353 140.35 148.251 140.375C148.154 140.395 148.055 140.42 147.955 140.451C147.854 140.481 147.757 140.519 147.663 140.565C147.574 140.604 147.507 140.648 147.462 140.697L147.183 138.479C147.272 138.477 147.356 138.472 147.434 138.466C147.512 138.46 147.595 138.45 147.682 138.438C147.863 138.411 148.056 138.367 148.263 138.305C148.469 138.238 148.656 138.15 148.824 138.041C148.992 137.927 149.124 137.786 149.22 137.619C149.322 137.452 149.356 137.249 149.321 137.012C149.296 136.842 149.229 136.713 149.121 136.623C149.013 136.529 148.885 136.463 148.737 136.427C148.595 136.39 148.442 136.373 148.28 136.376C148.117 136.379 147.971 136.389 147.842 136.408C147.425 136.47 147.023 136.602 146.637 136.807C146.257 137.01 145.932 137.273 145.664 137.597L144.601 134.879C145.018 134.423 145.514 134.05 146.087 133.76C146.665 133.465 147.26 133.272 147.874 133.182C148.435 133.1 148.983 133.103 149.518 133.193C150.056 133.277 150.545 133.45 150.984 133.712C151.421 133.969 151.79 134.312 152.09 134.742C152.39 135.172 152.585 135.69 152.674 136.298C152.7 136.474 152.701 136.655 152.676 136.843C152.651 137.031 152.607 137.217 152.544 137.399C152.481 137.582 152.402 137.757 152.305 137.924C152.208 138.086 152.1 138.231 151.982 138.359C152.213 138.425 152.41 138.53 152.573 138.674C152.737 138.819 152.875 138.985 152.987 139.174C153.098 139.363 153.187 139.569 153.251 139.791C153.314 140.008 153.362 140.225 153.394 140.441ZM158.907 138.304C158.963 138.681 158.983 139.072 158.969 139.48C158.961 139.886 158.919 140.3 158.844 140.722C158.768 141.139 158.656 141.558 158.508 141.98C158.363 142.396 158.184 142.801 157.968 143.196C157.752 143.591 157.499 143.968 157.21 144.326C156.926 144.684 156.603 145.013 156.242 145.313L153.375 144.503C153.831 144.13 154.213 143.708 154.523 143.236C154.833 142.764 155.071 142.274 155.239 141.765C155.41 141.25 155.519 140.734 155.564 140.217C155.608 139.695 155.596 139.201 155.528 138.738C155.459 138.269 155.338 137.784 155.164 137.283C154.996 136.781 154.777 136.295 154.508 135.824C154.238 135.348 153.917 134.903 153.546 134.489C153.179 134.069 152.762 133.706 152.296 133.401L154.884 131.883C155.297 132.076 155.675 132.32 156.019 132.617C156.367 132.908 156.68 133.233 156.959 133.592C157.238 133.946 157.486 134.326 157.703 134.731C157.925 135.13 158.116 135.536 158.277 135.949C158.437 136.357 158.568 136.764 158.67 137.171C158.776 137.571 158.855 137.949 158.907 138.304ZM163.224 141.35C163.257 141.577 163.245 141.794 163.186 142.003C163.127 142.212 163.034 142.402 162.906 142.573C162.783 142.739 162.63 142.879 162.447 142.996C162.264 143.107 162.061 143.179 161.839 143.211C161.613 143.245 161.395 143.235 161.187 143.181C160.979 143.122 160.789 143.032 160.618 142.909C160.452 142.781 160.311 142.625 160.194 142.442C160.083 142.259 160.011 142.054 159.978 141.827C159.945 141.605 159.955 141.388 160.008 141.175C160.066 140.961 160.157 140.771 160.28 140.606C160.407 140.434 160.563 140.291 160.746 140.174C160.928 140.058 161.133 139.983 161.36 139.95C161.582 139.917 161.797 139.93 162.005 139.989C162.214 140.048 162.402 140.141 162.568 140.27C162.738 140.392 162.882 140.547 162.999 140.735C163.117 140.923 163.191 141.128 163.224 141.35ZM162.497 136.403C162.53 136.63 162.518 136.847 162.459 137.056C162.4 137.265 162.307 137.455 162.179 137.626C162.056 137.792 161.903 137.933 161.72 138.049C161.537 138.16 161.334 138.232 161.112 138.265C160.886 138.298 160.668 138.288 160.46 138.234C160.252 138.175 160.062 138.085 159.891 137.962C159.725 137.834 159.584 137.678 159.468 137.496C159.356 137.312 159.284 137.107 159.251 136.88C159.218 136.658 159.228 136.441 159.281 136.228C159.339 136.014 159.43 135.824 159.553 135.659C159.681 135.488 159.836 135.344 160.019 135.227C160.202 135.111 160.406 135.036 160.633 135.003C160.855 134.97 161.07 134.983 161.279 135.042C161.487 135.101 161.675 135.195 161.841 135.323C162.012 135.445 162.155 135.6 162.273 135.788C162.39 135.976 162.465 136.181 162.497 136.403Z" fill="white"/>
<rect x="172.02" y="122.48" width="92" height="26" rx="6" transform="rotate(-8.35893 172.02 122.48)" fill="#FFD155"/>
<path d="M210.509 133.018C210.311 133.358 210.051 133.667 209.729 133.946C209.407 134.225 209.053 134.469 208.668 134.679C208.283 134.888 207.882 135.06 207.465 135.195C207.048 135.335 206.647 135.433 206.261 135.49C205.513 135.6 204.806 135.567 204.138 135.392C203.47 135.216 202.872 134.927 202.344 134.526C201.821 134.118 201.384 133.614 201.032 133.013C200.681 132.412 200.451 131.743 200.343 131.006C200.26 130.444 200.244 129.886 200.294 129.331C200.343 128.771 200.452 128.237 200.619 127.728C200.791 127.213 201.02 126.732 201.307 126.284C201.593 125.832 201.934 125.429 202.33 125.076C202.725 124.723 203.172 124.429 203.669 124.192C204.166 123.956 204.711 123.794 205.303 123.707C205.525 123.675 205.763 123.65 206.019 123.634C206.274 123.612 206.528 123.606 206.782 123.616C207.041 123.621 207.294 123.644 207.543 123.686C207.791 123.729 208.021 123.792 208.234 123.877L208.451 126.861C208.147 126.796 207.837 126.767 207.523 126.777C207.213 126.78 206.911 126.803 206.617 126.847C206.205 126.907 205.828 127.028 205.486 127.21C205.149 127.386 204.863 127.612 204.63 127.889C204.402 128.164 204.236 128.484 204.131 128.846C204.027 129.209 204.006 129.604 204.069 130.032C204.108 130.3 204.182 130.555 204.292 130.797C204.4 131.034 204.541 131.239 204.714 131.414C204.891 131.583 205.097 131.71 205.331 131.797C205.57 131.883 205.834 131.905 206.122 131.862C206.318 131.834 206.515 131.778 206.714 131.697C206.918 131.614 207.085 131.5 207.216 131.354L207.159 130.747L205.299 130.988L205.051 128.656C205.815 128.517 206.58 128.384 207.345 128.256C208.11 128.122 208.879 127.983 209.653 127.838L210.509 133.018ZM220.088 127.647C220.156 128.116 220.169 128.577 220.125 129.031C220.08 129.48 219.983 129.91 219.833 130.322C219.688 130.732 219.492 131.119 219.245 131.482C219.003 131.839 218.716 132.157 218.383 132.438C218.056 132.717 217.688 132.953 217.279 133.145C216.869 133.331 216.425 133.46 215.946 133.53C215.482 133.598 215.03 133.604 214.59 133.548C214.155 133.491 213.739 133.383 213.343 133.226C212.945 133.063 212.575 132.854 212.232 132.599C211.893 132.338 211.592 132.041 211.327 131.706C211.066 131.365 210.845 130.992 210.665 130.587C210.489 130.181 210.368 129.749 210.301 129.29C210.235 128.842 210.224 128.396 210.27 127.952C210.314 127.504 210.409 127.074 210.554 126.663C210.704 126.251 210.9 125.865 211.142 125.503C211.383 125.141 211.665 124.818 211.986 124.534C212.313 124.249 212.676 124.011 213.074 123.821C213.473 123.631 213.904 123.502 214.367 123.434C215.115 123.324 215.812 123.34 216.459 123.482C217.112 123.623 217.686 123.878 218.182 124.247C218.683 124.61 219.097 125.081 219.424 125.66C219.756 126.232 219.977 126.895 220.088 127.647ZM216.685 128.352C216.653 128.13 216.588 127.922 216.49 127.725C216.398 127.523 216.278 127.351 216.13 127.21C215.982 127.063 215.809 126.954 215.609 126.884C215.413 126.807 215.197 126.786 214.96 126.821C214.718 126.857 214.508 126.932 214.33 127.048C214.152 127.163 214.005 127.309 213.889 127.484C213.777 127.653 213.7 127.846 213.658 128.063C213.615 128.274 213.611 128.493 213.644 128.72C213.676 128.936 213.738 129.148 213.832 129.356C213.926 129.563 214.047 129.745 214.197 129.902C214.346 130.059 214.519 130.179 214.715 130.26C214.916 130.341 215.138 130.364 215.38 130.328C215.623 130.293 215.832 130.215 216.009 130.094C216.191 129.967 216.337 129.814 216.447 129.635C216.557 129.45 216.632 129.247 216.673 129.025C216.715 128.803 216.718 128.579 216.685 128.352ZM230.74 130.977L226.978 132.035L226.258 130.357L224.496 130.616L224.366 132.419L220.367 132.612L221.931 121.864L226.196 121.016L230.74 130.977ZM225.632 128.032L224.649 125.429L224.473 128.203L225.632 128.032ZM236.633 119.499L237.038 122.787L234.748 123.219L235.237 130.632L232 131.282L230.939 123.952L228.654 124.414L228.211 120.752L236.633 119.499Z" fill="black"/>
<g clip-path="url(#clip1_229_604)">
<path d="M365.335 166.447L364.536 165.943C364.521 165.932 364.504 165.93 364.487 165.923L352.339 158.597C351.458 158.035 350.262 158.274 349.661 159.132L349.353 159.857C348.754 160.715 349.224 161.812 350.105 162.371L357.258 166.653L327.851 172.525L321.948 142.962L328.648 147.919C329.502 148.517 330.698 148.529 331.257 147.645L331.809 147.085C332.368 146.201 332.129 145.005 331.274 144.404L320.351 136.377C320.045 135.982 319.636 135.685 319.165 135.52L319.031 135.426C318.605 135.126 318.101 135.034 317.636 135.13C317.169 135.221 316.74 135.499 316.456 135.94L315.949 136.737C315.939 136.752 315.942 136.767 315.929 136.786L308.802 148.728C308.243 149.609 308.481 150.805 309.337 151.406L310.062 151.712C310.917 152.311 312.016 151.841 312.576 150.96L316.832 143.759L322.777 173.53L292.98 179.48L297.937 172.781C298.536 171.923 298.548 170.73 297.667 170.171L297.106 169.619C296.222 169.058 295.023 169.297 294.425 170.154L286.398 181.077C286.003 181.38 285.706 181.792 285.541 182.26L285.447 182.395C285.147 182.821 285.056 183.326 285.151 183.792C285.242 184.259 285.517 184.689 285.961 184.972L286.761 185.479C286.776 185.489 286.792 185.488 286.807 185.498L298.749 192.626C299.63 193.185 300.826 192.946 301.43 192.091L301.736 191.365C302.334 190.511 301.864 189.408 300.983 188.849L293.783 184.593L323.794 178.6L329.755 208.449L323.06 203.436C322.203 202.838 321.009 202.826 320.45 203.707L319.898 204.268C319.339 205.151 319.578 206.347 320.433 206.946L331.6 215.235C331.616 215.248 331.622 215.262 331.637 215.272L332.412 215.816C332.843 216.115 333.346 216.206 333.812 216.111C334.276 216.021 334.708 215.742 334.986 215.302L335.493 214.502C335.503 214.487 335.506 214.471 335.515 214.453L342.841 202.305C343.401 201.424 343.162 200.228 342.307 199.627L341.581 199.319C340.726 198.72 339.626 199.19 339.067 200.071L334.786 207.224L328.866 177.582L358.48 171.668L353.467 178.363C352.868 179.218 352.857 180.417 353.738 180.976L354.299 181.528C355.183 182.086 356.379 181.848 356.978 180.993L365.266 169.826C365.279 169.807 365.294 169.804 365.304 169.792L365.848 169.016C366.147 168.588 366.239 168.085 366.143 167.616C366.053 167.152 365.774 166.72 365.334 166.442L365.335 166.447Z" fill="#A6A6A6"/>
</g>
<defs>
<clipPath id="clip0_229_604">
<rect width="18" height="18" fill="white" transform="translate(256.707 45.3495) rotate(-8.35893)"/>
</clipPath>
<clipPath id="clip1_229_604">
<rect width="82.6865" height="82.6865" fill="white" transform="translate(276.999 143.192) rotate(-11.2929)"/>
</clipPath>
</defs>
</svg>
