<svg width="396" height="332" viewBox="0 0 396 332" fill="none" xmlns="http://www.w3.org/2000/svg">
<rect x="64.0704" y="18.6221" width="278" height="287" rx="15.5" transform="rotate(5.59943 64.0704 18.6221)" fill="#130832" stroke="#39383B"/>
<rect x="149.679" y="165.174" width="85" height="21" rx="6" transform="rotate(5.59943 149.679 165.174)" fill="#7269E3"/>
<path d="M175.308 183.042L171.403 183.161L171.109 181.358L169.336 181.184L168.775 182.904L164.848 182.126L168.957 172.073L173.302 172.279L175.308 183.042ZM171.062 178.952L170.736 176.188L169.896 178.837L171.062 178.952ZM185.467 173.66C185.055 175.462 184.677 177.259 184.334 179.052C183.991 180.839 183.655 182.641 183.326 184.456L180.115 184.376L180.372 183.193C180.257 183.302 180.125 183.394 179.976 183.468C179.833 183.543 179.681 183.601 179.52 183.643C179.359 183.68 179.194 183.703 179.026 183.712C178.858 183.717 178.699 183.709 178.549 183.689C178.197 183.649 177.872 183.549 177.574 183.389C177.276 183.224 177.008 183.02 176.771 182.777C176.533 182.529 176.325 182.249 176.146 181.938C175.968 181.623 175.822 181.297 175.708 180.961C175.6 180.621 175.524 180.279 175.479 179.934C175.44 179.59 175.435 179.26 175.466 178.944C175.512 178.477 175.567 177.996 175.632 177.5C175.702 176.999 175.785 176.5 175.881 176.001C175.977 175.503 176.085 175.011 176.206 174.526C176.332 174.041 176.474 173.579 176.632 173.139C177.262 173.232 177.894 173.323 178.529 173.412C179.164 173.5 179.798 173.57 180.431 173.622C180.268 174.061 180.104 174.503 179.94 174.947C179.782 175.387 179.634 175.833 179.495 176.285C179.357 176.732 179.237 177.184 179.135 177.639C179.032 178.095 178.958 178.559 178.912 179.03C178.901 179.139 178.891 179.295 178.882 179.498C178.872 179.702 178.879 179.904 178.901 180.105C178.928 180.306 178.979 180.487 179.052 180.646C179.131 180.8 179.253 180.885 179.419 180.901C179.616 180.921 179.801 180.855 179.972 180.704C180.145 180.549 180.304 180.334 180.452 180.061C180.599 179.787 180.732 179.468 180.852 179.103C180.976 178.738 181.087 178.357 181.184 177.958C181.286 177.554 181.376 177.147 181.453 176.736C181.53 176.325 181.594 175.939 181.645 175.577C181.702 175.211 181.747 174.884 181.78 174.594C181.819 174.305 181.847 174.08 181.862 173.919C181.872 173.815 181.88 173.714 181.884 173.615C181.889 173.516 181.891 173.414 181.891 173.309C182.227 173.353 182.56 173.393 182.891 173.431C183.223 173.469 183.557 173.504 183.894 173.537C184.153 173.563 184.412 173.588 184.671 173.613C184.936 173.634 185.201 173.65 185.467 173.66ZM193.143 181.446C193.073 182.156 192.888 182.758 192.589 183.252C192.295 183.742 191.916 184.134 191.453 184.428C190.995 184.718 190.471 184.916 189.88 185.02C189.294 185.119 188.673 185.137 188.014 185.072C187.76 185.047 187.484 184.986 187.185 184.889C186.89 184.792 186.593 184.679 186.291 184.55C185.991 184.416 185.701 184.278 185.422 184.135C185.148 183.988 184.905 183.852 184.692 183.726L185.333 180.712C185.748 181.019 186.215 181.269 186.736 181.462C187.261 181.649 187.784 181.768 188.302 181.819C188.4 181.829 188.52 181.838 188.66 181.847C188.801 181.85 188.936 181.84 189.064 181.815C189.197 181.787 189.312 181.738 189.408 181.669C189.504 181.6 189.559 181.492 189.573 181.347C189.582 181.249 189.559 181.163 189.504 181.089C189.449 181.011 189.374 180.946 189.28 180.895C189.186 180.838 189.078 180.794 188.955 180.761C188.833 180.723 188.713 180.693 188.595 180.671C188.477 180.648 188.366 180.632 188.262 180.622C188.159 180.612 188.076 180.604 188.013 180.598C187.568 180.554 187.168 180.444 186.813 180.268C186.464 180.093 186.17 179.865 185.93 179.585C185.697 179.3 185.525 178.97 185.415 178.593C185.306 178.21 185.274 177.796 185.317 177.351C185.377 176.739 185.553 176.204 185.844 175.746C186.14 175.283 186.51 174.903 186.952 174.606C187.401 174.305 187.901 174.09 188.452 173.961C189.004 173.831 189.565 173.795 190.135 173.851C190.389 173.876 190.65 173.912 190.917 173.959C191.185 174.001 191.449 174.058 191.709 174.131C191.974 174.204 192.23 174.289 192.477 174.386C192.724 174.484 192.956 174.598 193.173 174.73L192.568 177.857C192.227 177.704 191.866 177.569 191.485 177.453C191.11 177.332 190.738 177.254 190.37 177.218C190.303 177.211 190.214 177.205 190.105 177.2C190.001 177.19 189.889 177.186 189.768 177.19C189.653 177.189 189.535 177.196 189.413 177.21C189.291 177.225 189.182 177.251 189.084 177.288C188.986 177.32 188.906 177.37 188.841 177.437C188.777 177.504 188.743 177.587 188.739 177.686C188.733 177.8 188.765 177.893 188.837 177.962C188.914 178.033 189.013 178.09 189.134 178.133C189.261 178.172 189.4 178.198 189.55 178.213C189.706 178.228 189.859 178.241 190.01 178.25C190.161 178.255 190.302 178.26 190.432 178.268C190.563 178.27 190.669 178.278 190.752 178.291C191.164 178.358 191.528 178.483 191.845 178.666C192.162 178.848 192.423 179.075 192.626 179.347C192.835 179.618 192.982 179.934 193.067 180.293C193.158 180.647 193.183 181.031 193.143 181.446ZM202.38 175.302L201.979 178.592L199.653 178.458L198.665 185.646L195.368 185.495L195.779 178.251L193.45 178.148L193.903 174.487L202.38 175.302ZM206.88 175.759L205.298 186.296L202 186.145L202.722 175.572L206.88 175.759ZM216.479 183.781C216.422 184.367 216.357 184.947 216.285 185.521C216.219 186.09 216.144 186.663 216.062 187.241L211.591 186.724C211.836 185.822 212.061 184.921 212.264 184.019C212.468 183.113 212.616 182.193 212.707 181.26C212.714 181.193 212.722 181.084 212.731 180.933C212.741 180.782 212.747 180.613 212.75 180.425C212.753 180.231 212.749 180.035 212.737 179.835C212.731 179.63 212.71 179.442 212.675 179.271C212.644 179.101 212.598 178.96 212.535 178.849C212.479 178.734 212.401 178.671 212.303 178.662C212.126 178.644 211.971 178.681 211.836 178.773C211.707 178.865 211.593 178.99 211.494 179.148C211.4 179.301 211.32 179.476 211.254 179.674C211.187 179.871 211.131 180.07 211.085 180.269C211.045 180.469 211.01 180.66 210.982 180.84C210.96 181.016 210.943 181.161 210.932 181.275C210.816 182.19 210.706 183.1 210.601 184.006C210.497 184.906 210.387 185.816 210.271 186.736L206.289 186.519C206.572 184.699 206.848 182.889 207.119 181.089C207.395 179.29 207.651 177.478 207.888 175.654L211.576 175.827L211.423 177.068C211.585 176.906 211.757 176.756 211.938 176.616C212.124 176.478 212.319 176.363 212.521 176.273C212.724 176.178 212.935 176.11 213.153 176.068C213.378 176.022 213.609 176.011 213.848 176.034C214.288 176.077 214.667 176.188 214.985 176.366C215.302 176.543 215.568 176.768 215.782 177.04C215.996 177.313 216.167 177.628 216.294 177.985C216.422 178.338 216.516 178.711 216.577 179.104C216.638 179.497 216.673 179.907 216.684 180.332C216.695 180.751 216.689 181.164 216.665 181.57C216.646 181.976 216.618 182.369 216.581 182.747C216.544 183.125 216.51 183.47 216.479 183.781Z" fill="white"/>
<rect x="145.152" y="190.855" width="89" height="21" rx="6" transform="rotate(5.59943 145.152 190.855)" fill="#7269E3"/>
<path d="M168.46 207.569C168.187 207.851 167.86 208.088 167.48 208.281C167.1 208.474 166.698 208.626 166.273 208.736C165.849 208.846 165.418 208.916 164.981 208.947C164.543 208.982 164.13 208.981 163.741 208.943C162.989 208.869 162.311 208.667 161.705 208.335C161.099 208.004 160.588 207.579 160.173 207.062C159.764 206.541 159.461 205.946 159.265 205.278C159.069 204.61 159.007 203.905 159.08 203.164C159.135 202.599 159.254 202.053 159.436 201.527C159.619 200.995 159.853 200.503 160.139 200.049C160.429 199.591 160.768 199.179 161.154 198.814C161.541 198.444 161.969 198.135 162.438 197.888C162.908 197.641 163.412 197.463 163.951 197.353C164.49 197.244 165.058 197.219 165.654 197.277C165.877 197.299 166.114 197.333 166.366 197.378C166.619 197.419 166.867 197.475 167.111 197.546C167.361 197.612 167.602 197.696 167.832 197.797C168.063 197.898 168.272 198.015 168.457 198.149L167.948 201.097C167.669 200.96 167.375 200.858 167.068 200.791C166.766 200.72 166.468 200.67 166.172 200.641C165.757 200.6 165.362 200.627 164.987 200.721C164.617 200.81 164.285 200.961 163.993 201.173C163.705 201.385 163.466 201.655 163.277 201.982C163.088 202.309 162.973 202.687 162.931 203.117C162.904 203.387 162.915 203.652 162.962 203.913C163.011 204.169 163.098 204.403 163.223 204.614C163.355 204.821 163.524 204.994 163.73 205.135C163.941 205.276 164.192 205.36 164.482 205.389C164.679 205.408 164.884 205.402 165.096 205.371C165.314 205.34 165.504 205.269 165.666 205.16L165.757 204.556L163.894 204.342L164.216 202.019C164.991 202.069 165.765 202.124 166.539 202.184C167.313 202.239 168.093 202.289 168.879 202.335L168.46 207.569ZM178.196 203.782C178.152 204.233 178.077 204.681 177.97 205.126C177.078 205.096 176.188 205.103 175.299 205.146C174.411 205.185 173.523 205.223 172.635 205.262C172.733 205.648 172.914 205.967 173.177 206.218C173.445 206.469 173.779 206.614 174.178 206.654C174.386 206.674 174.615 206.657 174.866 206.603C175.123 206.55 175.378 206.478 175.633 206.388C175.888 206.293 176.134 206.189 176.37 206.076C176.606 205.963 176.81 205.86 176.981 205.767L176.262 209.26C176.045 209.396 175.811 209.506 175.562 209.592C175.318 209.678 175.066 209.742 174.805 209.784C174.545 209.827 174.283 209.851 174.021 209.857C173.759 209.862 173.503 209.853 173.255 209.829C172.742 209.778 172.279 209.662 171.868 209.481C171.457 209.299 171.09 209.067 170.767 208.784C170.449 208.496 170.178 208.169 169.952 207.801C169.727 207.434 169.548 207.04 169.417 206.618C169.285 206.197 169.198 205.757 169.154 205.297C169.11 204.838 169.111 204.377 169.156 203.916C169.203 203.434 169.294 202.956 169.43 202.483C169.565 202.009 169.743 201.558 169.963 201.13C170.188 200.702 170.454 200.312 170.76 199.96C171.073 199.603 171.424 199.3 171.815 199.051C172.206 198.801 172.637 198.618 173.109 198.503C173.586 198.387 174.102 198.357 174.657 198.411C175.118 198.456 175.532 198.562 175.897 198.729C176.269 198.891 176.591 199.1 176.864 199.357C177.143 199.61 177.376 199.902 177.563 200.234C177.755 200.567 177.903 200.927 178.007 201.314C178.116 201.696 178.184 202.098 178.21 202.519C178.243 202.936 178.238 203.357 178.196 203.782ZM175.126 203.073C175.14 202.928 175.139 202.778 175.123 202.625C175.107 202.466 175.069 202.321 175.008 202.19C174.953 202.059 174.872 201.949 174.766 201.86C174.66 201.766 174.522 201.71 174.351 201.694C174.143 201.673 173.954 201.712 173.782 201.811C173.616 201.904 173.467 202.031 173.336 202.191C173.206 202.345 173.095 202.518 173.003 202.708C172.911 202.897 172.839 203.073 172.786 203.236L175.109 203.244L175.126 203.073ZM188.288 205.101C188.241 205.573 188.142 206.023 187.99 206.453C187.839 206.878 187.64 207.272 187.396 207.635C187.156 207.999 186.872 208.327 186.545 208.62C186.224 208.907 185.868 209.147 185.478 209.339C185.093 209.532 184.679 209.672 184.236 209.759C183.793 209.841 183.331 209.859 182.849 209.812C182.382 209.766 181.943 209.662 181.529 209.502C181.121 209.341 180.743 209.137 180.396 208.888C180.049 208.634 179.741 208.342 179.469 208.012C179.204 207.677 178.983 207.316 178.806 206.927C178.636 206.533 178.512 206.118 178.434 205.681C178.362 205.245 178.348 204.796 178.393 204.335C178.438 203.884 178.535 203.449 178.686 203.029C178.838 202.605 179.033 202.21 179.273 201.846C179.518 201.483 179.801 201.155 180.123 200.862C180.445 200.569 180.796 200.324 181.177 200.126C181.562 199.928 181.972 199.785 182.404 199.696C182.837 199.608 183.286 199.587 183.753 199.632C184.504 199.706 185.177 199.89 185.771 200.184C186.37 200.478 186.866 200.864 187.259 201.342C187.657 201.815 187.946 202.372 188.124 203.012C188.307 203.648 188.362 204.344 188.288 205.101ZM184.816 204.965C184.838 204.742 184.825 204.523 184.778 204.309C184.737 204.091 184.661 203.895 184.553 203.722C184.445 203.544 184.302 203.397 184.125 203.28C183.954 203.158 183.749 203.086 183.511 203.063C183.267 203.039 183.045 203.061 182.845 203.131C182.644 203.2 182.466 203.306 182.311 203.447C182.162 203.585 182.04 203.753 181.948 203.953C181.855 204.148 181.798 204.36 181.775 204.588C181.754 204.806 181.764 205.027 181.805 205.25C181.846 205.474 181.92 205.68 182.027 205.869C182.134 206.057 182.273 206.215 182.443 206.341C182.619 206.468 182.829 206.544 183.073 206.568C183.316 206.592 183.539 206.566 183.74 206.492C183.946 206.413 184.125 206.299 184.275 206.152C184.426 205.999 184.549 205.82 184.642 205.615C184.735 205.409 184.793 205.193 184.816 204.965ZM198.095 204.508C198.056 204.913 197.983 205.277 197.878 205.602C197.779 205.922 197.641 206.212 197.463 206.472C197.286 206.732 197.067 206.966 196.806 207.176C196.544 207.386 196.235 207.581 195.877 207.76L197.404 211.239L193.838 211.58L192.966 208.15L191.998 208.087L191.541 211.307L188.198 210.98C188.34 209.8 188.479 208.626 188.614 207.457C188.755 206.288 188.899 205.114 189.046 203.935C189.115 203.34 189.183 202.75 189.251 202.165C189.318 201.581 189.397 200.992 189.487 200.399C189.863 200.299 190.231 200.223 190.592 200.17C190.953 200.116 191.313 200.083 191.67 200.071C192.032 200.054 192.396 200.056 192.76 200.076C193.13 200.091 193.507 200.118 193.891 200.155C194.482 200.213 195.044 200.352 195.577 200.572C196.116 200.787 196.582 201.079 196.975 201.447C197.368 201.815 197.667 202.255 197.874 202.767C198.085 203.28 198.159 203.86 198.095 204.508ZM194.588 204.416C194.609 204.198 194.598 203.995 194.553 203.808C194.514 203.621 194.441 203.457 194.335 203.315C194.234 203.169 194.099 203.051 193.93 202.962C193.766 202.867 193.568 202.808 193.335 202.785C193.231 202.775 193.129 202.773 193.029 202.779C192.93 202.78 192.832 202.789 192.736 202.805L192.328 205.685L192.515 205.704C192.738 205.726 192.966 205.719 193.2 205.685C193.438 205.65 193.654 205.583 193.847 205.481C194.046 205.38 194.211 205.242 194.343 205.067C194.481 204.892 194.562 204.675 194.588 204.416ZM207.476 211.237C207.202 211.519 206.875 211.756 206.495 211.949C206.115 212.142 205.713 212.294 205.289 212.404C204.865 212.514 204.434 212.587 203.996 212.623C203.559 212.653 203.146 212.649 202.757 212.611C202.005 212.537 201.326 212.343 200.718 212.027C200.111 211.711 199.598 211.305 199.181 210.808C198.77 210.307 198.465 209.731 198.268 209.078C198.07 208.425 198.007 207.729 198.08 206.987C198.135 206.422 198.254 205.879 198.436 205.358C198.618 204.837 198.851 204.355 199.135 203.912C199.425 203.469 199.762 203.07 200.147 202.716C200.533 202.361 200.959 202.065 201.428 201.828C201.896 201.592 202.399 201.424 202.937 201.325C203.481 201.221 204.048 201.198 204.639 201.256C204.862 201.278 205.1 201.312 205.352 201.357C205.604 201.398 205.852 201.454 206.097 201.525C206.347 201.591 206.587 201.675 206.818 201.776C207.049 201.877 207.257 201.994 207.443 202.128L206.934 205.076C206.654 204.939 206.361 204.837 206.053 204.77C205.751 204.699 205.453 204.649 205.157 204.62C204.743 204.579 204.348 204.598 203.974 204.676C203.606 204.75 203.276 204.883 202.985 205.074C202.7 205.266 202.463 205.517 202.276 205.829C202.088 206.14 201.973 206.511 201.931 206.941C201.905 207.211 201.915 207.476 201.963 207.737C202.011 207.993 202.098 208.226 202.224 208.438C202.355 208.644 202.524 208.818 202.73 208.958C202.941 209.099 203.192 209.184 203.482 209.213C203.679 209.232 203.884 209.226 204.097 209.194C204.314 209.163 204.504 209.093 204.667 208.983L204.757 208.38L202.894 208.166L203.216 205.842C203.991 205.892 204.766 205.947 205.539 206.007C206.314 206.062 207.094 206.113 207.88 206.158L207.476 211.237ZM217.197 207.606C217.153 208.057 217.077 208.504 216.971 208.949C216.079 208.919 215.189 208.926 214.3 208.97C213.412 209.009 212.524 209.047 211.635 209.086C211.733 209.472 211.914 209.791 212.177 210.041C212.446 210.293 212.78 210.438 213.179 210.477C213.386 210.498 213.615 210.481 213.867 210.427C214.123 210.374 214.379 210.302 214.633 210.212C214.889 210.116 215.135 210.012 215.371 209.899C215.607 209.786 215.81 209.683 215.982 209.59L215.263 213.084C215.045 213.219 214.812 213.33 214.563 213.415C214.319 213.501 214.067 213.566 213.806 213.608C213.545 213.651 213.284 213.675 213.022 213.68C212.76 213.686 212.504 213.677 212.255 213.652C211.742 213.602 211.28 213.486 210.868 213.304C210.457 213.123 210.09 212.89 209.767 212.608C209.45 212.32 209.178 211.993 208.953 211.625C208.727 211.258 208.549 210.863 208.417 210.442C208.286 210.021 208.198 209.581 208.154 209.121C208.11 208.662 208.111 208.201 208.156 207.74C208.204 207.258 208.295 206.78 208.43 206.306C208.566 205.833 208.743 205.382 208.963 204.954C209.188 204.526 209.454 204.136 209.761 203.784C210.073 203.427 210.425 203.124 210.816 202.874C211.206 202.625 211.638 202.442 212.11 202.326C212.587 202.211 213.103 202.18 213.657 202.235C214.119 202.28 214.532 202.386 214.898 202.552C215.269 202.714 215.591 202.924 215.864 203.181C216.143 203.433 216.376 203.726 216.563 204.058C216.756 204.391 216.904 204.751 217.007 205.138C217.116 205.52 217.184 205.922 217.211 206.343C217.243 206.76 217.239 207.181 217.197 207.606ZM214.126 206.896C214.141 206.751 214.14 206.602 214.123 206.449C214.107 206.29 214.069 206.145 214.009 206.013C213.954 205.882 213.873 205.772 213.766 205.684C213.661 205.589 213.522 205.534 213.351 205.517C213.144 205.497 212.954 205.536 212.782 205.634C212.616 205.728 212.468 205.855 212.337 206.014C212.206 206.169 212.095 206.341 212.003 206.531C211.912 206.721 211.839 206.897 211.787 207.059L214.11 207.067L214.126 206.896Z" fill="white"/>
<rect x="155.553" y="218" width="63" height="21" rx="6" transform="rotate(5.59943 155.553 218)" fill="#7269E3"/>
<path d="M184.406 225.962L181.53 236.56L177.104 236.221L176.703 230.545L175.247 235.63L170.815 235.353L170.022 224.552L173.912 224.588L174.057 231.118L175.731 224.766L178.763 225.064L179.336 231.714L180.598 225.244L184.406 225.962ZM188.915 226.247L187.333 236.784L184.035 236.633L184.757 226.06L188.915 226.247ZM195.702 233.805L195.037 237.225L188.44 237.097L189.778 226.018L193.821 226.414L192.546 233.496L195.702 233.805ZM202.887 234.509L202.222 237.93L195.625 237.801L196.962 226.722L201.005 227.119L199.73 234.2L202.887 234.509Z" fill="white"/>
<rect x="151.025" y="243.68" width="67" height="21" rx="6" transform="rotate(5.59943 151.025 243.68)" fill="#7269E3"/>
<path d="M168.866 254.991C168.836 255.297 168.807 255.6 168.777 255.901C168.748 256.201 168.702 256.503 168.641 256.806C168.521 257.448 168.321 258.049 168.041 258.607C167.762 259.161 167.409 259.636 166.983 260.034C166.561 260.433 166.066 260.732 165.497 260.933C164.928 261.133 164.291 261.199 163.586 261.13C163.311 261.103 163.026 261.051 162.73 260.975C162.439 260.9 162.15 260.801 161.864 260.678C161.583 260.557 161.314 260.415 161.058 260.254C160.807 260.088 160.587 259.904 160.398 259.703L161.195 256.531C161.472 256.856 161.788 257.131 162.143 257.354C162.498 257.572 162.896 257.702 163.337 257.746C163.622 257.774 163.867 257.756 164.072 257.692C164.277 257.629 164.452 257.531 164.596 257.398C164.739 257.266 164.857 257.107 164.948 256.922C165.045 256.733 165.12 256.531 165.173 256.316C165.231 256.097 165.274 255.871 165.302 255.638C165.335 255.406 165.363 255.176 165.385 254.948C165.466 254.124 165.505 253.301 165.502 252.479C165.499 251.652 165.507 250.825 165.525 250L169.109 250.116C169.106 251.749 169.025 253.374 168.866 254.991ZM178.474 261.726L174.569 261.846L174.274 260.043L172.502 259.869L171.941 261.588L168.013 260.81L172.123 250.757L176.468 250.963L178.474 261.726ZM174.228 257.636L173.902 254.872L173.061 257.522L174.228 257.636ZM186.828 252.497L186.227 255.751C186.08 255.695 185.935 255.652 185.792 255.622C185.648 255.592 185.501 255.57 185.351 255.555C184.983 255.519 184.626 255.531 184.28 255.591C183.939 255.652 183.63 255.766 183.352 255.932C183.079 256.099 182.85 256.323 182.666 256.603C182.487 256.878 182.378 257.216 182.339 257.615C182.31 257.905 182.327 258.163 182.388 258.389C182.456 258.61 182.56 258.801 182.701 258.961C182.848 259.117 183.03 259.242 183.245 259.336C183.466 259.431 183.714 259.492 183.989 259.519C184.181 259.538 184.379 259.539 184.585 259.523C184.791 259.501 184.999 259.466 185.208 259.419C185.416 259.371 185.618 259.313 185.814 259.243C186.009 259.173 186.192 259.097 186.362 259.014L185.879 262.656C185.667 262.74 185.44 262.812 185.199 262.872C184.958 262.927 184.71 262.971 184.456 263.003C184.206 263.042 183.955 263.064 183.704 263.071C183.457 263.078 183.222 263.071 182.999 263.049C182.263 262.977 181.605 262.774 181.026 262.439C180.451 262.106 179.97 261.682 179.581 261.167C179.197 260.648 178.917 260.063 178.74 259.413C178.563 258.762 178.509 258.082 178.579 257.372C178.662 256.522 178.859 255.74 179.17 255.028C179.486 254.315 179.903 253.713 180.423 253.219C180.948 252.721 181.57 252.353 182.289 252.115C183.014 251.872 183.825 251.795 184.722 251.882C185.08 251.917 185.44 251.982 185.802 252.075C186.165 252.168 186.507 252.309 186.828 252.497ZM196.588 258.164C196.541 258.636 196.442 259.086 196.29 259.516C196.139 259.941 195.94 260.335 195.695 260.698C195.456 261.062 195.172 261.39 194.845 261.683C194.524 261.97 194.168 262.21 193.778 262.402C193.393 262.595 192.979 262.735 192.536 262.822C192.093 262.904 191.631 262.922 191.149 262.874C190.682 262.829 190.242 262.725 189.829 262.565C189.421 262.404 189.043 262.2 188.696 261.951C188.349 261.697 188.04 261.405 187.769 261.075C187.504 260.74 187.283 260.379 187.106 259.99C186.936 259.596 186.811 259.181 186.734 258.744C186.662 258.308 186.648 257.859 186.693 257.398C186.737 256.947 186.835 256.512 186.986 256.092C187.138 255.667 187.333 255.273 187.573 254.909C187.818 254.546 188.101 254.218 188.423 253.925C188.745 253.632 189.096 253.387 189.477 253.189C189.862 252.991 190.271 252.848 190.704 252.759C191.137 252.671 191.586 252.65 192.053 252.695C192.804 252.769 193.477 252.953 194.071 253.246C194.67 253.541 195.166 253.927 195.559 254.405C195.957 254.878 196.245 255.435 196.423 256.075C196.607 256.711 196.662 257.407 196.588 258.164ZM193.116 258.028C193.137 257.805 193.125 257.586 193.078 257.372C193.036 257.154 192.961 256.958 192.853 256.785C192.745 256.607 192.602 256.46 192.425 256.343C192.254 256.221 192.049 256.149 191.811 256.126C191.567 256.102 191.345 256.124 191.144 256.194C190.944 256.263 190.766 256.369 190.611 256.51C190.461 256.647 190.34 256.816 190.247 257.016C190.155 257.211 190.098 257.423 190.075 257.651C190.054 257.869 190.064 258.09 190.105 258.313C190.145 258.537 190.219 258.743 190.327 258.932C190.434 259.12 190.573 259.278 190.743 259.404C190.919 259.531 191.129 259.607 191.373 259.631C191.616 259.655 191.839 259.629 192.039 259.555C192.246 259.476 192.425 259.362 192.575 259.215C192.726 259.062 192.848 258.883 192.942 258.678C193.035 258.472 193.093 258.256 193.116 258.028ZM205.87 262.292C205.827 262.723 205.711 263.085 205.52 263.381C205.334 263.676 205.098 263.92 204.812 264.112C204.526 264.304 204.203 264.453 203.842 264.559C203.487 264.66 203.119 264.731 202.738 264.772C202.357 264.813 201.976 264.828 201.595 264.817C201.219 264.806 200.868 264.785 200.542 264.753C200.22 264.722 199.887 264.676 199.542 264.616C199.202 264.562 198.864 264.489 198.528 264.399C198.191 264.308 197.861 264.2 197.539 264.074C197.217 263.943 196.915 263.79 196.634 263.616L197.6 253.6C197.902 253.51 198.221 253.434 198.557 253.372C198.893 253.306 199.233 253.258 199.576 253.229C199.924 253.195 200.269 253.179 200.609 253.181C200.949 253.178 201.277 253.192 201.594 253.223C201.962 253.259 202.33 253.318 202.699 253.402C203.072 253.485 203.428 253.599 203.764 253.742C204.101 253.884 204.411 254.059 204.694 254.264C204.978 254.465 205.219 254.703 205.417 254.979C205.62 255.255 205.767 255.568 205.859 255.917C205.955 256.267 205.982 256.662 205.939 257.103C205.91 257.393 205.842 257.661 205.734 257.907C205.627 258.153 205.485 258.369 205.31 258.556C205.134 258.743 204.928 258.898 204.691 259.021C204.454 259.139 204.193 259.218 203.906 259.258C204.235 259.379 204.528 259.539 204.786 259.737C205.049 259.935 205.264 260.166 205.432 260.428C205.605 260.691 205.729 260.981 205.802 261.297C205.881 261.613 205.904 261.945 205.87 262.292ZM202.354 257.473C202.369 257.323 202.35 257.193 202.298 257.083C202.247 256.968 202.178 256.872 202.091 256.796C202.01 256.72 201.916 256.661 201.81 256.619C201.709 256.578 201.618 256.553 201.535 256.545C201.431 256.535 201.328 256.541 201.227 256.562C201.125 256.584 201.026 256.61 200.929 256.643L200.713 258.364C200.832 258.376 200.981 258.38 201.159 258.377C201.337 258.373 201.51 258.346 201.677 258.294C201.85 258.238 202 258.148 202.128 258.024C202.255 257.895 202.331 257.712 202.354 257.473ZM201.002 259.9C200.851 259.885 200.705 259.886 200.562 259.904L200.357 261.673C200.433 261.697 200.507 261.72 200.578 261.742C200.654 261.76 200.729 261.773 200.802 261.78C200.911 261.791 201.031 261.792 201.162 261.784C201.295 261.771 201.421 261.736 201.542 261.68C201.663 261.618 201.765 261.532 201.85 261.419C201.939 261.308 201.994 261.154 202.013 260.957C202.032 260.76 202.009 260.595 201.943 260.463C201.883 260.332 201.802 260.227 201.7 260.149C201.598 260.066 201.483 260.007 201.356 259.974C201.229 259.935 201.111 259.91 201.002 259.9Z" fill="white"/>
<rect x="148.489" y="269.556" width="67" height="21" rx="6" transform="rotate(5.59943 148.489 269.556)" fill="#7269E3"/>
<path d="M167.505 287.45L163.599 287.256L163.92 283.661L162.132 283.485L161.689 286.88L158.206 286.539L159.573 275.636L163.257 276.17L162.477 281.729L164.203 281.899L164.807 275.898L168.343 276.339L167.505 287.45ZM178.114 287.815L174.209 287.935L173.914 286.132L172.142 285.958L171.58 287.677L167.653 286.9L171.763 276.847L176.108 277.053L178.114 287.815ZM173.868 283.725L173.542 280.962L172.701 283.611L173.868 283.725ZM188.082 288.793L184.176 288.912L183.882 287.109L182.109 286.935L181.548 288.655L177.621 287.877L181.731 277.824L186.075 278.03L188.082 288.793ZM183.835 284.703L183.51 281.939L182.669 284.588L183.835 284.703ZM197.594 284.168C197.523 284.893 197.366 285.535 197.123 286.092C196.88 286.649 196.568 287.134 196.187 287.546C195.812 287.954 195.379 288.291 194.887 288.557C194.395 288.823 193.865 289.03 193.295 289.178C192.727 289.321 192.127 289.409 191.496 289.441C190.87 289.474 190.23 289.459 189.577 289.395C189.333 289.371 189.095 289.342 188.863 289.309C188.631 289.27 188.395 289.226 188.154 289.177L189.364 279.075C189.952 278.949 190.55 278.879 191.159 278.866C191.773 278.848 192.378 278.868 192.974 278.926C193.715 278.999 194.387 279.169 194.988 279.438C195.59 279.706 196.097 280.064 196.508 280.513C196.92 280.956 197.221 281.486 197.412 282.101C197.608 282.711 197.669 283.4 197.594 284.168ZM192.014 286.635C192.33 286.619 192.621 286.553 192.889 286.438C193.162 286.318 193.403 286.164 193.61 285.975C193.817 285.781 193.983 285.556 194.107 285.301C194.237 285.042 194.317 284.762 194.347 284.461C194.376 284.166 194.371 283.888 194.334 283.628C194.297 283.363 194.218 283.13 194.096 282.93C193.975 282.724 193.806 282.556 193.589 282.425C193.372 282.288 193.098 282.199 192.767 282.156L192.014 286.635ZM202.611 279.839L201.028 290.376L197.73 290.225L198.453 279.652L202.611 279.839Z" fill="white"/>
<path d="M89.0919 62.0402L88.1455 66.0882C87.9627 66.018 87.7783 65.9639 87.5923 65.9261C87.4063 65.8882 87.2193 65.8601 87.0314 65.8417C86.552 65.7946 86.0888 65.8147 85.642 65.9017C85.1958 65.9822 84.7916 66.1356 84.4292 66.3617C84.0734 66.5885 83.7759 66.8864 83.537 67.2555C83.3045 67.6252 83.1625 68.0724 83.111 68.5973C83.078 68.9342 83.1013 69.2309 83.1808 69.4872C83.2668 69.7442 83.3991 69.9633 83.5776 70.1443C83.7561 70.3254 83.9743 70.4678 84.2324 70.5716C84.4904 70.6754 84.7781 70.7428 85.0956 70.774C85.3354 70.7975 85.5874 70.796 85.8516 70.7696C86.1159 70.7432 86.3785 70.7002 86.6394 70.6408C86.9004 70.5813 87.1561 70.5082 87.4067 70.4216C87.6572 70.335 87.8886 70.2432 88.1009 70.1462L87.2643 74.6761C86.9989 74.7809 86.7121 74.8705 86.4039 74.9449C86.1028 75.0136 85.7929 75.0715 85.4743 75.1187C85.1563 75.1595 84.8399 75.1841 84.5251 75.1925C84.2102 75.2009 83.9103 75.1911 83.6252 75.1631C82.8023 75.0825 82.0494 74.8549 81.3666 74.4805C80.6837 74.1061 80.1059 73.6275 79.6332 73.0448C79.1604 72.462 78.807 71.7961 78.573 71.047C78.3461 70.2921 78.2736 69.4968 78.3556 68.6609C78.4642 67.5529 78.7252 66.5253 79.1386 65.5781C79.5527 64.6243 80.1037 63.8083 80.7916 63.13C81.4796 62.4517 82.2981 61.9432 83.2471 61.6045C84.2026 61.2665 85.2733 61.1556 86.459 61.2718C86.9061 61.3156 87.3594 61.3961 87.8189 61.5131C88.2849 61.6307 88.7092 61.8064 89.0919 62.0402ZM100.952 69.4829C100.894 70.0725 100.77 70.636 100.58 71.1734C100.39 71.7043 100.143 72.1968 99.8363 72.6509C99.5366 73.1056 99.1824 73.5157 98.7737 73.8812C98.3721 74.2409 97.9273 74.5407 97.4394 74.7807C96.9579 75.0213 96.4403 75.1963 95.8866 75.3055C95.3336 75.4083 94.7558 75.4302 94.1532 75.3711C93.57 75.3139 93.0201 75.1848 92.5034 74.9836C91.9932 74.7832 91.5211 74.5275 91.0871 74.2168C90.6538 73.8996 90.2676 73.5346 89.9287 73.122C89.5968 72.7035 89.3206 72.2512 89.1001 71.7651C88.8866 71.2732 88.7314 70.7543 88.6345 70.2084C88.544 69.6631 88.5271 69.1021 88.5836 68.5254C88.6389 67.9617 88.7609 67.4177 88.9497 66.8932C89.1391 66.3623 89.3837 65.8695 89.6834 65.4148C89.9896 64.9607 90.3438 64.5506 90.746 64.1845C91.1482 63.8183 91.5872 63.5114 92.0629 63.2636C92.545 63.0165 93.0564 62.8377 93.5971 62.7272C94.1378 62.6167 94.6998 62.59 95.2829 62.6472C96.2224 62.7393 97.0634 62.9689 97.8058 63.3361C98.5548 63.7039 99.1747 64.1866 99.6656 64.7842C100.164 65.376 100.524 66.072 100.746 66.8723C100.976 67.6667 101.044 68.5369 100.952 69.4829ZM96.6115 69.3125C96.6389 69.0339 96.6231 68.7609 96.5643 68.4934C96.5126 68.2202 96.4188 67.9755 96.283 67.7594C96.1478 67.5368 95.9696 67.3525 95.7485 67.2065C95.5344 67.0547 95.2783 66.9642 94.9803 66.935C94.6757 66.9051 94.3982 66.9335 94.1477 67.0201C93.8971 67.1068 93.6749 67.2387 93.4809 67.416C93.294 67.5873 93.1425 67.7982 93.0264 68.0485C92.9109 68.2923 92.8392 68.5567 92.8112 68.8418C92.7845 69.1139 92.7967 69.3899 92.8478 69.6696C92.8989 69.9494 92.9914 70.207 93.1253 70.4426C93.2592 70.6781 93.4328 70.875 93.6463 71.0333C93.8662 71.1923 94.1284 71.2867 94.4329 71.3165C94.7375 71.3464 95.0153 71.3147 95.2665 71.2216C95.5248 71.1227 95.748 70.981 95.9362 70.7967C96.125 70.6058 96.2777 70.382 96.3945 70.1253C96.5112 69.8685 96.5836 69.5976 96.6115 69.3125ZM112.67 70.357C112.581 71.2641 112.385 72.0659 112.081 72.7622C111.777 73.4586 111.388 74.0647 110.912 74.5806C110.443 75.0907 109.901 75.5119 109.287 75.8441C108.672 76.1763 108.009 76.4351 107.297 76.6205C106.586 76.7993 105.836 76.909 105.047 76.9494C104.265 76.9904 103.465 76.9709 102.649 76.8909C102.344 76.861 102.047 76.8253 101.757 76.7838C101.467 76.7358 101.172 76.6806 100.87 76.6184L102.383 63.9909C103.118 63.834 103.866 63.747 104.626 63.73C105.394 63.7071 106.15 63.7322 106.895 63.8053C107.822 63.8961 108.661 64.1092 109.413 64.4446C110.165 64.78 110.798 65.2281 111.313 65.7887C111.827 66.3429 112.204 67.0045 112.443 67.7737C112.688 68.537 112.764 69.3981 112.67 70.357ZM105.695 73.4412C106.09 73.421 106.454 73.339 106.789 73.1952C107.131 73.0455 107.431 72.8525 107.69 72.6162C107.949 72.3734 108.156 72.0929 108.312 71.7745C108.475 71.4503 108.574 71.1003 108.611 70.7244C108.647 70.3551 108.642 70.0079 108.595 69.6828C108.549 69.3512 108.45 69.0602 108.298 68.8098C108.147 68.5529 107.935 68.3425 107.664 68.1784C107.392 68.0079 107.05 67.8959 106.637 67.8423L105.695 73.4412ZM124.142 71.3444C124.087 71.9081 123.993 72.468 123.86 73.0241C122.745 72.9867 121.632 72.9954 120.521 73.05C119.411 73.0981 118.301 73.1463 117.19 73.1944C117.313 73.6775 117.539 74.0757 117.868 74.3893C118.204 74.7035 118.621 74.885 119.12 74.9339C119.379 74.9594 119.665 74.9384 119.98 74.8711C120.3 74.8044 120.62 74.7147 120.938 74.602C121.257 74.4828 121.564 74.3527 121.859 74.2115C122.155 74.0704 122.409 73.9416 122.623 73.8252L121.724 78.1919C121.453 78.3615 121.161 78.4998 120.85 78.6066C120.545 78.7141 120.229 78.7944 119.904 78.8475C119.578 78.9006 119.251 78.9307 118.923 78.9378C118.596 78.9449 118.276 78.9332 117.965 78.9027C117.324 78.8399 116.746 78.6949 116.232 78.4679C115.718 78.2408 115.259 77.9505 114.855 77.597C114.459 77.2375 114.119 76.8281 113.837 76.3687C113.555 75.9093 113.332 75.4165 113.168 74.8901C113.004 74.3638 112.894 73.8133 112.839 73.2388C112.784 72.6643 112.785 72.0887 112.842 71.5121C112.901 70.9095 113.015 70.3123 113.184 69.7205C113.353 69.1288 113.575 68.5651 113.85 68.0294C114.132 67.4944 114.464 67.007 114.847 66.567C115.238 66.1212 115.677 65.7423 116.166 65.4304C116.654 65.1186 117.193 64.8901 117.783 64.7452C118.38 64.6008 119.024 64.5627 119.718 64.6306C120.294 64.6872 120.811 64.8196 121.268 65.028C121.733 65.2305 122.135 65.4924 122.477 65.8137C122.825 66.1292 123.116 66.4946 123.35 66.91C123.591 67.3261 123.776 67.776 123.905 68.2597C124.041 68.7375 124.126 69.2397 124.16 69.7663C124.2 70.2871 124.194 70.8131 124.142 71.3444ZM120.304 70.4579C120.322 70.2764 120.321 70.0899 120.3 69.8982C120.28 69.7 120.233 69.5187 120.157 69.3543C120.088 69.1905 119.987 69.053 119.854 68.9419C119.722 68.8242 119.549 68.7549 119.335 68.734C119.076 68.7086 118.839 68.7573 118.624 68.8801C118.416 68.9971 118.231 69.1556 118.067 69.3554C117.904 69.5488 117.765 69.7641 117.651 70.0014C117.536 70.2388 117.445 70.4589 117.38 70.6618L120.283 70.6717L120.304 70.4579ZM128.224 77.6517C128.196 77.9368 128.115 78.197 127.981 78.4324C127.846 78.6678 127.676 78.8703 127.47 79.0398C127.271 79.2034 127.043 79.3282 126.785 79.4142C126.529 79.4938 126.262 79.5199 125.983 79.4926C125.698 79.4646 125.437 79.3867 125.201 79.2589C124.966 79.1246 124.763 78.9576 124.593 78.7577C124.43 78.552 124.305 78.3207 124.219 78.0637C124.14 77.8073 124.114 77.5366 124.142 77.2515C124.169 76.9729 124.247 76.7123 124.376 76.4698C124.511 76.2279 124.678 76.0251 124.877 75.8615C125.083 75.692 125.315 75.5642 125.572 75.4782C125.829 75.3922 126.1 75.3632 126.385 75.3911C126.664 75.4185 126.921 75.4993 127.156 75.6335C127.392 75.7678 127.591 75.9378 127.754 76.1435C127.924 76.3433 128.052 76.575 128.137 76.8385C128.222 77.102 128.251 77.3731 128.224 77.6517ZM128.834 71.4315C128.806 71.7166 128.725 71.9768 128.591 72.2123C128.456 72.4477 128.286 72.6501 128.08 72.8196C127.88 72.9832 127.652 73.1081 127.395 73.1941C127.139 73.2736 126.871 73.2997 126.593 73.2724C126.308 73.2444 126.047 73.1666 125.811 73.0387C125.576 72.9045 125.373 72.7374 125.203 72.5376C125.04 72.3319 124.915 72.1005 124.829 71.8435C124.75 71.5871 124.724 71.3164 124.752 71.0313C124.779 70.7527 124.857 70.4921 124.986 70.2496C125.12 70.0077 125.288 69.8049 125.487 69.6413C125.693 69.4718 125.925 69.3441 126.182 69.258C126.439 69.172 126.71 69.143 126.995 69.171C127.274 69.1983 127.531 69.2791 127.766 69.4134C128.001 69.5477 128.201 69.7176 128.364 69.9233C128.534 70.1232 128.661 70.3548 128.747 70.6183C128.832 70.8818 128.861 71.1529 128.834 71.4315Z" fill="white"/>
<path d="M149.55 73.7373C149.489 74.3528 149.38 74.9701 149.221 75.5891C149.063 76.2015 148.851 76.7924 148.586 77.3617C148.328 77.9252 148.015 78.4473 147.647 78.928C147.28 79.4088 146.857 79.8187 146.379 80.1578C145.901 80.4904 145.363 80.7385 144.765 80.9023C144.173 81.0667 143.521 81.114 142.808 81.0441C142.497 81.0136 142.171 80.9686 141.831 80.909C141.497 80.8435 141.165 80.7619 140.834 80.6641C140.511 80.5604 140.196 80.4347 139.89 80.287C139.584 80.1327 139.311 79.9489 139.071 79.7356L139.936 76.1114C140.126 76.2477 140.342 76.3801 140.584 76.5085C140.827 76.6305 141.078 76.7434 141.336 76.8472C141.594 76.951 141.854 77.0386 142.115 77.11C142.377 77.1749 142.627 77.2191 142.867 77.2426C143.243 77.2795 143.572 77.2594 143.854 77.1824C144.144 77.0996 144.392 76.9669 144.6 76.7845C144.814 76.6027 144.993 76.3782 145.137 76.111C145.281 75.8374 145.397 75.5281 145.483 75.1833C145.074 75.3526 144.65 75.4713 144.212 75.5395C143.773 75.6077 143.334 75.6202 142.893 75.577C142.349 75.5237 141.839 75.3886 141.363 75.1719C140.887 74.9551 140.48 74.6732 140.141 74.3259C139.802 73.9723 139.545 73.5578 139.37 73.0827C139.194 72.6075 139.134 72.0816 139.191 71.505C139.263 70.7663 139.462 70.1022 139.788 69.5127C140.121 68.9239 140.542 68.432 141.052 68.0372C141.561 67.6423 142.146 67.3529 142.805 67.1689C143.47 66.9856 144.173 66.9302 144.911 67.0026C145.812 67.0909 146.573 67.3356 147.194 67.7366C147.823 68.1319 148.323 68.6356 148.695 69.2477C149.073 69.8539 149.33 70.543 149.463 71.315C149.603 72.0875 149.632 72.895 149.55 73.7373ZM145.665 71.9238C145.684 71.7295 145.656 71.5501 145.58 71.3857C145.511 71.2219 145.414 71.0783 145.289 70.9548C145.164 70.8313 145.017 70.7318 144.847 70.6564C144.678 70.5809 144.506 70.5346 144.331 70.5174C144.156 70.5003 143.982 70.5126 143.807 70.5544C143.634 70.5897 143.474 70.6558 143.327 70.7526C143.181 70.8429 143.058 70.9617 142.958 71.109C142.866 71.2504 142.81 71.415 142.792 71.6029C142.774 71.7908 142.799 71.9666 142.868 72.1304C142.943 72.2948 143.044 72.4387 143.169 72.5622C143.294 72.6857 143.441 72.7884 143.61 72.8704C143.779 72.9459 143.951 72.9922 144.126 73.0093C144.301 73.0265 144.476 73.0141 144.65 72.9723C144.824 72.9305 144.984 72.8645 145.13 72.7742C145.277 72.6773 145.397 72.5582 145.489 72.4168C145.588 72.2761 145.647 72.1117 145.665 71.9238ZM162.28 72.1005C162.233 72.58 162.158 73.1058 162.057 73.678C161.955 74.2503 161.822 74.8391 161.658 75.4444C161.494 76.0498 161.296 76.6617 161.066 77.2802C160.842 77.8928 160.578 78.4786 160.275 79.0376C159.972 79.5966 159.63 80.1159 159.249 80.5953C158.876 81.069 158.456 81.4759 157.991 81.8163C157.533 82.1508 157.031 82.3992 156.485 82.5616C155.939 82.7305 155.345 82.7834 154.704 82.7205C153.952 82.6469 153.31 82.4596 152.777 82.1587C152.249 81.865 151.808 81.4947 151.453 81.0477C151.098 80.5943 150.821 80.0831 150.622 79.514C150.423 78.9385 150.283 78.3392 150.2 77.7162C150.117 77.0867 150.078 76.4516 150.082 75.8109C150.093 75.1643 150.128 74.5463 150.186 73.9566C150.275 73.0495 150.408 72.1501 150.587 71.2584C150.767 70.3602 150.985 69.469 151.242 68.5849L155.773 69.2058C155.499 70.2059 155.246 71.2147 155.016 72.2322C154.792 73.2439 154.63 74.268 154.528 75.3047C154.517 75.4149 154.504 75.5804 154.489 75.8014C154.481 76.0164 154.477 76.2613 154.476 76.536C154.476 76.8042 154.484 77.0831 154.502 77.3726C154.526 77.6563 154.569 77.9189 154.631 78.1604C154.692 78.4019 154.774 78.6029 154.876 78.7634C154.984 78.9245 155.119 79.013 155.281 79.0288C155.469 79.0473 155.646 78.9763 155.813 78.816C155.979 78.6492 156.132 78.4221 156.272 78.1349C156.418 77.8483 156.552 77.5147 156.674 77.1342C156.796 76.7537 156.907 76.3557 157.007 75.9403C157.107 75.5248 157.193 75.1081 157.267 74.6902C157.347 74.2728 157.415 73.8837 157.47 73.5227C157.531 73.1624 157.579 72.8433 157.613 72.5653C157.646 72.2873 157.67 72.0803 157.683 71.9442C157.733 71.4389 157.772 70.9358 157.802 70.4349C157.838 69.9283 157.865 69.4239 157.882 68.9218L162.43 69.3678C162.42 70.2695 162.37 71.1804 162.28 72.1005ZM172.148 79.034C172.064 79.8958 171.851 80.6305 171.51 81.2381C171.177 81.84 170.743 82.3273 170.209 82.7002C169.676 83.0666 169.056 83.3198 168.349 83.4598C167.649 83.5939 166.891 83.621 166.074 83.541C165.705 83.5048 165.329 83.432 164.948 83.3226C164.566 83.2132 164.19 83.0782 163.82 82.9176C163.449 82.757 163.091 82.5747 162.745 82.3707C162.405 82.1673 162.089 81.9531 161.797 81.7283L162.55 77.8574C162.779 78.05 163.039 78.239 163.328 78.4244C163.618 78.6032 163.919 78.7701 164.231 78.925C164.55 79.074 164.871 79.2004 165.194 79.304C165.524 79.4083 165.845 79.4757 166.156 79.5062C166.337 79.524 166.523 79.5292 166.714 79.5217C166.911 79.5083 167.092 79.4704 167.255 79.4079C167.418 79.3454 167.555 79.2476 167.666 79.1146C167.784 78.9822 167.854 78.8027 167.876 78.5759C167.89 78.4333 167.838 78.2942 167.721 78.1583C167.603 78.0225 167.458 77.9036 167.285 77.8016C167.112 77.6931 166.931 77.6066 166.741 77.5422C166.552 77.4713 166.392 77.4295 166.263 77.4168C166.172 77.4079 166.061 77.4036 165.93 77.4039C165.806 77.3983 165.679 77.3989 165.547 77.4056C165.416 77.4123 165.287 77.4291 165.16 77.4559C165.04 77.4769 164.945 77.5101 164.875 77.5556L165.206 74.7816C165.315 74.8054 165.418 74.8253 165.514 74.8413C165.611 74.8573 165.714 74.8707 165.824 74.8815C166.051 74.9037 166.299 74.9084 166.569 74.8956C166.839 74.8763 167.092 74.8259 167.329 74.7445C167.567 74.6566 167.769 74.526 167.937 74.3527C168.111 74.18 168.212 73.9447 168.241 73.6466C168.262 73.4328 168.221 73.2554 168.117 73.1144C168.014 72.9669 167.878 72.8489 167.71 72.7605C167.549 72.6727 167.369 72.606 167.17 72.5604C166.972 72.5148 166.792 72.484 166.63 72.4681C166.105 72.4167 165.578 72.4566 165.048 72.5878C164.525 72.7197 164.052 72.9415 163.629 73.2533L163.159 69.6355C163.803 69.208 164.516 68.9051 165.299 68.7267C166.089 68.5425 166.87 68.4882 167.641 68.5638C168.347 68.633 169.011 68.8027 169.632 69.073C170.26 69.3373 170.801 69.6945 171.254 70.1445C171.707 70.588 172.051 71.1157 172.286 71.7274C172.52 72.3391 172.6 73.0273 172.525 73.7918C172.503 74.0121 172.449 74.2325 172.362 74.4529C172.275 74.6733 172.166 74.8851 172.035 75.0881C171.904 75.2911 171.755 75.4793 171.587 75.6526C171.42 75.8194 171.246 75.9625 171.064 76.0821C171.324 76.2319 171.532 76.419 171.686 76.6435C171.841 76.868 171.958 77.1117 172.036 77.3745C172.115 77.6374 172.16 77.9133 172.171 78.2022C172.183 78.4846 172.175 78.7619 172.148 79.034ZM182.855 80.3192L181.998 80.2548L181.412 84.4363L176.981 84.3943L177.654 79.927L172.453 79.5348L174.728 71.1425L178.401 71.5027L176.749 77.346L178.036 77.4329L179.128 70.102L183.346 70.5156L182.347 77.6985L183.109 77.734L182.855 80.3192ZM197.828 72.4261L195.836 85.5365L190.698 85.5037L188.668 78.1809L187.535 85.331L183.162 84.9022L184.863 71.1549L189.745 71.3981L192.422 78.7255L193.225 72.1318L197.828 72.4261ZM209.027 79.804C208.938 80.7111 208.741 81.5193 208.436 82.2286C208.131 82.9314 207.741 83.5473 207.264 84.0761C206.794 84.5992 206.25 85.0366 205.634 85.3882C205.017 85.7399 204.352 86.0149 203.639 86.2132C202.927 86.405 202.176 86.5276 201.386 86.581C200.602 86.6285 199.803 86.6122 198.986 86.5322C198.682 86.5023 198.384 86.4666 198.094 86.4251C197.804 86.3771 197.509 86.3219 197.208 86.2597L198.758 73.2434C199.493 73.0865 200.241 72.9996 201.002 72.9825C201.769 72.9597 202.526 72.9848 203.271 73.0578C204.197 73.1487 205.036 73.3715 205.786 73.7263C206.536 74.0812 207.167 74.5486 207.68 75.1287C208.192 75.7088 208.566 76.3932 208.803 77.1817C209.046 77.9709 209.121 78.845 209.027 79.804ZM204.981 80.0353C205.022 79.6861 205.016 79.3453 204.963 79.0131C204.917 78.6815 204.812 78.3834 204.649 78.1188C204.492 77.8483 204.279 77.6246 204.008 77.4476C203.738 77.2641 203.406 77.1465 203.012 77.0948L202.033 83.0825C202.427 83.0623 202.793 82.9706 203.129 82.8073C203.466 82.6376 203.762 82.4213 204.017 82.1584C204.279 81.8897 204.489 81.5865 204.646 81.2487C204.811 80.905 204.918 80.5459 204.968 80.1714L204.981 80.0353Z" fill="#00C299"/>
<mask id="path-14-inside-1_229_552" fill="white">
<path d="M228.029 83.4293C228.783 75.7342 235.633 70.1077 243.328 70.8621L315.98 77.9849C323.675 78.7394 329.301 85.5891 328.547 93.2842V93.2842C327.793 100.979 320.943 106.606 313.248 105.851L240.596 98.7285C232.901 97.9741 227.275 91.1244 228.029 83.4293V83.4293Z"/>
</mask>
<path d="M228.029 83.4293C228.783 75.7342 235.633 70.1077 243.328 70.8621L315.98 77.9849C323.675 78.7394 329.301 85.5891 328.547 93.2842V93.2842C327.793 100.979 320.943 106.606 313.248 105.851L240.596 98.7285C232.901 97.9741 227.275 91.1244 228.029 83.4293V83.4293Z" fill="#50A2FF"/>
<path d="M229.395 69.4961L329.913 79.351L229.395 69.4961ZM328.547 93.2842C327.739 101.529 320.4 107.557 312.155 106.749L241.494 99.8213C233.249 99.013 227.221 91.674 228.029 83.4293C227.328 90.5747 232.999 96.9788 240.694 97.7333L313.345 104.856C321.041 105.611 327.847 100.43 328.547 93.2842ZM226.663 97.3625L229.395 69.4961L226.663 97.3625ZM329.913 79.351L327.181 107.217L329.913 79.351Z" fill="white" mask="url(#path-14-inside-1_229_552)"/>
<path d="M253.353 85.9121C253.283 86.6222 253.099 87.2243 252.799 87.7182C252.505 88.2075 252.126 88.5995 251.663 88.8943C251.206 89.1843 250.681 89.3815 250.09 89.4858C249.505 89.5854 248.883 89.6029 248.225 89.5384C247.971 89.5135 247.694 89.4524 247.395 89.355C247.101 89.2581 246.803 89.1452 246.502 89.0162C246.201 88.8821 245.911 88.7437 245.632 88.6012C245.358 88.4541 245.115 88.3177 244.903 88.1922L245.543 85.1779C245.958 85.4854 246.426 85.7353 246.946 85.9276C247.472 86.1153 247.994 86.2345 248.512 86.2853C248.611 86.295 248.73 86.304 248.871 86.3126C249.011 86.3159 249.146 86.3056 249.274 86.2815C249.408 86.2527 249.522 86.2038 249.618 86.1347C249.714 86.0656 249.769 85.9584 249.783 85.8133C249.793 85.7148 249.77 85.6288 249.714 85.5553C249.659 85.4767 249.584 85.4118 249.49 85.3607C249.396 85.3043 249.288 85.2597 249.165 85.2268C249.044 85.1887 248.923 85.1586 248.805 85.1365C248.687 85.1145 248.576 85.0984 248.472 85.0882C248.369 85.0781 248.286 85.0699 248.224 85.0638C247.778 85.0201 247.378 84.9102 247.024 84.7342C246.674 84.5587 246.38 84.331 246.141 84.0511C245.907 83.7665 245.735 83.4356 245.626 83.0586C245.517 82.6763 245.484 82.2623 245.528 81.8165C245.588 81.2049 245.763 80.67 246.054 80.2118C246.35 79.7489 246.72 79.3691 247.163 79.0723C247.611 78.7709 248.111 78.5556 248.662 78.4265C249.214 78.2975 249.775 78.2609 250.345 78.3168C250.599 78.3417 250.86 78.3777 251.127 78.4249C251.396 78.4668 251.659 78.5241 251.919 78.5967C252.184 78.6698 252.44 78.755 252.687 78.8525C252.934 78.95 253.166 79.0643 253.383 79.1955L252.778 82.3233C252.438 82.1695 252.077 82.0347 251.696 81.9188C251.32 81.7983 250.948 81.72 250.58 81.6839C250.513 81.6773 250.425 81.6712 250.315 81.6657C250.212 81.6556 250.099 81.6524 249.979 81.6563C249.864 81.6555 249.745 81.6622 249.623 81.6764C249.502 81.6906 249.392 81.7165 249.294 81.754C249.197 81.7863 249.116 81.836 249.052 81.903C248.988 81.9699 248.953 82.0529 248.949 82.1519C248.943 82.2665 248.976 82.3587 249.047 82.4285C249.124 82.4988 249.223 82.5556 249.345 82.5989C249.472 82.6375 249.61 82.6642 249.761 82.679C249.916 82.6942 250.069 82.7066 250.22 82.7162C250.371 82.7205 250.512 82.7265 250.642 82.734C250.773 82.7363 250.879 82.7442 250.962 82.7575C251.374 82.8241 251.738 82.9488 252.055 83.1316C252.372 83.3145 252.633 83.5415 252.836 83.8126C253.045 84.0843 253.192 84.3996 253.278 84.7586C253.368 85.1129 253.394 85.4974 253.353 85.9121ZM262.697 90.8474L258.791 90.6529L259.112 87.0577L257.324 86.8823L256.881 90.2772L253.398 89.9357L254.765 79.0327L258.449 79.5666L257.669 85.1263L259.395 85.2956L259.999 79.2946L263.535 79.7355L262.697 90.8474ZM273.306 91.2124L269.401 91.3319L269.106 89.529L267.334 89.3552L266.773 91.0743L262.845 90.2967L266.955 80.2435L271.3 80.4496L273.306 91.2124ZM269.06 87.1223L268.734 84.3586L267.893 87.008L269.06 87.1223ZM283.251 85.2952C283.211 85.6995 283.139 86.0639 283.034 86.3886C282.935 86.7085 282.796 86.9985 282.619 87.2585C282.442 87.5185 282.222 87.7534 281.961 87.9633C281.7 88.1732 281.39 88.3678 281.032 88.5473L282.56 92.0254L278.994 92.3666L278.121 88.937L277.154 88.8736L276.697 92.0943L273.354 91.7666C273.495 90.5873 273.634 89.4129 273.77 88.2435C273.91 87.0745 274.054 85.9007 274.201 84.7219C274.27 84.1268 274.338 83.5369 274.406 82.9522C274.474 82.3675 274.553 81.7786 274.642 81.1856C275.018 81.0864 275.387 81.01 275.748 80.9564C276.109 80.9029 276.468 80.87 276.825 80.8579C277.188 80.8412 277.551 80.8428 277.916 80.8628C278.286 80.8782 278.663 80.9046 279.046 80.9422C279.637 81.0002 280.199 81.139 280.732 81.3588C281.271 81.5738 281.737 81.8655 282.13 82.2337C282.523 82.6019 282.823 83.0421 283.029 83.5543C283.241 84.0669 283.315 84.6472 283.251 85.2952ZM279.743 85.2025C279.765 84.9848 279.753 84.7821 279.709 84.5946C279.67 84.4076 279.597 84.2435 279.49 84.1022C279.389 83.9562 279.254 83.8383 279.085 83.7485C278.922 83.654 278.723 83.5953 278.49 83.5724C278.386 83.5622 278.285 83.5601 278.185 83.566C278.085 83.5667 277.987 83.5755 277.892 83.5922L277.484 86.4724L277.67 86.4907C277.893 86.5126 278.121 86.5062 278.355 86.4715C278.594 86.4373 278.81 86.3696 279.003 86.2681C279.201 86.1672 279.367 86.029 279.499 85.8536C279.636 85.6787 279.718 85.4616 279.743 85.2025ZM291.523 82.3538C291.444 82.838 291.368 83.3173 291.295 83.7917C291.223 84.266 291.142 84.7448 291.053 85.2279L287.739 85.0758L287.565 86.0478L289.882 86.275L289.475 88.6685L287.135 88.5176L286.946 89.6452L288.874 89.8342L290.242 89.9684C290.155 90.5355 290.066 91.0998 289.974 91.6612C289.888 92.218 289.805 92.7776 289.724 93.3401L283.006 92.8385L284.354 81.651L291.523 82.3538Z" fill="white"/>
<g clip-path="url(#clip0_229_552)">
<path d="M304.157 90.0693C304.008 89.7264 303.75 89.4426 303.422 89.2625C303.095 89.0823 302.717 89.0161 302.347 89.0742C301.978 89.1322 301.638 89.3112 301.382 89.5832C301.125 89.8551 300.966 90.2045 300.93 90.5765C300.893 90.9486 300.982 91.3222 301.18 91.6388C301.379 91.9554 301.678 92.1969 302.029 92.3256C302.38 92.4543 302.763 92.4627 303.12 92.3497C303.476 92.2366 303.785 92.0084 303.997 91.701M304.157 90.0693C304.268 90.3243 304.318 90.6095 304.289 90.9058C304.259 91.2022 304.155 91.473 303.997 91.701M304.157 90.0693L311.686 86.8028M303.997 91.701L310.749 96.3675M311.686 86.8028C311.772 87.0103 311.898 87.1986 312.057 87.3568C312.216 87.515 312.405 87.6399 312.612 87.7243C312.82 87.8086 313.043 87.8507 313.267 87.848C313.491 87.8453 313.713 87.798 313.919 87.7087C314.124 87.6194 314.31 87.49 314.465 87.3281C314.621 87.1661 314.742 86.9748 314.822 86.7654C314.903 86.556 314.941 86.3327 314.934 86.1085C314.927 85.8843 314.875 85.6638 314.782 85.4597C314.598 85.0576 314.264 84.7436 313.852 84.5852C313.439 84.4268 312.981 84.4366 312.575 84.6126C312.17 84.7885 311.85 85.1165 311.683 85.5261C311.517 85.9356 311.518 86.3941 311.686 86.8028ZM310.749 96.3675C310.623 96.5498 310.534 96.7552 310.487 96.9719C310.44 97.1886 310.437 97.4124 310.477 97.6305C310.517 97.8486 310.599 98.0566 310.719 98.2429C310.839 98.4291 310.995 98.5898 311.177 98.7159C311.36 98.8419 311.565 98.9308 311.782 98.9775C311.999 99.0242 312.222 99.0277 312.441 98.9879C312.659 98.9481 312.867 98.8657 313.053 98.7454C313.239 98.6252 313.4 98.4695 313.526 98.2871C313.78 97.9188 313.878 97.4645 313.798 97.0241C313.717 96.5837 313.465 96.1933 313.097 95.9387C312.729 95.6841 312.275 95.5863 311.834 95.6667C311.394 95.7471 311.003 95.9992 310.749 96.3675Z" stroke="white" stroke-width="1.5" stroke-linecap="round" stroke-linejoin="round"/>
</g>
<mask id="path-18-inside-2_229_552" fill="white">
<path d="M27.1927 200.097C20.1148 201.379 13.3382 196.68 12.0567 189.602L2.32038 135.823C1.03895 128.745 5.73796 121.968 12.8159 120.687V120.687C19.8939 119.405 26.6705 124.104 27.9519 131.182L37.6882 184.961C38.9697 192.039 34.2707 198.816 27.1927 200.097V200.097Z"/>
</mask>
<path d="M27.1927 200.097C20.1148 201.379 13.3382 196.68 12.0567 189.602L2.32038 135.823C1.03895 128.745 5.73796 121.968 12.8159 120.687V120.687C19.8939 119.405 26.6705 124.104 27.9519 131.182L37.6882 184.961C38.9697 192.039 34.2707 198.816 27.1927 200.097V200.097Z" fill="#F986D1"/>
<path d="M14.377 202.417L0.000152647 123.007L14.377 202.417ZM12.8159 120.687C20.9808 119.209 28.798 124.629 30.2762 132.794L39.3 182.637C40.7782 190.802 35.3576 198.619 27.1927 200.097C33.1838 199.012 37.0017 192.395 35.7202 185.317L25.9839 131.539C24.7025 124.461 18.807 119.602 12.8159 120.687ZM40.0085 197.777L14.377 202.417L40.0085 197.777ZM0.000152647 123.007L25.6317 118.367L0.000152647 123.007Z" fill="white" mask="url(#path-18-inside-2_229_552)"/>
<path d="M19.3947 171.37C19.7944 171.298 20.1648 171.268 20.5058 171.28C20.8407 171.289 21.1575 171.342 21.456 171.442C21.7545 171.541 22.0405 171.688 22.3138 171.882C22.5871 172.076 22.8589 172.321 23.1294 172.616L26.0576 170.196L27.3604 173.533L24.2999 175.31L24.5032 176.257L27.7263 175.817L28.3248 179.122C27.1516 179.308 25.9841 179.496 24.8221 179.685C23.6592 179.869 22.4907 180.051 21.3166 180.232C20.7254 180.329 20.1393 180.424 19.5583 180.519C18.9773 180.613 18.3894 180.699 17.7944 180.775C17.5962 180.44 17.422 180.106 17.2718 179.774C17.1216 179.441 16.9919 179.104 16.8826 178.764C16.7674 178.42 16.6696 178.07 16.5892 177.714C16.5029 177.354 16.4254 176.984 16.3567 176.605C16.2509 176.02 16.2309 175.442 16.2965 174.869C16.3561 174.292 16.5093 173.764 16.7561 173.285C17.0029 172.806 17.3444 172.398 17.7807 172.06C18.2161 171.716 18.754 171.486 19.3947 171.37ZM20.2642 174.77C20.0489 174.809 19.8572 174.875 19.689 174.969C19.5198 175.058 19.3818 175.173 19.275 175.314C19.1622 175.451 19.0857 175.613 19.0455 175.8C18.9992 175.983 18.997 176.19 19.0387 176.421C19.0573 176.523 19.0831 176.622 19.1161 176.716C19.1439 176.812 19.179 176.904 19.2214 176.991L22.1034 176.596L22.07 176.412C22.0301 176.192 21.9615 175.974 21.8643 175.758C21.7662 175.538 21.642 175.349 21.4916 175.191C21.3403 175.028 21.1622 174.906 20.9573 174.827C20.7515 174.742 20.5204 174.723 20.2642 174.77ZM24.2919 159.916L25.4742 163.64L23.8203 164.416L24.1376 166.169L25.9446 166.239L26.27 170.229L15.4763 169.023L14.4872 164.788L24.2919 159.916ZM21.518 165.119L18.9485 166.187L21.7268 166.272L21.518 165.119ZM19.3067 150.799C19.8858 150.694 20.4612 150.598 21.0328 150.51C21.5985 150.419 22.1706 150.334 22.7492 150.255L23.474 154.697C22.5391 154.708 21.6104 154.738 20.6879 154.789C19.7604 154.84 18.8354 154.95 17.9129 155.117C17.8463 155.129 17.7391 155.151 17.5914 155.183C17.4437 155.215 17.279 155.255 17.0973 155.304C16.9104 155.354 16.7224 155.411 16.5332 155.477C16.338 155.539 16.163 155.611 16.0083 155.692C15.8526 155.767 15.7301 155.85 15.6406 155.941C15.545 156.027 15.506 156.119 15.5237 156.216C15.5552 156.39 15.6334 156.53 15.7581 156.634C15.882 156.733 16.0333 156.809 16.2122 156.861C16.385 156.91 16.5755 156.939 16.7837 156.949C16.9919 156.959 17.1983 156.958 17.4028 156.948C17.6064 156.932 17.7988 156.913 17.98 156.891C18.1552 156.864 18.2992 156.841 18.4119 156.821C19.3237 156.682 20.2294 156.539 21.1291 156.392C22.0236 156.246 22.9293 156.103 23.8462 155.964L24.7251 159.854C22.8975 160.079 21.0809 160.307 19.2756 160.539C17.4694 160.765 15.6566 161.014 13.8372 161.285L12.9958 157.69L14.2314 157.498C14.0311 157.386 13.8393 157.262 13.6559 157.126C13.4715 156.985 13.3083 156.829 13.1664 156.659C13.0193 156.489 12.896 156.305 12.7964 156.106C12.6908 155.903 12.6167 155.684 12.574 155.448C12.4951 155.012 12.4978 154.618 12.5819 154.264C12.666 153.91 12.8097 153.592 13.013 153.312C13.2164 153.032 13.4728 152.782 13.7823 152.562C14.0866 152.342 14.4196 152.15 14.7812 151.984C15.1429 151.818 15.5266 151.671 15.9324 151.545C16.3332 151.42 16.732 151.313 17.129 151.225C17.525 151.132 17.9101 151.052 18.2842 150.984C18.6584 150.917 18.9992 150.855 19.3067 150.799ZM11.4215 141.715L16.0804 144.381L20.8043 140.302L22.0805 143.755L19.3363 146.665L22.3721 146.243L23.0741 149.418L12.021 151.165L11.5723 147.547L14.7897 147.25L11.1727 145.603L11.4215 141.715Z" fill="white"/>
<path d="M135.417 105.106L133.583 116.449L130.022 116.257L130.643 110.242L128.566 114.937L127.197 114.803L126.394 110.344L125.885 115.381L122.282 115.137L123.491 104.407L127.503 104.644L128.584 109.946L131.234 104.695L135.417 105.106ZM145.905 106.95L141.043 112.502L140.363 117.35L136.678 116.988L137.245 112.161L135.587 106.174L139.601 106.065L139.894 109.485L142.198 106.32L145.905 106.95ZM156.123 107.858L155.521 111.111C155.375 111.055 155.23 111.012 155.086 110.982C154.943 110.953 154.796 110.93 154.645 110.916C154.277 110.88 153.92 110.892 153.574 110.952C153.233 111.013 152.924 111.126 152.646 111.293C152.373 111.46 152.144 111.683 151.96 111.963C151.781 112.239 151.672 112.576 151.633 112.975C151.605 113.266 151.621 113.524 151.683 113.749C151.75 113.971 151.854 114.161 151.996 114.322C152.143 114.478 152.324 114.603 152.54 114.697C152.761 114.792 153.008 114.853 153.283 114.88C153.475 114.899 153.674 114.9 153.879 114.883C154.086 114.862 154.293 114.827 154.502 114.779C154.711 114.732 154.913 114.673 155.108 114.603C155.303 114.534 155.486 114.457 155.656 114.375L155.174 118.017C154.961 118.101 154.734 118.173 154.493 118.233C154.252 118.287 154.005 118.331 153.75 118.364C153.5 118.402 153.25 118.425 152.998 118.431C152.751 118.439 152.516 118.431 152.293 118.409C151.557 118.337 150.9 118.134 150.32 117.8C149.746 117.466 149.264 117.042 148.875 116.528C148.491 116.009 148.211 115.424 148.034 114.773C147.857 114.123 147.804 113.442 147.873 112.732C147.956 111.882 148.153 111.101 148.464 110.388C148.78 109.676 149.197 109.073 149.717 108.58C150.242 108.082 150.864 107.714 151.583 107.475C152.309 107.233 153.119 107.155 154.016 107.243C154.374 107.278 154.734 107.342 155.096 107.435C155.459 107.528 155.801 107.669 156.123 107.858ZM165.882 113.524C165.836 113.996 165.736 114.447 165.584 114.877C165.433 115.302 165.235 115.696 164.99 116.059C164.75 116.423 164.466 116.751 164.14 117.043C163.818 117.331 163.462 117.571 163.072 117.763C162.687 117.955 162.273 118.095 161.83 118.183C161.387 118.265 160.925 118.282 160.443 118.235C159.977 118.189 159.537 118.086 159.123 117.925C158.715 117.765 158.337 117.56 157.99 117.312C157.644 117.058 157.335 116.766 157.063 116.436C156.798 116.101 156.577 115.739 156.401 115.35C156.23 114.957 156.106 114.542 156.028 114.105C155.956 113.669 155.942 113.22 155.987 112.759C156.032 112.308 156.129 111.872 156.28 111.453C156.432 111.028 156.628 110.634 156.867 110.27C157.112 109.907 157.396 109.579 157.717 109.286C158.039 108.993 158.39 108.747 158.771 108.549C159.157 108.351 159.566 108.208 159.998 108.12C160.431 108.032 160.88 108.01 161.347 108.056C162.098 108.13 162.771 108.313 163.365 108.607C163.964 108.901 164.46 109.287 164.853 109.766C165.251 110.239 165.54 110.796 165.718 111.436C165.901 112.072 165.956 112.768 165.882 113.524ZM162.41 113.388C162.432 113.165 162.419 112.947 162.372 112.733C162.331 112.514 162.256 112.319 162.147 112.146C162.039 111.968 161.896 111.82 161.719 111.703C161.548 111.582 161.343 111.51 161.105 111.486C160.861 111.462 160.639 111.485 160.439 111.554C160.238 111.624 160.06 111.729 159.905 111.871C159.756 112.008 159.635 112.177 159.542 112.377C159.449 112.572 159.392 112.784 159.37 113.012C159.348 113.229 159.358 113.45 159.399 113.674C159.44 113.898 159.514 114.104 159.621 114.292C159.728 114.481 159.867 114.638 160.038 114.765C160.213 114.892 160.423 114.968 160.667 114.991C160.911 115.015 161.133 114.99 161.334 114.915C161.54 114.836 161.719 114.723 161.869 114.576C162.021 114.423 162.143 114.244 162.236 114.038C162.33 113.833 162.387 113.616 162.41 113.388ZM176.036 114.52C175.99 114.992 175.891 115.443 175.739 115.872C175.587 116.297 175.389 116.691 175.144 117.054C174.904 117.418 174.621 117.746 174.294 118.039C173.973 118.326 173.617 118.566 173.226 118.758C172.841 118.951 172.427 119.091 171.984 119.178C171.542 119.26 171.08 119.278 170.598 119.231C170.131 119.185 169.691 119.082 169.278 118.921C168.87 118.76 168.492 118.556 168.145 118.307C167.798 118.053 167.489 117.761 167.218 117.431C166.952 117.097 166.731 116.735 166.555 116.346C166.384 115.952 166.26 115.537 166.183 115.1C166.11 114.664 166.097 114.215 166.142 113.754C166.186 113.303 166.284 112.868 166.435 112.448C166.586 112.024 166.782 111.629 167.022 111.266C167.267 110.902 167.55 110.574 167.872 110.281C168.194 109.988 168.545 109.743 168.925 109.545C169.311 109.347 169.72 109.204 170.153 109.115C170.585 109.027 171.035 109.006 171.501 109.051C172.253 109.125 172.926 109.309 173.52 109.603C174.119 109.897 174.615 110.283 175.007 110.761C175.406 111.235 175.694 111.791 175.872 112.432C176.056 113.067 176.11 113.763 176.036 114.52ZM172.564 114.384C172.586 114.161 172.573 113.942 172.526 113.728C172.485 113.51 172.41 113.314 172.301 113.141C172.193 112.963 172.051 112.816 171.874 112.699C171.702 112.578 171.498 112.505 171.259 112.482C171.016 112.458 170.794 112.481 170.593 112.55C170.393 112.619 170.215 112.725 170.06 112.867C169.91 113.004 169.789 113.172 169.696 113.373C169.604 113.568 169.546 113.779 169.524 114.007C169.503 114.225 169.512 114.446 169.553 114.669C169.594 114.893 169.668 115.099 169.775 115.288C169.882 115.476 170.021 115.634 170.192 115.76C170.368 115.888 170.578 115.963 170.821 115.987C171.065 116.011 171.287 115.986 171.488 115.911C171.695 115.832 171.873 115.719 172.024 115.571C172.175 115.418 172.297 115.239 172.391 115.034C172.484 114.829 172.542 114.612 172.564 114.384ZM183.219 117.077L182.554 120.497L175.957 120.368L177.295 109.29L181.338 109.686L180.063 116.767L183.219 117.077ZM194.753 111.049C194.674 111.533 194.599 112.012 194.526 112.486C194.453 112.961 194.372 113.439 194.283 113.923L190.97 113.77L190.874 114.75L193.735 115.031L193.343 117.426L190.614 117.237L190.178 121.841L186.237 121.533L187.585 110.346L194.753 111.049ZM203.898 115.697C203.858 116.102 203.786 116.466 203.681 116.791C203.582 117.111 203.443 117.401 203.266 117.661C203.089 117.921 202.869 118.156 202.608 118.365C202.347 118.575 202.037 118.77 201.68 118.95L203.207 122.428L199.641 122.769L198.768 119.339L197.801 119.276L197.344 122.497L194.001 122.169C194.142 120.989 194.281 119.815 194.417 118.646C194.557 117.477 194.701 116.303 194.848 115.124C194.917 114.529 194.985 113.939 195.053 113.354C195.121 112.77 195.2 112.181 195.289 111.588C195.665 111.489 196.034 111.412 196.395 111.359C196.756 111.305 197.115 111.272 197.472 111.26C197.835 111.243 198.199 111.245 198.563 111.265C198.933 111.28 199.31 111.307 199.693 111.344C200.284 111.402 200.846 111.541 201.379 111.761C201.918 111.976 202.384 112.268 202.777 112.636C203.17 113.004 203.47 113.444 203.676 113.956C203.888 114.469 203.962 115.049 203.898 115.697ZM200.39 115.605C200.412 115.387 200.4 115.184 200.356 114.997C200.317 114.81 200.244 114.646 200.137 114.504C200.036 114.358 199.901 114.241 199.732 114.151C199.569 114.056 199.37 113.997 199.137 113.975C199.034 113.964 198.932 113.962 198.832 113.968C198.732 113.969 198.634 113.978 198.539 113.994L198.131 116.875L198.317 116.893C198.54 116.915 198.768 116.908 199.002 116.874C199.241 116.84 199.457 116.772 199.65 116.67C199.848 116.569 200.014 116.431 200.146 116.256C200.283 116.081 200.365 115.864 200.39 115.605ZM208.839 112.696L207.257 123.233L203.959 123.082L204.682 112.509L208.839 112.696ZM217.697 118.275C217.653 118.726 217.577 119.174 217.471 119.619C216.579 119.589 215.689 119.596 214.8 119.639C213.912 119.678 213.023 119.716 212.135 119.755C212.233 120.141 212.414 120.46 212.677 120.711C212.946 120.962 213.28 121.107 213.679 121.146C213.886 121.167 214.115 121.15 214.367 121.096C214.623 121.043 214.879 120.971 215.133 120.881C215.389 120.786 215.634 120.681 215.871 120.568C216.107 120.456 216.31 120.353 216.482 120.259L215.762 123.753C215.545 123.888 215.312 123.999 215.063 124.085C214.819 124.171 214.566 124.235 214.306 124.277C214.045 124.32 213.784 124.344 213.522 124.35C213.259 124.355 213.004 124.346 212.755 124.321C212.242 124.271 211.78 124.155 211.368 123.974C210.957 123.792 210.59 123.56 210.267 123.277C209.95 122.989 209.678 122.662 209.453 122.294C209.227 121.927 209.049 121.532 208.917 121.111C208.786 120.69 208.698 120.25 208.654 119.79C208.61 119.331 208.611 118.87 208.656 118.409C208.703 117.927 208.795 117.449 208.93 116.976C209.066 116.502 209.243 116.051 209.463 115.623C209.688 115.195 209.954 114.805 210.261 114.453C210.573 114.096 210.925 113.793 211.315 113.544C211.706 113.294 212.138 113.111 212.61 112.995C213.087 112.88 213.602 112.849 214.157 112.904C214.618 112.949 215.032 113.055 215.398 113.222C215.769 113.384 216.091 113.593 216.364 113.85C216.643 114.103 216.876 114.395 217.063 114.727C217.256 115.06 217.404 115.42 217.507 115.807C217.616 116.189 217.684 116.591 217.711 117.012C217.743 117.429 217.738 117.85 217.697 118.275ZM214.626 117.566C214.641 117.42 214.639 117.271 214.623 117.118C214.607 116.959 214.569 116.814 214.509 116.683C214.454 116.552 214.373 116.442 214.266 116.353C214.16 116.259 214.022 116.203 213.851 116.186C213.644 116.166 213.454 116.205 213.282 116.303C213.116 116.397 212.967 116.524 212.837 116.684C212.706 116.838 212.595 117.011 212.503 117.2C212.412 117.39 212.339 117.566 212.287 117.729L214.61 117.737L214.626 117.566ZM227.629 121.619C227.571 122.205 227.507 122.785 227.435 123.359C227.368 123.928 227.294 124.501 227.211 125.079L222.74 124.563C222.986 123.66 223.21 122.759 223.414 121.857C223.618 120.951 223.765 120.032 223.857 119.099C223.863 119.031 223.871 118.922 223.881 118.771C223.891 118.62 223.897 118.451 223.899 118.263C223.903 118.069 223.898 117.873 223.887 117.673C223.881 117.468 223.86 117.28 223.824 117.109C223.794 116.939 223.747 116.798 223.685 116.687C223.628 116.572 223.551 116.509 223.452 116.5C223.276 116.482 223.12 116.52 222.986 116.611C222.857 116.703 222.742 116.828 222.643 116.986C222.55 117.139 222.47 117.314 222.403 117.512C222.337 117.709 222.281 117.908 222.235 118.107C222.194 118.308 222.16 118.498 222.132 118.678C222.109 118.854 222.092 118.999 222.081 119.113C221.965 120.028 221.855 120.938 221.751 121.844C221.647 122.744 221.537 123.654 221.42 124.574L217.438 124.357C217.721 122.537 217.998 120.727 218.269 118.927C218.544 117.128 218.801 115.316 219.037 113.492L222.725 113.665L222.572 114.906C222.735 114.744 222.906 114.594 223.087 114.454C223.274 114.316 223.468 114.201 223.671 114.111C223.874 114.016 224.084 113.948 224.303 113.906C224.527 113.86 224.759 113.849 224.997 113.872C225.438 113.916 225.817 114.026 226.134 114.204C226.452 114.381 226.718 114.606 226.932 114.878C227.146 115.151 227.316 115.466 227.443 115.823C227.571 116.176 227.665 116.549 227.726 116.942C227.787 117.336 227.823 117.745 227.834 118.17C227.845 118.589 227.838 119.002 227.814 119.408C227.795 119.814 227.767 120.207 227.73 120.585C227.693 120.963 227.659 121.308 227.629 121.619ZM237.396 120.316C237.325 121.042 237.168 121.683 236.925 122.24C236.682 122.797 236.37 123.282 235.99 123.695C235.615 124.103 235.181 124.44 234.689 124.706C234.198 124.971 233.667 125.178 233.098 125.327C232.529 125.47 231.929 125.558 231.298 125.59C230.672 125.623 230.032 125.607 229.379 125.543C229.136 125.519 228.898 125.491 228.665 125.457C228.434 125.419 228.197 125.375 227.956 125.325L229.166 115.223C229.754 115.098 230.353 115.028 230.961 115.014C231.575 114.996 232.18 115.016 232.776 115.075C233.518 115.147 234.189 115.318 234.791 115.586C235.392 115.854 235.899 116.213 236.31 116.661C236.722 117.105 237.023 117.634 237.214 118.249C237.411 118.86 237.472 119.549 237.396 120.316ZM231.816 122.783C232.132 122.767 232.424 122.702 232.691 122.587C232.965 122.467 233.205 122.312 233.412 122.123C233.619 121.929 233.785 121.705 233.91 121.45C234.04 121.191 234.12 120.911 234.149 120.61C234.178 120.315 234.174 120.037 234.136 119.777C234.1 119.511 234.02 119.279 233.899 119.078C233.778 118.873 233.608 118.704 233.391 118.573C233.174 118.437 232.9 118.347 232.57 118.304L231.816 122.783ZM245.641 123.338C245.571 124.048 245.387 124.65 245.087 125.144C244.793 125.633 244.414 126.025 243.951 126.32C243.494 126.61 242.969 126.807 242.378 126.912C241.793 127.011 241.171 127.029 240.512 126.964C240.258 126.939 239.982 126.878 239.683 126.781C239.389 126.684 239.091 126.571 238.79 126.442C238.489 126.308 238.199 126.17 237.92 126.027C237.646 125.88 237.403 125.744 237.19 125.618L237.831 122.604C238.246 122.911 238.714 123.161 239.234 123.354C239.76 123.541 240.282 123.66 240.8 123.711C240.898 123.721 241.018 123.73 241.158 123.739C241.299 123.742 241.434 123.732 241.562 123.707C241.695 123.679 241.81 123.63 241.906 123.561C242.002 123.491 242.057 123.384 242.071 123.239C242.081 123.141 242.058 123.055 242.002 122.981C241.947 122.903 241.872 122.838 241.778 122.787C241.684 122.73 241.576 122.686 241.453 122.653C241.331 122.615 241.211 122.585 241.093 122.562C240.975 122.54 240.864 122.524 240.76 122.514C240.657 122.504 240.574 122.496 240.512 122.49C240.066 122.446 239.666 122.336 239.311 122.16C238.962 121.985 238.668 121.757 238.429 121.477C238.195 121.192 238.023 120.862 237.914 120.485C237.805 120.102 237.772 119.688 237.816 119.242C237.876 118.631 238.051 118.096 238.342 117.638C238.638 117.175 239.008 116.795 239.45 116.498C239.899 116.197 240.399 115.982 240.95 115.852C241.502 115.723 242.063 115.687 242.633 115.743C242.887 115.768 243.148 115.804 243.415 115.851C243.683 115.893 243.947 115.95 244.207 116.023C244.472 116.096 244.728 116.181 244.975 116.278C245.222 116.376 245.454 116.49 245.671 116.621L245.066 119.749C244.726 119.595 244.365 119.461 243.983 119.345C243.608 119.224 243.236 119.146 242.868 119.11C242.801 119.103 242.712 119.097 242.603 119.092C242.499 119.082 242.387 119.078 242.266 119.082C242.151 119.081 242.033 119.088 241.911 119.102C241.79 119.117 241.68 119.142 241.582 119.18C241.484 119.212 241.404 119.262 241.34 119.329C241.275 119.396 241.241 119.479 241.237 119.578C241.231 119.692 241.263 119.785 241.335 119.854C241.412 119.925 241.511 119.982 241.632 120.025C241.759 120.063 241.898 120.09 242.048 120.105C242.204 120.12 242.357 120.133 242.508 120.142C242.659 120.146 242.8 120.152 242.93 120.16C243.061 120.162 243.167 120.17 243.25 120.183C243.662 120.25 244.026 120.375 244.343 120.558C244.66 120.74 244.921 120.967 245.124 121.239C245.333 121.51 245.48 121.826 245.565 122.185C245.656 122.539 245.681 122.923 245.641 123.338Z" fill="white"/>
<path d="M79.8039 132.215L79.0468 135.453C78.9005 135.397 78.753 135.354 78.6042 135.324C78.4554 135.293 78.3058 135.271 78.1555 135.256C77.7719 135.218 77.4014 135.234 77.044 135.304C76.687 135.369 76.3636 135.491 76.0737 135.672C75.7891 135.854 75.5511 136.092 75.3599 136.387C75.1739 136.683 75.0604 137.041 75.0192 137.461C74.9928 137.73 75.0114 137.967 75.075 138.173C75.1438 138.378 75.2496 138.553 75.3924 138.698C75.5352 138.843 75.7098 138.957 75.9163 139.04C76.1227 139.123 76.3529 139.177 76.6069 139.202C76.7987 139.221 77.0003 139.22 77.2117 139.198C77.4231 139.177 77.6332 139.143 77.8419 139.095C78.0507 139.048 78.2553 138.989 78.4557 138.92C78.6561 138.851 78.8413 138.777 79.0111 138.7L78.3418 142.324C78.1295 142.407 77.9 142.479 77.6535 142.539C77.4126 142.594 77.1647 142.64 76.9098 142.678C76.6554 142.71 76.4023 142.73 76.1504 142.737C75.8986 142.743 75.6586 142.736 75.4305 142.713C74.7722 142.649 74.1699 142.467 73.6236 142.167C73.0773 141.868 72.6151 141.485 72.2369 141.019C71.8587 140.552 71.576 140.02 71.3888 139.42C71.2073 138.816 71.1493 138.18 71.2148 137.511C71.3017 136.625 71.5106 135.803 71.8413 135.045C72.1725 134.282 72.6133 133.629 73.1637 133.087C73.714 132.544 74.3688 132.137 75.1281 131.866C75.8925 131.596 76.749 131.507 77.6976 131.6C78.0552 131.635 78.4179 131.7 78.7855 131.793C79.1583 131.887 79.4977 132.028 79.8039 132.215ZM89.092 143.487L85.1867 143.607L84.8925 141.804L83.1198 141.63L82.5587 143.349L78.6315 142.572L82.7414 132.519L87.0857 132.725L89.092 143.487ZM84.8459 139.397L84.5202 136.634L83.6796 139.283L84.8459 139.397ZM97.5344 133.922L97.1335 137.211L94.8073 137.077L93.82 144.265L90.5221 144.114L90.934 136.87L88.6048 136.767L89.0579 133.106L97.5344 133.922ZM106.04 139.481C105.996 139.932 105.921 140.38 105.814 140.825C104.922 140.795 104.032 140.802 103.143 140.846C102.255 140.884 101.367 140.923 100.479 140.961C100.577 141.348 100.758 141.667 101.021 141.917C101.289 142.169 101.623 142.314 102.022 142.353C102.23 142.373 102.459 142.357 102.71 142.303C102.967 142.249 103.222 142.178 103.477 142.087C103.732 141.992 103.978 141.888 104.214 141.775C104.45 141.662 104.654 141.559 104.825 141.466L104.106 144.959C103.889 145.095 103.655 145.206 103.406 145.291C103.162 145.377 102.91 145.441 102.649 145.484C102.389 145.526 102.127 145.55 101.865 145.556C101.603 145.562 101.347 145.552 101.099 145.528C100.585 145.478 100.123 145.362 99.7119 145.18C99.3006 144.999 98.9335 144.766 98.6106 144.483C98.2934 144.196 98.022 143.868 97.7963 143.501C97.5707 143.133 97.3922 142.739 97.2608 142.318C97.1293 141.897 97.0417 141.457 96.9978 140.997C96.9539 140.537 96.9545 140.077 96.9998 139.616C97.047 139.134 97.1383 138.656 97.2737 138.182C97.4091 137.709 97.5868 137.258 97.8067 136.829C98.0318 136.401 98.2977 136.011 98.6044 135.66C98.9167 135.303 99.2682 135 99.659 134.75C100.05 134.501 100.481 134.318 100.953 134.202C101.43 134.087 101.946 134.056 102.501 134.11C102.962 134.156 103.375 134.262 103.741 134.428C104.113 134.59 104.435 134.8 104.708 135.057C104.987 135.309 105.22 135.602 105.407 135.934C105.599 136.267 105.747 136.627 105.851 137.014C105.96 137.396 106.028 137.798 106.054 138.219C106.087 138.636 106.082 139.056 106.04 139.481ZM102.97 138.772C102.984 138.627 102.983 138.478 102.967 138.324C102.951 138.166 102.913 138.021 102.852 137.889C102.797 137.758 102.716 137.648 102.61 137.559C102.504 137.465 102.366 137.41 102.195 137.393C101.987 137.373 101.798 137.412 101.626 137.51C101.46 137.604 101.311 137.73 101.18 137.89C101.05 138.045 100.939 138.217 100.847 138.407C100.755 138.597 100.683 138.773 100.63 138.935L102.953 138.943L102.97 138.772ZM115.602 145.003C115.328 145.285 115.001 145.523 114.621 145.716C114.241 145.909 113.839 146.06 113.415 146.17C112.991 146.281 112.56 146.353 112.122 146.389C111.685 146.419 111.272 146.416 110.883 146.377C110.131 146.304 109.452 146.109 108.844 145.793C108.237 145.477 107.724 145.071 107.307 144.575C106.896 144.074 106.591 143.497 106.394 142.844C106.196 142.192 106.133 141.495 106.206 140.754C106.261 140.189 106.38 139.646 106.562 139.124C106.744 138.603 106.977 138.121 107.261 137.678C107.551 137.235 107.888 136.837 108.273 136.482C108.659 136.127 109.086 135.831 109.554 135.595C110.022 135.358 110.525 135.19 111.063 135.091C111.607 134.988 112.174 134.965 112.765 135.023C112.988 135.044 113.226 135.078 113.478 135.124C113.73 135.164 113.978 135.22 114.223 135.291C114.473 135.357 114.713 135.441 114.944 135.542C115.175 135.643 115.383 135.761 115.569 135.894L115.06 138.843C114.78 138.705 114.487 138.603 114.179 138.537C113.877 138.465 113.579 138.415 113.283 138.386C112.869 138.345 112.474 138.364 112.1 138.443C111.732 138.517 111.402 138.649 111.111 138.84C110.826 139.032 110.589 139.284 110.402 139.595C110.214 139.906 110.099 140.277 110.057 140.707C110.031 140.977 110.041 141.242 110.089 141.503C110.137 141.759 110.224 141.993 110.35 142.204C110.481 142.411 110.65 142.584 110.856 142.725C111.067 142.866 111.318 142.95 111.608 142.979C111.805 142.998 112.01 142.992 112.223 142.961C112.44 142.93 112.63 142.859 112.793 142.75L112.883 142.146L111.02 141.932L111.342 139.609C112.117 139.659 112.892 139.714 113.665 139.774C114.44 139.829 115.22 139.879 116.006 139.925L115.602 145.003ZM126.224 141.79C126.178 142.262 126.079 142.712 125.926 143.142C125.775 143.567 125.577 143.961 125.332 144.324C125.092 144.688 124.809 145.016 124.482 145.309C124.16 145.596 123.805 145.836 123.414 146.028C123.029 146.221 122.615 146.361 122.172 146.448C121.73 146.53 121.267 146.548 120.785 146.5C120.319 146.455 119.879 146.351 119.465 146.191C119.057 146.03 118.68 145.826 118.332 145.577C117.986 145.323 117.677 145.031 117.406 144.701C117.14 144.366 116.919 144.005 116.743 143.616C116.572 143.222 116.448 142.807 116.37 142.37C116.298 141.934 116.284 141.485 116.33 141.024C116.374 140.573 116.471 140.138 116.622 139.718C116.774 139.293 116.97 138.899 117.209 138.535C117.454 138.172 117.738 137.844 118.059 137.551C118.381 137.258 118.732 137.013 119.113 136.815C119.499 136.617 119.908 136.474 120.34 136.385C120.773 136.297 121.222 136.276 121.689 136.321C122.441 136.395 123.113 136.579 123.707 136.872C124.306 137.167 124.802 137.553 125.195 138.031C125.594 138.504 125.882 139.061 126.06 139.701C126.243 140.337 126.298 141.033 126.224 141.79ZM122.752 141.654C122.774 141.431 122.761 141.212 122.714 140.998C122.673 140.78 122.598 140.584 122.489 140.411C122.381 140.233 122.238 140.086 122.061 139.969C121.89 139.847 121.685 139.775 121.447 139.752C121.203 139.728 120.981 139.75 120.781 139.82C120.58 139.889 120.403 139.995 120.247 140.136C120.098 140.274 119.977 140.442 119.884 140.642C119.791 140.837 119.734 141.049 119.712 141.277C119.69 141.495 119.7 141.716 119.741 141.939C119.782 142.163 119.856 142.369 119.963 142.558C120.07 142.746 120.209 142.904 120.38 143.03C120.556 143.157 120.765 143.233 121.009 143.257C121.253 143.281 121.475 143.255 121.676 143.181C121.882 143.102 122.061 142.988 122.212 142.841C122.363 142.688 122.485 142.509 122.578 142.304C122.672 142.098 122.73 141.882 122.752 141.654ZM136.032 141.197C135.992 141.602 135.92 141.966 135.815 142.291C135.715 142.611 135.577 142.901 135.4 143.161C135.222 143.421 135.003 143.655 134.742 143.865C134.48 144.075 134.171 144.27 133.813 144.449L135.34 147.928L131.775 148.269L130.902 144.839L129.935 144.776L129.478 147.996L126.134 147.669C126.276 146.489 126.415 145.315 126.55 144.146C126.691 142.977 126.835 141.803 126.982 140.624C127.051 140.029 127.119 139.439 127.187 138.854C127.255 138.27 127.333 137.681 127.423 137.088C127.799 136.988 128.167 136.912 128.529 136.858C128.89 136.805 129.249 136.772 129.606 136.76C129.969 136.743 130.332 136.745 130.697 136.765C131.067 136.78 131.443 136.807 131.827 136.844C132.418 136.902 132.98 137.041 133.513 137.261C134.052 137.476 134.518 137.768 134.911 138.136C135.304 138.504 135.604 138.944 135.81 139.456C136.021 139.969 136.095 140.549 136.032 141.197ZM132.524 141.105C132.545 140.887 132.534 140.684 132.489 140.497C132.45 140.31 132.377 140.146 132.271 140.004C132.17 139.858 132.035 139.74 131.866 139.651C131.702 139.556 131.504 139.497 131.271 139.474C131.167 139.464 131.065 139.462 130.965 139.468C130.866 139.469 130.768 139.478 130.672 139.494L130.264 142.374L130.451 142.393C130.674 142.415 130.902 142.408 131.136 142.374C131.375 142.339 131.591 142.272 131.784 142.17C131.982 142.069 132.147 141.931 132.28 141.756C132.417 141.581 132.499 141.364 132.524 141.105ZM146.289 139.141L142.049 144.754L141.727 149.166L137.73 148.774L138.252 144.414L135.972 138.365L139.986 138.257L140.901 141.737L142.583 138.511L146.289 139.141ZM155.65 139.667C155.113 139.912 154.634 140.226 154.215 140.609C153.795 140.992 153.438 141.412 153.141 141.87C152.845 142.328 152.61 142.804 152.436 143.3C152.262 143.791 152.153 144.269 152.107 144.736C152.061 145.202 152.062 145.699 152.11 146.228C152.157 146.756 152.257 147.283 152.41 147.811C152.563 148.334 152.769 148.843 153.029 149.34C153.295 149.832 153.62 150.28 154.004 150.684L151.109 151.546C150.755 151.265 150.447 150.942 150.184 150.576C149.922 150.21 149.698 149.822 149.513 149.411C149.329 148.995 149.18 148.565 149.067 148.119C148.959 147.674 148.876 147.235 148.819 146.8C148.768 146.36 148.74 145.934 148.733 145.52C148.732 145.101 148.75 144.71 148.785 144.347C148.841 143.782 148.976 143.204 149.191 142.613C149.406 142.017 149.693 141.443 150.05 140.892C150.414 140.336 150.846 139.824 151.347 139.355C151.848 138.886 152.415 138.496 153.047 138.187L155.65 139.667ZM161.157 139.94L159.622 150.952L156.247 150.464L157.155 143.127L155.827 143.86L154.922 141.087L157.642 139.438L161.157 139.94ZM168.756 141.297C167.744 143.024 166.792 144.789 165.898 146.59C165.01 148.387 164.167 150.209 163.368 152.057L160.377 150.539C160.847 149.638 161.317 148.739 161.787 147.844C162.258 146.942 162.735 146.05 163.219 145.166C163.71 144.277 164.214 143.398 164.734 142.528C165.254 141.657 165.801 140.803 166.375 139.965L168.756 141.297ZM176.369 148.763C176.301 149.452 176.131 150.04 175.858 150.526C175.591 151.008 175.244 151.398 174.817 151.696C174.391 151.989 173.895 152.191 173.329 152.303C172.769 152.411 172.163 152.432 171.509 152.368C171.214 152.339 170.913 152.281 170.608 152.194C170.303 152.106 170.002 151.998 169.706 151.87C169.41 151.741 169.123 151.595 168.846 151.432C168.574 151.269 168.321 151.098 168.088 150.918L168.69 147.822C168.873 147.976 169.081 148.127 169.312 148.275C169.544 148.418 169.785 148.552 170.035 148.676C170.29 148.795 170.547 148.896 170.806 148.979C171.069 149.062 171.326 149.116 171.575 149.141C171.72 149.155 171.869 149.159 172.021 149.153C172.179 149.142 172.323 149.112 172.454 149.062C172.584 149.012 172.694 148.934 172.783 148.827C172.877 148.721 172.933 148.578 172.951 148.396C172.962 148.282 172.92 148.171 172.826 148.062C172.732 147.954 172.616 147.859 172.478 147.777C172.34 147.69 172.195 147.621 172.043 147.569C171.891 147.513 171.764 147.479 171.66 147.469C171.587 147.462 171.499 147.459 171.394 147.459C171.295 147.454 171.193 147.455 171.088 147.46C170.983 147.466 170.879 147.479 170.778 147.5C170.682 147.517 170.606 147.544 170.55 147.58L170.815 145.361C170.902 145.38 170.984 145.396 171.061 145.409C171.139 145.422 171.221 145.432 171.309 145.441C171.491 145.459 171.689 145.462 171.905 145.452C172.121 145.437 172.324 145.396 172.513 145.331C172.703 145.261 172.865 145.156 172.999 145.018C173.138 144.88 173.22 144.691 173.243 144.453C173.26 144.282 173.227 144.14 173.144 144.027C173.061 143.909 172.952 143.815 172.818 143.744C172.689 143.674 172.545 143.62 172.386 143.584C172.228 143.547 172.084 143.523 171.954 143.51C171.534 143.469 171.112 143.501 170.689 143.606C170.27 143.711 169.892 143.889 169.553 144.138L169.177 141.244C169.692 140.902 170.263 140.66 170.889 140.517C171.521 140.37 172.146 140.326 172.763 140.387C173.328 140.442 173.859 140.578 174.355 140.794C174.858 141.006 175.291 141.291 175.653 141.651C176.016 142.006 176.291 142.428 176.479 142.918C176.666 143.407 176.73 143.957 176.67 144.569C176.653 144.745 176.609 144.922 176.54 145.098C176.47 145.274 176.383 145.444 176.278 145.606C176.173 145.769 176.054 145.919 175.92 146.058C175.786 146.191 175.647 146.306 175.501 146.401C175.709 146.521 175.875 146.671 175.999 146.85C176.123 147.03 176.216 147.225 176.279 147.435C176.342 147.646 176.378 147.866 176.387 148.097C176.396 148.323 176.39 148.545 176.369 148.763ZM182.235 148.019C182.198 148.398 182.123 148.783 182.012 149.175C181.905 149.567 181.765 149.959 181.59 150.35C181.416 150.736 181.207 151.116 180.961 151.49C180.72 151.858 180.448 152.209 180.143 152.54C179.839 152.871 179.503 153.176 179.135 153.454C178.773 153.732 178.38 153.974 177.957 154.178L175.37 152.7C175.903 152.449 176.376 152.131 176.79 151.748C177.205 151.365 177.555 150.946 177.84 150.493C178.131 150.035 178.36 149.56 178.529 149.069C178.698 148.573 178.805 148.091 178.851 147.625C178.897 147.153 178.897 146.653 178.849 146.125C178.806 145.598 178.711 145.073 178.564 144.551C178.416 144.023 178.213 143.514 177.952 143.023C177.697 142.527 177.38 142.074 177.002 141.666L179.88 140.818C180.234 141.103 180.541 141.432 180.803 141.803C181.071 142.169 181.297 142.56 181.481 142.976C181.666 143.387 181.815 143.815 181.928 144.26C182.047 144.701 182.135 145.142 182.191 145.581C182.248 146.016 182.277 146.443 182.278 146.862C182.284 147.276 182.27 147.662 182.235 148.019ZM185.69 152.016C185.667 152.244 185.602 152.452 185.495 152.641C185.387 152.829 185.251 152.991 185.086 153.126C184.927 153.257 184.744 153.357 184.539 153.426C184.334 153.49 184.12 153.511 183.897 153.489C183.669 153.466 183.46 153.404 183.271 153.302C183.083 153.194 182.921 153.061 182.785 152.901C182.654 152.736 182.555 152.551 182.486 152.346C182.422 152.14 182.402 151.924 182.424 151.696C182.446 151.473 182.508 151.264 182.611 151.07C182.719 150.877 182.852 150.715 183.012 150.584C183.177 150.448 183.362 150.346 183.568 150.277C183.773 150.208 183.99 150.185 184.218 150.208C184.441 150.229 184.647 150.294 184.835 150.401C185.024 150.509 185.183 150.645 185.313 150.809C185.449 150.969 185.552 151.155 185.62 151.365C185.688 151.576 185.711 151.793 185.69 152.016ZM186.177 147.04C186.155 147.268 186.09 147.476 185.983 147.664C185.875 147.853 185.739 148.015 185.574 148.15C185.415 148.281 185.232 148.381 185.027 148.45C184.821 148.514 184.607 148.534 184.385 148.513C184.156 148.49 183.948 148.428 183.759 148.326C183.571 148.218 183.409 148.085 183.273 147.925C183.142 147.76 183.043 147.575 182.974 147.369C182.91 147.164 182.889 146.948 182.912 146.72C182.934 146.497 182.996 146.288 183.099 146.094C183.207 145.901 183.34 145.739 183.5 145.608C183.665 145.472 183.85 145.37 184.056 145.301C184.261 145.232 184.478 145.209 184.706 145.231C184.929 145.253 185.135 145.318 185.323 145.425C185.511 145.533 185.671 145.669 185.801 145.833C185.937 145.993 186.039 146.179 186.108 146.389C186.176 146.6 186.199 146.817 186.177 147.04Z" fill="white"/>
<rect x="198.777" y="135.825" width="92" height="26" rx="6" transform="rotate(5.59943 198.777 135.825)" fill="#FFD155"/>
<path d="M216.764 146.365C216.686 146.849 216.61 147.328 216.537 147.803C216.464 148.277 216.384 148.756 216.294 149.239L212.981 149.087L212.885 150.066L215.746 150.347L215.354 152.742L212.625 152.553L212.19 157.157L208.248 156.849L209.596 145.662L216.764 146.365ZM226.209 149.881C226.171 150.265 226.111 150.685 226.03 151.143C225.948 151.601 225.842 152.072 225.711 152.556C225.58 153.041 225.422 153.53 225.237 154.025C225.058 154.515 224.847 154.984 224.605 155.431C224.362 155.878 224.088 156.294 223.784 156.677C223.485 157.056 223.15 157.382 222.778 157.654C222.411 157.921 222.01 158.12 221.573 158.25C221.136 158.385 220.661 158.428 220.148 158.377C219.546 158.318 219.032 158.168 218.606 157.928C218.184 157.693 217.831 157.397 217.547 157.039C217.263 156.676 217.042 156.267 216.882 155.812C216.723 155.352 216.611 154.872 216.544 154.374C216.479 153.87 216.447 153.362 216.451 152.85C216.459 152.332 216.487 151.838 216.533 151.366C216.604 150.64 216.711 149.921 216.855 149.208C216.998 148.489 217.173 147.776 217.378 147.069L221.003 147.565C220.784 148.366 220.582 149.173 220.397 149.987C220.218 150.796 220.088 151.615 220.007 152.445C219.998 152.533 219.988 152.665 219.976 152.842C219.97 153.014 219.966 153.21 219.965 153.43C219.965 153.644 219.972 153.867 219.986 154.099C220.006 154.326 220.04 154.536 220.089 154.729C220.138 154.922 220.204 155.083 220.285 155.212C220.372 155.34 220.48 155.411 220.61 155.424C220.76 155.439 220.902 155.382 221.035 155.254C221.168 155.12 221.291 154.939 221.402 154.709C221.519 154.479 221.626 154.213 221.724 153.908C221.822 153.604 221.911 153.285 221.99 152.953C222.07 152.621 222.139 152.287 222.198 151.953C222.262 151.619 222.316 151.308 222.36 151.019C222.41 150.731 222.448 150.475 222.475 150.253C222.502 150.031 222.521 149.865 222.531 149.756C222.571 149.352 222.603 148.949 222.626 148.549C222.655 148.143 222.677 147.74 222.69 147.338L226.329 147.695C226.321 148.416 226.281 149.145 226.209 149.881ZM237.65 148.475L236.057 158.964L231.946 158.937L230.322 153.079L229.416 158.799L225.917 158.456L227.278 147.458L231.184 147.653L233.326 153.515L233.968 148.24L237.65 148.475ZM248.862 149.575L247.269 160.063L243.158 160.037L241.534 154.178L240.628 159.898L237.129 159.555L238.49 148.558L242.396 148.752L244.537 154.614L245.18 149.339L248.862 149.575ZM253.679 150.251L251.785 160.757L248.487 160.606L249.521 150.063L253.679 150.251ZM261.612 150.762C261.533 151.246 261.457 151.725 261.385 152.2C261.312 152.674 261.231 153.153 261.142 153.636L257.828 153.484L257.654 154.456L259.971 154.683L259.564 157.076L257.224 156.925L257.035 158.053L258.963 158.242L260.332 158.376C260.245 158.943 260.155 159.508 260.064 160.069C259.978 160.626 259.894 161.185 259.813 161.748L253.095 161.246L254.443 150.059L261.612 150.762ZM269.152 158.644C269.083 159.355 268.897 159.964 268.596 160.474C268.301 160.979 267.92 161.386 267.456 161.697C266.996 162.007 266.47 162.223 265.877 162.343C265.29 162.463 264.667 162.491 264.009 162.426C263.755 162.401 263.478 162.34 263.179 162.243C262.885 162.146 262.587 162.033 262.286 161.904C261.985 161.77 261.695 161.632 261.416 161.489C261.142 161.342 260.899 161.206 260.687 161.08L261.343 157.91C261.758 158.218 262.225 158.468 262.745 158.66C263.271 158.848 263.793 158.967 264.311 159.018C264.41 159.027 264.529 159.036 264.67 159.045C264.811 159.048 264.945 159.038 265.073 159.014C265.207 158.985 265.322 158.936 265.417 158.867C265.513 158.798 265.568 158.691 265.582 158.546C265.592 158.447 265.569 158.361 265.513 158.288C265.458 158.209 265.384 158.144 265.289 158.093C265.195 158.037 265.087 157.992 264.965 157.959C264.843 157.921 264.723 157.891 264.605 157.869C264.486 157.847 264.375 157.831 264.272 157.821C264.168 157.81 264.085 157.802 264.023 157.796C263.577 157.752 263.178 157.635 262.825 157.443C262.478 157.252 262.185 157.006 261.948 156.706C261.716 156.4 261.546 156.051 261.438 155.659C261.33 155.261 261.299 154.839 261.342 154.393C261.402 153.782 261.578 153.247 261.869 152.789C262.165 152.326 262.535 151.946 262.977 151.649C263.425 151.348 263.925 151.132 264.477 151.003C265.029 150.874 265.59 150.838 266.16 150.894C266.414 150.919 266.675 150.955 266.942 151.002C267.21 151.044 267.474 151.101 267.734 151.174C267.999 151.247 268.255 151.332 268.502 151.429C268.748 151.527 268.981 151.641 269.198 151.772L268.593 154.9C268.252 154.746 267.891 154.612 267.51 154.496C267.135 154.375 266.763 154.297 266.395 154.261C266.328 154.254 266.239 154.248 266.13 154.243C266.026 154.232 265.914 154.229 265.793 154.233C265.678 154.232 265.56 154.239 265.438 154.253C265.316 154.267 265.206 154.293 265.108 154.331C265.011 154.363 264.93 154.413 264.866 154.48C264.802 154.547 264.768 154.63 264.763 154.729C264.757 154.843 264.79 154.941 264.86 155.021C264.937 155.096 265.035 155.161 265.155 155.215C265.281 155.264 265.419 155.303 265.568 155.334C265.722 155.364 265.873 155.39 266.023 155.41C266.174 155.424 266.313 155.438 266.443 155.451C266.573 155.458 266.679 155.471 266.761 155.49C267.173 155.556 267.538 155.681 267.855 155.864C268.172 156.047 268.432 156.274 268.636 156.545C268.845 156.817 268.992 157.132 269.077 157.491C269.168 157.845 269.193 158.23 269.152 158.644ZM278.366 152.499L277.965 155.788L275.639 155.654L274.325 162.967L271.028 162.816L271.766 155.447L269.437 155.344L269.89 151.683L278.366 152.499Z" fill="black"/>
<g clip-path="url(#clip1_229_552)">
<path d="M386.241 39.447L385.442 38.9425C385.427 38.9324 385.411 38.9304 385.393 38.9233L373.246 31.597C372.364 31.0353 371.168 31.2741 370.567 32.1319L370.259 32.8575C369.661 33.7147 370.13 34.812 371.011 35.3712L378.164 39.6529L348.758 45.525L342.854 15.9617L349.554 20.9187C350.409 21.5175 351.605 21.529 352.163 20.6454L352.715 20.0846C353.274 19.2009 353.035 18.0049 352.18 17.4037L341.257 9.37696C340.952 8.98211 340.542 8.68452 340.072 8.52019L339.937 8.4259C339.511 8.12628 339.008 8.0344 338.542 8.13004C338.075 8.22061 337.646 8.49869 337.362 8.93999L336.855 9.73697C336.845 9.75217 336.848 9.76737 336.836 9.78561L329.708 21.7277C329.149 22.6088 329.388 23.8048 330.243 24.4061L330.968 24.7118C331.823 25.3106 332.923 24.8406 333.482 23.9596L337.738 16.7593L343.683 46.5304L313.887 52.4805L318.844 45.7806C319.442 44.9234 319.454 43.73 318.573 43.1708L318.012 42.6187C317.128 42.0575 315.929 42.2968 315.331 43.1541L307.304 54.0768C306.909 54.3798 306.612 54.7922 306.447 55.2599L306.353 55.3946C306.053 55.8207 305.962 56.3264 306.058 56.7922C306.148 57.2589 306.424 57.6887 306.868 57.9716L307.667 58.4786C307.682 58.4888 307.698 58.4883 307.713 58.4984L319.655 65.6259C320.536 66.1851 321.732 65.9463 322.336 65.0906L322.642 64.3655C323.241 63.5108 322.77 62.4084 321.889 61.8492L314.689 57.5929L344.701 51.5998L350.661 81.4494L343.966 76.4361C343.109 75.8379 341.915 75.8259 341.356 76.707L340.804 77.2678C340.246 78.1514 340.484 79.3474 341.339 79.9462L352.507 88.2349C352.522 88.2476 352.528 88.2623 352.543 88.2724L353.318 88.8159C353.749 89.1145 354.252 89.2064 354.718 89.1108C355.182 89.0207 355.614 88.7421 355.893 88.3018L356.4 87.5023C356.41 87.4871 356.412 87.4709 356.421 87.4532L363.748 75.3054C364.307 74.4243 364.068 73.2283 363.213 72.627L362.487 72.3187C361.632 71.72 360.533 72.1899 359.973 73.071L355.692 80.2236L349.773 50.5817L379.387 44.6681L374.373 51.3634C373.775 52.2181 373.764 53.4166 374.645 53.9758L375.205 54.5278C376.089 55.0865 377.285 54.8477 377.884 53.9929L386.173 42.8255C386.185 42.8073 386.2 42.8042 386.211 42.7916L386.754 42.0164C387.053 41.5878 387.145 41.0846 387.049 40.6163C386.959 40.1521 386.68 39.7203 386.24 39.4419L386.241 39.447Z" fill="#A6A6A6"/>
</g>
<defs>
<clipPath id="clip0_229_552">
<rect width="18" height="18" fill="white" transform="translate(299.568 81.3999) rotate(5.59943)"/>
</clipPath>
<clipPath id="clip1_229_552">
<rect width="82.6865" height="82.6865" fill="white" transform="translate(297.905 16.192) rotate(-11.2929)"/>
</clipPath>
</defs>
</svg>
