<svg width="355" height="314" viewBox="0 0 355 314" fill="none" xmlns="http://www.w3.org/2000/svg">
<rect x="72.0689" y="0.620864" width="278" height="287" rx="15.5" transform="rotate(5.59943 72.0689 0.620864)" fill="#130832" stroke="#39383B"/>
<rect x="177.748" y="149.141" width="45.3632" height="21" rx="6" transform="rotate(5.59943 177.748 149.141)" fill="#7269E3"/>
<path d="M195.03 158.251C194.993 158.634 194.933 159.055 194.851 159.513C194.77 159.971 194.664 160.442 194.532 160.926C194.401 161.41 194.243 161.9 194.059 162.395C193.88 162.885 193.669 163.353 193.426 163.8C193.184 164.248 192.91 164.663 192.605 165.047C192.307 165.426 191.971 165.751 191.599 166.023C191.233 166.291 190.831 166.49 190.395 166.62C189.957 166.755 189.482 166.797 188.969 166.747C188.368 166.688 187.854 166.538 187.427 166.297C187.006 166.062 186.653 165.766 186.369 165.409C186.085 165.046 185.863 164.637 185.704 164.182C185.545 163.721 185.432 163.242 185.366 162.743C185.3 162.24 185.269 161.732 185.272 161.219C185.281 160.702 185.308 160.207 185.355 159.736C185.426 159.01 185.533 158.29 185.676 157.577C185.82 156.859 185.995 156.146 186.2 155.438L189.825 155.935C189.605 156.735 189.403 157.542 189.219 158.356C189.04 159.165 188.91 159.985 188.829 160.814C188.82 160.902 188.81 161.035 188.797 161.211C188.791 161.384 188.788 161.579 188.787 161.799C188.787 162.014 188.794 162.237 188.808 162.468C188.827 162.695 188.862 162.906 188.911 163.099C188.96 163.292 189.025 163.453 189.107 163.581C189.194 163.71 189.302 163.781 189.431 163.793C189.582 163.808 189.723 163.751 189.856 163.623C189.99 163.49 190.112 163.308 190.224 163.078C190.34 162.849 190.448 162.582 190.545 162.278C190.643 161.973 190.732 161.655 190.812 161.323C190.892 160.99 190.961 160.657 191.02 160.323C191.084 159.989 191.138 159.677 191.182 159.389C191.231 159.1 191.269 158.845 191.296 158.623C191.323 158.4 191.342 158.235 191.353 158.126C191.393 157.721 191.424 157.319 191.448 156.918C191.477 156.513 191.498 156.11 191.511 155.708L195.15 156.065C195.142 156.786 195.102 157.515 195.03 158.251ZM203.172 163.602C203.102 164.312 202.917 164.922 202.616 165.431C202.32 165.936 201.94 166.344 201.475 166.654C201.016 166.965 200.49 167.18 199.897 167.3C199.309 167.42 198.687 167.448 198.028 167.384C197.774 167.359 197.498 167.298 197.198 167.2C196.904 167.104 196.607 166.991 196.305 166.862C196.005 166.727 195.715 166.589 195.435 166.447C195.162 166.299 194.919 166.163 194.706 166.038L195.362 162.868C195.777 163.175 196.245 163.425 196.765 163.618C197.291 163.805 197.813 163.924 198.331 163.975C198.43 163.985 198.549 163.994 198.689 164.003C198.83 164.006 198.965 163.995 199.093 163.971C199.227 163.943 199.341 163.894 199.437 163.825C199.533 163.755 199.588 163.648 199.602 163.503C199.612 163.405 199.589 163.319 199.533 163.245C199.478 163.167 199.403 163.102 199.309 163.051C199.215 162.994 199.107 162.95 198.984 162.917C198.862 162.879 198.742 162.849 198.624 162.826C198.506 162.804 198.395 162.788 198.291 162.778C198.188 162.768 198.105 162.76 198.043 162.754C197.597 162.71 197.198 162.592 196.845 162.401C196.497 162.21 196.205 161.964 195.967 161.663C195.736 161.358 195.566 161.009 195.458 160.616C195.35 160.219 195.318 159.797 195.362 159.351C195.422 158.739 195.597 158.204 195.888 157.746C196.185 157.283 196.554 156.904 196.997 156.607C197.445 156.305 197.945 156.09 198.497 155.961C199.048 155.832 199.609 155.795 200.179 155.851C200.433 155.876 200.694 155.912 200.962 155.959C201.23 156.001 201.494 156.059 201.753 156.131C202.018 156.204 202.274 156.289 202.521 156.387C202.768 156.484 203 156.599 203.218 156.73L202.613 159.858C202.272 159.704 201.911 159.569 201.53 159.453C201.154 159.333 200.783 159.254 200.415 159.218C200.347 159.212 200.259 159.206 200.149 159.2C200.046 159.19 199.934 159.187 199.813 159.191C199.698 159.19 199.579 159.197 199.458 159.211C199.336 159.225 199.226 159.251 199.128 159.288C199.031 159.321 198.95 159.37 198.886 159.437C198.822 159.504 198.787 159.587 198.783 159.686C198.777 159.801 198.809 159.898 198.88 159.978C198.956 160.054 199.055 160.119 199.175 160.172C199.301 160.221 199.438 160.261 199.587 160.291C199.741 160.322 199.893 160.347 200.043 160.367C200.193 160.382 200.333 160.396 200.463 160.408C200.593 160.416 200.699 160.429 200.781 160.447C201.193 160.514 201.557 160.639 201.874 160.822C202.191 161.004 202.452 161.231 202.655 161.503C202.864 161.774 203.011 162.09 203.097 162.449C203.187 162.803 203.212 163.187 203.172 163.602ZM213.01 168.068L209.104 168.187L208.81 166.384L207.037 166.21L206.476 167.929L202.549 167.152L206.659 157.099L211.003 157.305L213.01 168.068ZM208.763 163.978L208.438 161.214L207.597 163.863L208.763 163.978Z" fill="white"/>
<rect x="157.048" y="172.999" width="89" height="21" rx="6" transform="rotate(5.59943 157.048 172.999)" fill="#7269E3"/>
<path d="M180.05 180.076L178.216 191.42L174.655 191.228L175.276 185.213L173.199 189.907L171.831 189.773L171.027 185.314L170.518 190.351L166.915 190.108L168.124 179.378L172.136 179.614L173.217 184.917L175.867 179.666L180.05 180.076ZM189.244 191.747L185.339 191.867L185.045 190.064L183.272 189.89L182.711 191.609L178.784 190.832L182.894 180.779L187.238 180.985L189.244 191.747ZM184.998 187.657L184.673 184.894L183.832 187.543L184.998 187.657ZM196.565 188.98L195.9 192.4L189.303 192.271L190.64 181.193L194.683 181.589L193.408 188.67L196.565 188.98ZM205.941 187.827C205.87 188.552 205.713 189.194 205.47 189.751C205.227 190.308 204.915 190.793 204.534 191.206C204.159 191.614 203.726 191.951 203.234 192.216C202.742 192.482 202.212 192.689 201.643 192.837C201.074 192.98 200.474 193.068 199.843 193.101C199.217 193.133 198.577 193.118 197.924 193.054C197.68 193.03 197.442 193.001 197.21 192.968C196.979 192.93 196.742 192.886 196.501 192.836L197.711 182.734C198.299 182.608 198.897 182.539 199.506 182.525C200.12 182.507 200.725 182.527 201.321 182.585C202.062 182.658 202.734 182.828 203.335 183.097C203.937 183.365 204.444 183.723 204.855 184.172C205.267 184.615 205.568 185.145 205.759 185.76C205.956 186.371 206.016 187.059 205.941 187.827ZM200.361 190.294C200.677 190.278 200.968 190.212 201.236 190.097C201.51 189.977 201.75 189.823 201.957 189.634C202.164 189.44 202.33 189.215 202.454 188.961C202.585 188.701 202.664 188.421 202.694 188.121C202.723 187.825 202.719 187.547 202.681 187.287C202.644 187.022 202.565 186.789 202.444 186.589C202.322 186.383 202.153 186.215 201.936 186.084C201.719 185.947 201.445 185.858 201.114 185.815L200.361 190.294ZM210.958 183.499L209.375 194.035L206.077 193.884L206.8 183.311L210.958 183.499ZM221.131 184.543L217.254 194.776L213.377 194.616L210.873 184.118L214.592 184.138L215.506 190.193L217.577 183.959L221.131 184.543ZM229.192 189.996C229.148 190.447 229.072 190.895 228.966 191.34C228.074 191.31 227.184 191.317 226.295 191.361C225.407 191.399 224.519 191.438 223.63 191.476C223.728 191.863 223.909 192.181 224.172 192.432C224.441 192.684 224.775 192.829 225.174 192.868C225.381 192.888 225.61 192.871 225.862 192.818C226.118 192.764 226.374 192.692 226.628 192.602C226.884 192.507 227.13 192.403 227.366 192.29C227.602 192.177 227.805 192.074 227.977 191.981L227.258 195.474C227.04 195.61 226.807 195.721 226.558 195.806C226.314 195.892 226.062 195.956 225.801 195.999C225.54 196.041 225.279 196.065 225.017 196.071C224.755 196.077 224.499 196.067 224.25 196.043C223.737 195.993 223.275 195.877 222.863 195.695C222.452 195.513 222.085 195.281 221.762 194.998C221.445 194.711 221.173 194.383 220.948 194.016C220.722 193.648 220.544 193.254 220.412 192.833C220.281 192.412 220.193 191.971 220.149 191.512C220.105 191.052 220.106 190.592 220.151 190.13C220.199 189.648 220.29 189.171 220.425 188.697C220.561 188.224 220.738 187.773 220.958 187.344C221.183 186.916 221.449 186.526 221.756 186.174C222.068 185.818 222.42 185.515 222.811 185.265C223.201 185.016 223.633 184.833 224.105 184.717C224.582 184.601 225.098 184.571 225.652 184.625C226.114 184.671 226.527 184.776 226.893 184.943C227.264 185.105 227.586 185.315 227.859 185.572C228.138 185.824 228.371 186.116 228.558 186.449C228.751 186.782 228.899 187.142 229.002 187.528C229.111 187.911 229.179 188.313 229.206 188.734C229.238 189.15 229.234 189.571 229.192 189.996ZM226.121 189.287C226.136 189.142 226.135 188.993 226.118 188.839C226.102 188.681 226.064 188.536 226.004 188.404C225.949 188.273 225.868 188.163 225.761 188.074C225.656 187.98 225.517 187.925 225.346 187.908C225.139 187.888 224.949 187.927 224.777 188.025C224.611 188.118 224.463 188.245 224.332 188.405C224.201 188.56 224.09 188.732 223.998 188.922C223.907 189.112 223.834 189.288 223.782 189.45L226.105 189.458L226.121 189.287ZM237.449 193.129C237.379 193.84 237.195 194.442 236.895 194.936C236.601 195.425 236.223 195.817 235.759 196.112C235.302 196.402 234.777 196.599 234.186 196.703C233.601 196.803 232.979 196.82 232.321 196.756C232.067 196.731 231.79 196.67 231.491 196.572C231.197 196.475 230.899 196.363 230.598 196.234C230.297 196.099 230.007 195.961 229.728 195.819C229.455 195.671 229.211 195.535 228.999 195.41L229.64 192.395C230.054 192.703 230.522 192.953 231.042 193.145C231.568 193.333 232.09 193.452 232.608 193.503C232.707 193.512 232.826 193.521 232.967 193.53C233.108 193.533 233.242 193.523 233.37 193.499C233.504 193.47 233.618 193.421 233.714 193.352C233.81 193.283 233.865 193.176 233.879 193.031C233.889 192.932 233.866 192.846 233.81 192.773C233.755 192.694 233.68 192.629 233.586 192.578C233.492 192.522 233.384 192.477 233.262 192.444C233.14 192.406 233.02 192.376 232.901 192.354C232.783 192.332 232.672 192.316 232.569 192.306C232.465 192.295 232.382 192.287 232.32 192.281C231.874 192.237 231.474 192.128 231.12 191.952C230.771 191.776 230.476 191.548 230.237 191.268C230.003 190.984 229.831 190.653 229.722 190.276C229.613 189.894 229.58 189.48 229.624 189.034C229.684 188.422 229.859 187.887 230.15 187.429C230.447 186.966 230.816 186.586 231.259 186.29C231.707 185.988 232.207 185.773 232.759 185.644C233.31 185.515 233.871 185.478 234.441 185.534C234.695 185.559 234.956 185.595 235.224 185.642C235.492 185.684 235.756 185.741 236.015 185.814C236.28 185.887 236.536 185.972 236.783 186.07C237.03 186.167 237.262 186.282 237.48 186.413L236.875 189.541C236.534 189.387 236.173 189.252 235.792 189.136C235.416 189.016 235.044 188.937 234.676 188.901C234.609 188.895 234.521 188.889 234.411 188.883C234.308 188.873 234.195 188.87 234.075 188.874C233.96 188.873 233.841 188.88 233.72 188.894C233.598 188.908 233.488 188.934 233.39 188.971C233.293 189.004 233.212 189.053 233.148 189.12C233.084 189.187 233.049 189.27 233.045 189.369C233.039 189.484 233.072 189.576 233.143 189.646C233.22 189.716 233.319 189.773 233.441 189.816C233.568 189.855 233.706 189.882 233.857 189.896C234.012 189.912 234.165 189.924 234.316 189.933C234.468 189.938 234.608 189.944 234.738 189.951C234.869 189.954 234.975 189.961 235.058 189.975C235.47 190.041 235.835 190.166 236.152 190.349C236.469 190.532 236.729 190.759 236.933 191.03C237.142 191.302 237.289 191.617 237.374 191.976C237.465 192.33 237.49 192.715 237.449 193.129Z" fill="white"/>
<rect x="169.048" y="199.999" width="58.8662" height="21" rx="6" transform="rotate(5.59943 169.048 199.999)" fill="#7269E3"/>
<path d="M182.592 206.842L180.698 217.348L177.4 217.197L178.434 206.654L182.592 206.842ZM192.097 214.855C192.04 215.44 191.975 216.02 191.903 216.594C191.837 217.163 191.763 217.737 191.68 218.315L187.209 217.798C187.454 216.896 187.679 215.994 187.882 215.093C188.086 214.187 188.234 213.267 188.325 212.334C188.332 212.267 188.34 212.158 188.35 212.007C188.359 211.856 188.365 211.686 188.368 211.498C188.371 211.305 188.367 211.108 188.355 210.908C188.349 210.704 188.328 210.516 188.293 210.345C188.262 210.174 188.216 210.034 188.154 209.923C188.097 209.807 188.019 209.745 187.921 209.735C187.745 209.718 187.589 209.755 187.455 209.847C187.325 209.939 187.211 210.063 187.112 210.221C187.018 210.374 186.938 210.55 186.872 210.747C186.805 210.945 186.749 211.143 186.703 211.343C186.663 211.543 186.629 211.733 186.6 211.914C186.578 212.089 186.561 212.234 186.55 212.348C186.434 213.263 186.324 214.174 186.219 215.079C186.115 215.98 186.005 216.89 185.889 217.81L181.907 217.592C182.19 215.773 182.467 213.963 182.737 212.163C183.013 210.364 183.269 208.552 183.506 206.728L187.194 206.901L187.041 208.142C187.203 207.98 187.375 207.829 187.556 207.69C187.742 207.551 187.937 207.437 188.139 207.347C188.342 207.252 188.553 207.183 188.772 207.142C188.996 207.096 189.227 207.084 189.466 207.108C189.906 207.151 190.285 207.261 190.603 207.439C190.92 207.617 191.186 207.842 191.4 208.114C191.614 208.386 191.785 208.701 191.912 209.059C192.04 209.412 192.134 209.785 192.195 210.178C192.256 210.571 192.292 210.98 192.302 211.405C192.313 211.825 192.307 212.238 192.283 212.644C192.264 213.05 192.236 213.442 192.199 213.821C192.162 214.199 192.128 214.544 192.097 214.855ZM201.865 213.552C201.794 214.277 201.637 214.919 201.394 215.476C201.151 216.033 200.839 216.518 200.458 216.93C200.083 217.338 199.65 217.675 199.158 217.941C198.666 218.207 198.136 218.414 197.566 218.562C196.998 218.705 196.398 218.793 195.767 218.825C195.141 218.858 194.501 218.843 193.848 218.779C193.604 218.755 193.366 218.726 193.134 218.693C192.902 218.655 192.666 218.61 192.425 218.561L193.635 208.459C194.223 208.333 194.821 208.264 195.43 208.25C196.044 208.232 196.649 208.252 197.245 208.31C197.986 208.383 198.658 208.553 199.259 208.822C199.861 209.09 200.368 209.448 200.779 209.897C201.191 210.34 201.492 210.87 201.683 211.485C201.88 212.096 201.94 212.784 201.865 213.552ZM196.285 216.019C196.601 216.003 196.892 215.937 197.16 215.822C197.433 215.702 197.674 215.548 197.881 215.359C198.088 215.165 198.254 214.94 198.378 214.686C198.508 214.426 198.588 214.146 198.618 213.845C198.647 213.55 198.642 213.272 198.605 213.012C198.568 212.747 198.489 212.514 198.368 212.314C198.246 212.108 198.077 211.94 197.86 211.809C197.643 211.672 197.369 211.583 197.038 211.54L196.285 216.019ZM206.882 209.224L205.299 219.76L202.001 219.609L202.724 209.036L206.882 209.224ZM216.192 220.514L212.286 220.633L211.992 218.83L210.219 218.657L209.658 220.376L205.731 219.598L209.841 209.545L214.185 209.751L216.192 220.514ZM211.945 216.424L211.62 213.66L210.779 216.309L211.945 216.424Z" fill="white"/>
<rect x="163.048" y="225.999" width="67" height="21" rx="6" transform="rotate(5.59943 163.048 225.999)" fill="#7269E3"/>
<path d="M178.12 232.356L177.719 235.645L175.393 235.511L174.079 242.824L170.781 242.673L171.52 235.304L169.19 235.201L169.643 231.54L178.12 232.356ZM187.799 233.477C187.387 235.279 187.009 237.076 186.666 238.869C186.323 240.657 185.987 242.458 185.657 244.273L182.447 244.194L182.704 243.01C182.588 243.119 182.457 243.211 182.308 243.285C182.165 243.36 182.012 243.418 181.851 243.46C181.691 243.497 181.526 243.52 181.358 243.53C181.19 243.534 181.031 243.526 180.881 243.506C180.529 243.467 180.204 243.367 179.906 243.207C179.608 243.041 179.34 242.837 179.102 242.594C178.865 242.346 178.657 242.066 178.478 241.756C178.3 241.44 178.154 241.114 178.04 240.779C177.932 240.438 177.856 240.096 177.811 239.751C177.771 239.407 177.767 239.077 177.798 238.761C177.844 238.295 177.899 237.813 177.963 237.317C178.033 236.816 178.116 236.317 178.212 235.819C178.308 235.32 178.417 234.829 178.537 234.343C178.663 233.859 178.806 233.396 178.964 232.957C179.593 233.05 180.225 233.14 180.86 233.229C181.495 233.317 182.13 233.387 182.763 233.439C182.6 233.878 182.436 234.32 182.272 234.764C182.114 235.204 181.965 235.65 181.827 236.102C181.689 236.549 181.569 237.001 181.466 237.457C181.364 237.912 181.29 238.376 181.244 238.848C181.233 238.957 181.223 239.113 181.213 239.316C181.204 239.519 181.21 239.721 181.233 239.922C181.26 240.124 181.31 240.304 181.384 240.463C181.463 240.617 181.585 240.702 181.751 240.719C181.948 240.738 182.132 240.672 182.304 240.522C182.476 240.366 182.636 240.151 182.783 239.878C182.93 239.604 183.064 239.285 183.183 238.92C183.308 238.556 183.419 238.174 183.515 237.775C183.618 237.372 183.707 236.965 183.784 236.553C183.861 236.142 183.925 235.756 183.976 235.395C184.033 235.029 184.078 234.701 184.112 234.411C184.151 234.122 184.178 233.897 184.194 233.736C184.204 233.633 184.211 233.531 184.216 233.432C184.22 233.333 184.223 233.231 184.222 233.127C184.558 233.17 184.892 233.211 185.223 233.248C185.554 233.286 185.888 233.321 186.225 233.354C186.484 233.38 186.744 233.405 187.003 233.431C187.268 233.451 187.533 233.467 187.799 233.477ZM197.04 237.869C197 238.273 196.928 238.637 196.822 238.962C196.723 239.282 196.585 239.572 196.407 239.832C196.23 240.092 196.011 240.327 195.75 240.537C195.488 240.747 195.179 240.941 194.821 241.121L196.348 244.599L192.782 244.94L191.91 241.511L190.943 241.447L190.485 244.668L187.142 244.34C187.284 243.161 187.423 241.986 187.558 240.817C187.699 239.648 187.843 238.474 187.99 237.295C188.059 236.7 188.127 236.11 188.195 235.526C188.262 234.941 188.341 234.352 188.431 233.759C188.807 233.66 189.175 233.583 189.536 233.53C189.898 233.476 190.257 233.444 190.614 233.431C190.976 233.415 191.34 233.416 191.704 233.436C192.074 233.452 192.451 233.478 192.835 233.516C193.426 233.574 193.988 233.713 194.521 233.932C195.06 234.147 195.526 234.439 195.919 234.807C196.312 235.175 196.612 235.616 196.818 236.128C197.029 236.64 197.103 237.221 197.04 237.869ZM193.532 237.776C193.553 237.558 193.542 237.356 193.497 237.168C193.458 236.981 193.385 236.817 193.279 236.676C193.178 236.53 193.043 236.412 192.874 236.322C192.71 236.227 192.512 236.169 192.279 236.146C192.175 236.136 192.073 236.134 191.973 236.14C191.874 236.14 191.776 236.149 191.68 236.166L191.272 239.046L191.459 239.064C191.682 239.086 191.91 239.08 192.144 239.045C192.382 239.011 192.598 238.943 192.792 238.842C192.99 238.741 193.155 238.603 193.287 238.427C193.425 238.252 193.506 238.035 193.532 237.776ZM207.39 236.309L203.552 240.061L206.184 245.72L202.514 246.004L200.464 242.569L200.041 245.605L196.795 245.412L198.135 234.302L201.738 234.86L201.144 238.036L203.718 235.007L207.39 236.309ZM215.115 240.865C215.07 241.316 214.995 241.764 214.889 242.209C213.997 242.179 213.106 242.186 212.218 242.23C211.329 242.268 210.441 242.307 209.553 242.345C209.651 242.732 209.832 243.05 210.095 243.301C210.364 243.553 210.697 243.698 211.097 243.737C211.304 243.757 211.533 243.741 211.784 243.687C212.041 243.633 212.296 243.562 212.551 243.471C212.807 243.376 213.052 243.272 213.288 243.159C213.524 243.046 213.728 242.943 213.9 242.85L213.18 246.343C212.963 246.479 212.73 246.59 212.481 246.675C212.237 246.761 211.984 246.825 211.724 246.868C211.463 246.91 211.202 246.934 210.939 246.94C210.677 246.946 210.422 246.936 210.173 246.912C209.66 246.862 209.198 246.746 208.786 246.564C208.375 246.382 208.008 246.15 207.685 245.867C207.368 245.58 207.096 245.252 206.871 244.885C206.645 244.517 206.466 244.123 206.335 243.702C206.204 243.281 206.116 242.84 206.072 242.381C206.028 241.921 206.029 241.461 206.074 240.999C206.121 240.517 206.213 240.04 206.348 239.566C206.483 239.093 206.661 238.642 206.881 238.213C207.106 237.785 207.372 237.395 207.679 237.043C207.991 236.687 208.343 236.384 208.733 236.134C209.124 235.885 209.555 235.702 210.027 235.586C210.504 235.471 211.02 235.44 211.575 235.494C212.036 235.54 212.45 235.646 212.815 235.812C213.187 235.974 213.509 236.184 213.782 236.441C214.061 236.693 214.294 236.986 214.481 237.318C214.674 237.651 214.821 238.011 214.925 238.398C215.034 238.78 215.102 239.182 215.129 239.603C215.161 240.019 215.156 240.44 215.115 240.865ZM212.044 240.156C212.058 240.011 212.057 239.862 212.041 239.708C212.025 239.55 211.987 239.405 211.927 239.273C211.871 239.142 211.791 239.032 211.684 238.943C211.578 238.849 211.44 238.794 211.269 238.777C211.061 238.757 210.872 238.796 210.7 238.894C210.534 238.988 210.385 239.114 210.255 239.274C210.124 239.429 210.013 239.601 209.921 239.791C209.829 239.981 209.757 240.157 209.705 240.319L212.027 240.327L212.044 240.156ZM225.367 237.584L221.127 243.197L220.804 247.609L216.808 247.217L217.329 242.857L215.049 236.808L219.063 236.7L219.978 240.18L221.66 236.954L225.367 237.584Z" fill="white"/>
<rect x="161.048" y="251.999" width="64.8731" height="21" rx="6" transform="rotate(5.59943 161.048 251.999)" fill="#7269E3"/>
<path d="M178.251 265.629C178.181 266.339 177.996 266.949 177.694 267.459C177.399 267.963 177.019 268.371 176.554 268.681C176.095 268.992 175.568 269.207 174.976 269.327C174.388 269.448 173.765 269.475 173.107 269.411C172.853 269.386 172.577 269.325 172.277 269.227C171.983 269.131 171.686 269.018 171.384 268.889C171.083 268.755 170.793 268.616 170.514 268.474C170.241 268.327 169.998 268.19 169.785 268.065L170.441 264.895C170.856 265.202 171.323 265.452 171.844 265.645C172.369 265.832 172.892 265.951 173.41 266.002C173.508 266.012 173.628 266.021 173.768 266.03C173.909 266.033 174.044 266.023 174.172 265.998C174.305 265.97 174.42 265.921 174.516 265.852C174.612 265.783 174.667 265.675 174.681 265.53C174.69 265.432 174.667 265.346 174.612 265.272C174.557 265.194 174.482 265.129 174.388 265.078C174.294 265.021 174.186 264.977 174.063 264.944C173.941 264.906 173.821 264.876 173.703 264.854C173.585 264.831 173.474 264.815 173.37 264.805C173.267 264.795 173.184 264.787 173.121 264.781C172.676 264.737 172.276 264.619 171.924 264.428C171.576 264.237 171.284 263.991 171.046 263.69C170.814 263.385 170.644 263.036 170.536 262.643C170.429 262.246 170.397 261.824 170.441 261.378C170.501 260.766 170.676 260.231 170.967 259.773C171.264 259.31 171.633 258.931 172.076 258.634C172.524 258.332 173.024 258.117 173.575 257.988C174.127 257.859 174.688 257.822 175.258 257.878C175.512 257.903 175.773 257.939 176.041 257.986C176.309 258.028 176.572 258.086 176.832 258.158C177.097 258.231 177.353 258.317 177.6 258.414C177.847 258.511 178.079 258.626 178.296 258.757L177.691 261.885C177.351 261.731 176.99 261.596 176.609 261.48C176.233 261.36 175.861 261.281 175.493 261.245C175.426 261.239 175.338 261.233 175.228 261.227C175.125 261.217 175.012 261.214 174.892 261.218C174.777 261.217 174.658 261.224 174.536 261.238C174.415 261.252 174.305 261.278 174.207 261.316C174.11 261.348 174.029 261.397 173.965 261.464C173.901 261.531 173.866 261.614 173.862 261.713C173.856 261.828 173.888 261.925 173.959 262.006C174.035 262.081 174.133 262.146 174.254 262.199C174.38 262.248 174.517 262.288 174.666 262.318C174.82 262.349 174.972 262.374 175.122 262.394C175.272 262.409 175.412 262.423 175.542 262.435C175.672 262.443 175.778 262.456 175.86 262.474C176.272 262.541 176.636 262.666 176.953 262.849C177.27 263.031 177.531 263.258 177.734 263.53C177.943 263.801 178.09 264.117 178.175 264.476C178.266 264.83 178.291 265.214 178.251 265.629ZM188.104 263.534C188.054 264.036 187.936 264.475 187.747 264.849C187.559 265.223 187.318 265.545 187.024 265.814C186.737 266.079 186.407 266.295 186.035 266.463C185.663 266.625 185.268 266.751 184.851 266.841C184.44 266.927 184.016 266.979 183.58 266.999C183.144 267.014 182.719 267.004 182.303 266.968L181.979 270.281L178.355 269.925C178.413 269.335 178.47 268.759 178.525 268.199C178.585 267.64 178.642 267.086 178.696 266.536C178.755 265.982 178.812 265.425 178.867 264.865C178.927 264.306 178.989 263.729 179.053 263.133C179.125 262.502 179.19 261.869 179.247 261.237C179.303 260.604 179.379 259.967 179.473 259.328C180.156 259.196 180.834 259.113 181.507 259.08C182.18 259.046 182.869 259.064 183.574 259.133C183.973 259.172 184.369 259.245 184.761 259.352C185.154 259.453 185.526 259.591 185.875 259.767C186.229 259.943 186.551 260.152 186.841 260.395C187.137 260.634 187.385 260.909 187.585 261.222C187.784 261.535 187.931 261.884 188.024 262.27C188.122 262.656 188.148 263.077 188.104 263.534ZM184.626 263.46C184.659 263.123 184.581 262.851 184.392 262.644C184.208 262.432 183.953 262.31 183.627 262.278C183.518 262.268 183.403 262.267 183.282 262.276C183.166 262.28 183.055 262.29 182.949 262.306L182.633 264.567C182.705 264.585 182.774 264.597 182.841 264.603C182.909 264.61 182.979 264.617 183.051 264.624C183.238 264.642 183.42 264.629 183.597 264.583C183.779 264.538 183.943 264.465 184.089 264.365C184.236 264.259 184.356 264.132 184.449 263.984C184.547 263.831 184.606 263.656 184.626 263.46ZM196.999 270.968L193.094 271.088L192.799 269.285L191.027 269.111L190.466 270.83L186.538 270.053L190.648 259.999L194.993 260.206L196.999 270.968ZM192.753 266.878L192.427 264.114L191.586 266.764L192.753 266.878ZM202.229 261.103L200.646 271.64L197.348 271.489L198.071 260.916L202.229 261.103ZM211.828 269.125C211.77 269.711 211.705 270.291 211.633 270.864C211.567 271.434 211.493 272.007 211.41 272.585L206.939 272.068C207.184 271.166 207.409 270.264 207.612 269.363C207.816 268.457 207.964 267.537 208.056 266.604C208.062 266.537 208.07 266.428 208.08 266.277C208.089 266.126 208.095 265.957 208.098 265.769C208.101 265.575 208.097 265.379 208.085 265.179C208.079 264.974 208.058 264.786 208.023 264.615C207.993 264.445 207.946 264.304 207.884 264.193C207.827 264.078 207.749 264.015 207.651 264.006C207.475 263.988 207.319 264.025 207.185 264.117C207.055 264.209 206.941 264.334 206.842 264.492C206.748 264.645 206.668 264.82 206.602 265.017C206.535 265.215 206.479 265.414 206.434 265.613C206.393 265.813 206.359 266.004 206.33 266.184C206.308 266.36 206.291 266.505 206.28 266.619C206.164 267.534 206.054 268.444 205.949 269.35C205.846 270.25 205.735 271.16 205.619 272.08L201.637 271.863C201.92 270.043 202.197 268.233 202.467 266.433C202.743 264.634 202.999 262.822 203.236 260.998L206.924 261.171L206.771 262.412C206.933 262.25 207.105 262.1 207.286 261.96C207.473 261.822 207.667 261.707 207.869 261.617C208.072 261.522 208.283 261.454 208.502 261.412C208.726 261.366 208.957 261.355 209.196 261.378C209.636 261.421 210.016 261.532 210.333 261.71C210.651 261.887 210.916 262.112 211.13 262.384C211.344 262.656 211.515 262.971 211.642 263.329C211.77 263.682 211.864 264.055 211.925 264.448C211.986 264.841 212.022 265.251 212.032 265.675C212.044 266.095 212.037 266.508 212.013 266.914C211.994 267.32 211.966 267.713 211.929 268.091C211.892 268.469 211.858 268.814 211.828 269.125Z" fill="white"/>
<path d="M97.0904 44.039L96.144 48.087C95.9612 48.0168 95.7768 47.9627 95.5908 47.9249C95.4048 47.887 95.2179 47.8589 95.03 47.8404C94.5505 47.7934 94.0874 47.8134 93.6405 47.9005C93.1944 47.981 92.7901 48.1343 92.4278 48.3605C92.0719 48.5873 91.7745 48.8852 91.5355 49.2543C91.303 49.624 91.161 50.0712 91.1096 50.5961C91.0766 50.933 91.0998 51.2296 91.1793 51.486C91.2653 51.743 91.3976 51.9621 91.5761 52.1431C91.7546 52.3241 91.9729 52.4666 92.2309 52.5704C92.4889 52.6741 92.7767 52.7416 93.0942 52.7727C93.3339 52.7962 93.5859 52.7948 93.8502 52.7684C94.1144 52.7419 94.377 52.699 94.638 52.6395C94.8989 52.5801 95.1547 52.507 95.4052 52.4204C95.6557 52.3337 95.8872 52.2419 96.0994 52.145L95.2628 56.6748C94.9974 56.7796 94.7106 56.8693 94.4024 56.9437C94.1013 57.0123 93.7915 57.0703 93.4728 57.1175C93.1548 57.1583 92.8384 57.1829 92.5236 57.1913C92.2088 57.1997 91.9088 57.1899 91.6237 57.1619C90.8009 57.0812 90.048 56.8537 89.3651 56.4793C88.6822 56.1049 88.1044 55.6263 87.6317 55.0436C87.159 54.4608 86.8056 53.7949 86.5716 53.0458C86.3447 52.2909 86.2722 51.4955 86.3541 50.6597C86.4627 49.5517 86.7238 48.5241 87.1372 47.5769C87.5512 46.6231 88.1022 45.8071 88.7902 45.1288C89.4781 44.4505 90.2966 43.942 91.2457 43.6033C92.2012 43.2652 93.2718 43.1543 94.4575 43.2706C94.9046 43.3144 95.3579 43.3948 95.8174 43.5118C96.2834 43.6295 96.7078 43.8052 97.0904 44.039ZM108.95 51.4817C108.892 52.0713 108.768 52.6348 108.578 53.1722C108.389 53.7031 108.141 54.1956 107.835 54.6497C107.535 55.1044 107.181 55.5145 106.772 55.88C106.371 56.2397 105.926 56.5395 105.438 56.7795C104.956 57.0201 104.439 57.195 103.885 57.3043C103.332 57.4071 102.754 57.4289 102.152 57.3699C101.569 57.3127 101.019 57.1835 100.502 56.9824C99.9917 56.7819 99.5196 56.5263 99.0857 56.2156C98.6523 55.8983 98.2661 55.5334 97.9272 55.1207C97.5953 54.7023 97.3191 54.25 97.0986 53.7639C96.8852 53.272 96.73 52.7531 96.633 52.2071C96.5426 51.6619 96.5256 51.1009 96.5822 50.5242C96.6374 49.9605 96.7595 49.4164 96.9482 48.892C97.1377 48.3611 97.3822 47.8683 97.6819 47.4136C97.9881 46.9595 98.3423 46.5494 98.7446 46.1832C99.1468 45.8171 99.5857 45.5102 100.061 45.2624C100.544 45.0153 101.055 44.8365 101.596 44.726C102.136 44.6154 102.698 44.5888 103.281 44.6459C104.221 44.738 105.062 44.9677 105.804 45.3348C106.553 45.7026 107.173 46.1854 107.664 46.783C108.162 47.3748 108.522 48.0708 108.745 48.8711C108.974 49.6655 109.043 50.5357 108.95 51.4817ZM104.61 51.3113C104.637 51.0327 104.622 50.7596 104.563 50.4922C104.511 50.2189 104.417 49.9742 104.282 49.7581C104.146 49.5356 103.968 49.3513 103.747 49.2053C103.533 49.0535 103.277 48.963 102.979 48.9337C102.674 48.9039 102.397 48.9323 102.146 49.0189C101.896 49.1056 101.673 49.2375 101.479 49.4147C101.293 49.5861 101.141 49.7969 101.025 50.0472C100.909 50.291 100.838 50.5555 100.81 50.8406C100.783 51.1127 100.795 51.3886 100.846 51.6684C100.897 51.9482 100.99 52.2058 101.124 52.4414C101.258 52.6769 101.431 52.8738 101.645 53.0321C101.865 53.1911 102.127 53.2854 102.431 53.3153C102.736 53.3452 103.014 53.3135 103.265 53.2204C103.523 53.1214 103.747 52.9798 103.935 52.7954C104.123 52.6046 104.276 52.3808 104.393 52.1241C104.51 51.8673 104.582 51.5964 104.61 51.3113ZM120.669 52.3558C120.58 53.2629 120.383 54.0647 120.08 54.761C119.776 55.4573 119.386 56.0635 118.91 56.5794C118.442 57.0895 117.9 57.5106 117.285 57.8429C116.67 58.1751 116.007 58.4339 115.296 58.6192C114.585 58.7981 113.835 58.9078 113.046 58.9482C112.263 58.9892 111.464 58.9697 110.647 58.8897C110.343 58.8598 110.046 58.8241 109.755 58.7826C109.466 58.7345 109.17 58.6794 108.869 58.6171L110.381 45.9896C111.116 45.8327 111.864 45.7458 112.625 45.7288C113.392 45.7059 114.149 45.731 114.894 45.804C115.82 45.8949 116.66 46.108 117.412 46.4434C118.164 46.7788 118.797 47.2268 119.311 47.7875C119.826 48.3417 120.203 49.0033 120.441 49.7725C120.687 50.5358 120.763 51.3969 120.669 52.3558ZM113.694 55.44C114.088 55.4198 114.453 55.3378 114.788 55.194C115.129 55.0443 115.43 54.8513 115.688 54.615C115.948 54.3722 116.155 54.0916 116.31 53.7733C116.473 53.449 116.573 53.099 116.61 52.7232C116.646 52.3539 116.641 52.0067 116.594 51.6816C116.548 51.35 116.449 51.059 116.297 50.8086C116.145 50.5517 115.934 50.3412 115.662 50.1772C115.391 50.0067 115.049 49.8947 114.635 49.8411L113.694 55.44ZM132.141 53.3432C132.086 53.9069 131.991 54.4668 131.858 55.0229C130.743 54.9855 129.631 54.9941 128.52 55.0488C127.409 55.0969 126.299 55.1451 125.189 55.1932C125.312 55.6762 125.537 56.0745 125.867 56.3881C126.202 56.7023 126.619 56.8838 127.118 56.9327C127.377 56.9581 127.664 56.9372 127.978 56.8698C128.299 56.8031 128.618 56.7134 128.937 56.6008C129.256 56.4816 129.563 56.3514 129.858 56.2103C130.153 56.0691 130.408 55.9404 130.622 55.824L129.723 60.1907C129.451 60.3603 129.16 60.4985 128.848 60.6054C128.543 60.7129 128.228 60.7932 127.902 60.8463C127.576 60.8994 127.25 60.9295 126.922 60.9366C126.594 60.9437 126.275 60.932 125.964 60.9015C125.322 60.8386 124.744 60.6937 124.23 60.4666C123.716 60.2396 123.257 59.9493 122.854 59.5957C122.457 59.2363 122.118 58.8269 121.836 58.3675C121.554 57.9081 121.331 57.4152 121.166 56.8889C121.002 56.3625 120.892 55.8121 120.838 55.2376C120.783 54.6631 120.784 54.0875 120.84 53.5109C120.899 52.9083 121.013 52.3111 121.183 51.7193C121.352 51.1275 121.574 50.5638 121.849 50.0282C122.13 49.4932 122.463 49.0057 122.846 48.5658C123.236 48.12 123.676 47.7411 124.164 47.4292C124.653 47.1173 125.192 46.8889 125.782 46.7439C126.378 46.5996 127.023 46.5614 127.716 46.6294C128.293 46.686 128.81 46.8184 129.267 47.0268C129.731 47.2293 130.134 47.4912 130.475 47.8125C130.824 48.1279 131.115 48.4934 131.349 48.9088C131.59 49.3249 131.774 49.7748 131.904 50.2584C132.04 50.7363 132.125 51.2385 132.158 51.7651C132.199 52.2858 132.193 52.8119 132.141 53.3432ZM128.303 52.4566C128.321 52.2752 128.319 52.0887 128.299 51.8969C128.279 51.6987 128.231 51.5175 128.156 51.3531C128.087 51.1893 127.986 51.0518 127.853 50.9407C127.72 50.823 127.547 50.7537 127.334 50.7328C127.074 50.7073 126.837 50.7561 126.623 50.8789C126.415 50.9959 126.229 51.1544 126.066 51.3542C125.903 51.5476 125.764 51.7629 125.649 52.0002C125.534 52.2375 125.444 52.4577 125.378 52.6605L128.282 52.6705L128.303 52.4566ZM136.223 59.6505C136.195 59.9355 136.114 60.1958 135.979 60.4312C135.845 60.6666 135.675 60.8691 135.468 61.0386C135.269 61.2022 135.041 61.327 134.784 61.413C134.528 61.4926 134.26 61.5187 133.982 61.4913C133.696 61.4634 133.436 61.3855 133.2 61.2577C132.964 61.1234 132.762 60.9564 132.592 60.7565C132.429 60.5508 132.304 60.3195 132.218 60.0625C132.138 59.8061 132.113 59.5353 132.141 59.2502C132.168 58.9716 132.246 58.7111 132.374 58.4685C132.509 58.2266 132.676 58.0239 132.875 57.8602C133.082 57.6908 133.313 57.563 133.57 57.477C133.827 57.391 134.099 57.362 134.384 57.3899C134.662 57.4172 134.919 57.498 135.155 57.6323C135.39 57.7666 135.589 57.9366 135.752 58.1423C135.922 58.3421 136.05 58.5738 136.136 58.8373C136.221 59.1008 136.25 59.3718 136.223 59.6505ZM136.832 53.4303C136.805 53.7154 136.723 53.9756 136.589 54.211C136.455 54.4465 136.285 54.6489 136.078 54.8184C135.879 54.982 135.651 55.1068 135.394 55.1928C135.137 55.2724 134.87 55.2985 134.591 55.2712C134.306 55.2432 134.046 55.1653 133.81 55.0375C133.574 54.9032 133.371 54.7362 133.201 54.5363C133.038 54.3306 132.914 54.0993 132.828 53.8423C132.748 53.5859 132.723 53.3152 132.75 53.0301C132.778 52.7515 132.856 52.4909 132.984 52.2484C133.119 52.0065 133.286 51.8037 133.485 51.6401C133.692 51.4706 133.923 51.3428 134.18 51.2568C134.437 51.1708 134.708 51.1418 134.993 51.1697C135.272 51.1971 135.529 51.2779 135.765 51.4121C136 51.5464 136.199 51.7164 136.362 51.9221C136.532 52.122 136.66 52.3536 136.745 52.6171C136.831 52.8806 136.86 53.1517 136.832 53.4303Z" fill="white"/>
<path d="M158.87 54.6489C158.819 55.1673 158.676 55.6537 158.442 56.1083C158.209 56.5564 157.916 56.9725 157.564 57.3567C157.22 57.7351 156.833 58.0798 156.403 58.3909C155.981 58.6962 155.555 58.9685 155.126 59.2077L158.197 59.5088L157.567 63.5291L148.501 62.3262L148.848 58.7885C149.203 58.7055 149.576 58.6014 149.968 58.4763C150.366 58.3453 150.758 58.1907 151.141 58.0125C151.532 57.8348 151.902 57.6291 152.252 57.3952C152.608 57.1619 152.925 56.9019 153.202 56.615C153.486 56.3223 153.717 55.9983 153.896 55.6429C154.081 55.2882 154.194 54.897 154.236 54.4694C154.26 54.2232 154.236 54.0017 154.164 53.8049C154.098 53.6087 153.994 53.4415 153.85 53.3031C153.707 53.1583 153.535 53.0465 153.334 52.9679C153.139 52.8834 152.925 52.8297 152.692 52.8069C152.498 52.7878 152.298 52.7911 152.092 52.8168C151.888 52.836 151.684 52.8749 151.482 52.9336C151.28 52.9923 151.086 53.0714 150.9 53.1709C150.721 53.2645 150.556 53.3759 150.406 53.5051L149.924 49.6114C150.187 49.3952 150.482 49.2213 150.809 49.0898C151.136 48.9583 151.476 48.8608 151.829 48.7973C152.183 48.7273 152.54 48.6871 152.901 48.6767C153.261 48.6662 153.614 48.6779 153.957 48.7115C154.722 48.7865 155.421 48.9957 156.054 49.3391C156.688 49.676 157.225 50.1113 157.663 50.6449C158.108 51.1726 158.438 51.7806 158.652 52.4688C158.872 53.1577 158.945 53.8844 158.87 54.6489ZM168.968 59.9369C168.884 60.7986 168.671 61.5333 168.33 62.141C167.997 62.7428 167.563 63.2301 167.029 63.603C166.496 63.9694 165.876 64.2226 165.169 64.3626C164.469 64.4968 163.711 64.5238 162.894 64.4438C162.525 64.4076 162.149 64.3348 161.768 64.2254C161.386 64.116 161.01 63.981 160.64 63.8204C160.269 63.6599 159.911 63.4776 159.565 63.2735C159.225 63.0701 158.909 62.856 158.617 62.6311L159.369 58.7603C159.599 58.9529 159.859 59.1418 160.148 59.3272C160.438 59.5061 160.739 59.673 161.051 59.8278C161.37 59.9769 161.691 60.1032 162.014 60.2069C162.344 60.3112 162.665 60.3786 162.976 60.4091C163.157 60.4269 163.343 60.432 163.534 60.4245C163.731 60.4112 163.912 60.3732 164.075 60.3107C164.238 60.2482 164.375 60.1505 164.486 60.0175C164.604 59.8851 164.674 59.7055 164.696 59.4787C164.71 59.3362 164.658 59.197 164.541 59.0612C164.423 58.9254 164.278 58.8065 164.105 58.7044C163.932 58.5959 163.751 58.5095 163.561 58.4451C163.372 58.3742 163.212 58.3324 163.083 58.3197C162.992 58.3108 162.881 58.3065 162.75 58.3067C162.626 58.3011 162.499 58.3017 162.367 58.3084C162.236 58.3152 162.107 58.3319 161.98 58.3587C161.86 58.3797 161.765 58.4129 161.695 58.4584L162.026 55.6845C162.135 55.7082 162.238 55.7281 162.334 55.7441C162.431 55.7601 162.534 55.7735 162.644 55.7843C162.871 55.8066 163.119 55.8113 163.389 55.7984C163.659 55.7791 163.912 55.7288 164.149 55.6473C164.387 55.5594 164.589 55.4288 164.757 55.2555C164.931 55.0829 165.032 54.8475 165.061 54.5495C165.082 54.3356 165.041 54.1582 164.937 54.0172C164.834 53.8697 164.698 53.7517 164.53 53.6633C164.369 53.5755 164.189 53.5088 163.99 53.4632C163.792 53.4176 163.612 53.3869 163.45 53.371C162.925 53.3195 162.398 53.3594 161.868 53.4906C161.345 53.6225 160.872 53.8443 160.449 54.1561L159.979 50.5383C160.623 50.1108 161.336 49.8079 162.119 49.6295C162.909 49.4453 163.69 49.391 164.461 49.4666C165.167 49.5358 165.831 49.7056 166.452 49.9758C167.08 50.2402 167.621 50.5974 168.074 51.0474C168.527 51.4909 168.871 52.0185 169.106 52.6302C169.34 53.242 169.42 53.9301 169.345 54.6947C169.323 54.915 169.269 55.1353 169.182 55.3558C169.095 55.5762 168.986 55.7879 168.855 55.9909C168.724 56.1939 168.574 56.3821 168.407 56.5554C168.24 56.7222 168.066 56.8654 167.884 56.9849C168.144 57.1347 168.352 57.3219 168.506 57.5464C168.661 57.7708 168.778 58.0145 168.856 58.2774C168.935 58.5402 168.98 58.8161 168.991 59.105C169.003 59.3874 168.995 59.6647 168.968 59.9369ZM181.671 65.2839L176.79 65.4333L176.422 63.1796L174.206 62.9623L173.505 65.1112L168.596 64.1393L173.733 51.5728L179.164 51.8304L181.671 65.2839ZM176.364 60.1713L175.957 56.7166L174.906 60.0283L176.364 60.1713ZM192.243 62.1403C192.156 63.0279 191.926 63.7805 191.551 64.3979C191.184 65.0095 190.71 65.4995 190.131 65.868C189.559 66.2306 188.904 66.477 188.165 66.6074C187.433 66.7319 186.656 66.7538 185.833 66.6731C185.516 66.642 185.17 66.5656 184.796 66.4439C184.428 66.3228 184.056 66.1816 183.679 66.0204C183.303 65.8527 182.941 65.6798 182.592 65.5017C182.25 65.3177 181.946 65.1473 181.681 64.9904L182.482 61.2225C183 61.6069 183.584 61.9193 184.235 62.1597C184.892 62.3942 185.545 62.5432 186.192 62.6068C186.316 62.6188 186.465 62.6302 186.641 62.6409C186.817 62.6451 186.985 62.6321 187.145 62.602C187.312 62.566 187.455 62.5049 187.575 62.4185C187.695 62.3321 187.763 62.1982 187.781 62.0168C187.793 61.8936 187.764 61.7862 187.695 61.6943C187.626 61.596 187.533 61.5149 187.415 61.451C187.297 61.3806 187.162 61.3248 187.009 61.2836C186.857 61.236 186.707 61.1984 186.559 61.1708C186.411 61.1432 186.273 61.1231 186.143 61.1104C186.013 61.0977 185.91 61.0875 185.832 61.0799C185.275 61.0253 184.775 60.8879 184.332 60.6679C183.895 60.4485 183.527 60.1638 183.228 59.814C182.936 59.4582 182.721 59.0447 182.584 58.5734C182.448 58.0955 182.407 57.578 182.462 57.0208C182.537 56.2562 182.756 55.5876 183.12 55.0149C183.49 54.4363 183.952 53.9615 184.506 53.5905C185.066 53.2137 185.691 52.9446 186.38 52.7833C187.07 52.6219 187.771 52.5762 188.484 52.6461C188.801 52.6772 189.127 52.7223 189.462 52.7812C189.797 52.8337 190.127 52.9053 190.451 52.996C190.783 53.0873 191.102 53.1939 191.411 53.3158C191.72 53.4376 192.01 53.5805 192.282 53.7445L191.525 57.6543C191.099 57.462 190.648 57.2935 190.172 57.1487C189.702 56.998 189.238 56.9001 188.778 56.855C188.694 56.8467 188.583 56.8392 188.446 56.8323C188.317 56.8196 188.176 56.8157 188.026 56.8205C187.882 56.8195 187.734 56.8279 187.582 56.8457C187.429 56.8634 187.292 56.8958 187.17 56.9427C187.048 56.9831 186.947 57.0451 186.867 57.1288C186.787 57.2126 186.744 57.3163 186.738 57.44C186.731 57.5832 186.772 57.6985 186.861 57.7857C186.957 57.8737 187.081 57.9447 187.233 57.9988C187.392 58.0471 187.565 58.0804 187.753 58.0988C187.947 58.1179 188.139 58.1334 188.327 58.1453C188.517 58.1508 188.692 58.1582 188.855 58.1676C189.018 58.1706 189.152 58.1803 189.255 58.197C189.77 58.2802 190.225 58.4361 190.622 58.6646C191.018 58.8932 191.343 59.177 191.598 59.5159C191.859 59.8555 192.043 60.2497 192.149 60.6984C192.263 61.1413 192.294 61.6219 192.243 62.1403ZM204.156 60.541C204.067 61.4481 203.87 62.2498 203.566 62.9462C203.263 63.6425 202.873 64.2487 202.397 64.7646C201.928 65.2747 201.387 65.6958 200.772 66.0281C200.157 66.3603 199.494 66.6191 198.782 66.8044C198.071 66.9833 197.322 67.093 196.533 67.1334C195.75 67.1744 194.951 67.1549 194.134 67.0749C193.83 67.045 193.532 67.0093 193.242 66.9678C192.952 66.9197 192.657 66.8646 192.355 66.8023L193.868 54.1748C194.603 54.0179 195.351 53.931 196.111 53.914C196.879 53.8911 197.635 53.9162 198.381 53.9892C199.307 54.0801 200.146 54.2932 200.899 54.6286C201.651 54.964 202.284 55.412 202.798 55.9727C203.313 56.5269 203.689 57.1885 203.928 57.9577C204.174 58.721 204.25 59.5821 204.156 60.541ZM197.181 63.6252C197.575 63.605 197.94 63.523 198.274 63.3792C198.616 63.2295 198.916 63.0365 199.175 62.8002C199.434 62.5574 199.642 62.2768 199.797 61.9585C199.96 61.6342 200.06 61.2842 200.096 60.9084C200.133 60.5391 200.127 60.1919 200.081 59.8668C200.035 59.5352 199.936 59.2442 199.784 58.9938C199.632 58.7369 199.421 58.5264 199.149 58.3624C198.878 58.1919 198.536 58.0799 198.122 58.0263L197.181 63.6252ZM214.56 55.3989C214.462 56.0042 214.367 56.6032 214.276 57.1962C214.185 57.7891 214.084 58.3875 213.973 58.9915L209.831 58.8013L209.711 60.0259L213.287 60.3766L212.798 63.3704L209.386 63.1341L208.88 68.5009L203.953 68.1159L205.599 54.5204L214.56 55.3989Z" fill="#00C299"/>
<mask id="path-14-inside-1_229_631" fill="white">
<path d="M236.028 65.4281C236.782 57.733 243.632 52.1065 251.327 52.8609L323.978 59.9837C331.674 60.7382 337.3 67.5879 336.546 75.2829V75.2829C335.791 82.978 328.941 88.6046 321.246 87.8501L248.595 80.7273C240.9 79.9729 235.273 73.1232 236.028 65.4281V65.4281Z"/>
</mask>
<path d="M236.028 65.4281C236.782 57.733 243.632 52.1065 251.327 52.8609L323.978 59.9837C331.674 60.7382 337.3 67.5879 336.546 75.2829V75.2829C335.791 82.978 328.941 88.6046 321.246 87.8501L248.595 80.7273C240.9 79.9729 235.273 73.1232 236.028 65.4281V65.4281Z" fill="#50A2FF"/>
<path d="M237.394 51.4949L337.912 61.3498L237.394 51.4949ZM336.546 75.2829C335.737 83.5277 328.398 89.5561 320.154 88.7478L249.492 81.8201C241.248 81.0118 235.219 73.6728 236.028 65.4281C235.327 72.5735 240.997 78.9776 248.692 79.7321L321.344 86.8549C329.039 87.6093 335.845 82.4284 336.546 75.2829ZM234.662 79.3613L237.394 51.4949L234.662 79.3613ZM337.912 61.3498L335.18 89.2161L337.912 61.3498Z" fill="white" mask="url(#path-14-inside-1_229_631)"/>
<path d="M261.351 67.9108C261.282 68.6209 261.097 69.2229 260.798 69.7169C260.504 70.2062 260.125 70.5982 259.662 70.8929C259.204 71.183 258.68 71.3802 258.089 71.4845C257.503 71.5841 256.881 71.6016 256.223 71.537C255.969 71.5121 255.693 71.451 255.393 71.3536C255.099 71.2568 254.802 71.1439 254.5 71.0149C254.199 70.8807 253.909 70.7424 253.63 70.5999C253.357 70.4527 253.114 70.3164 252.901 70.1909L253.542 67.1765C253.957 67.4841 254.424 67.734 254.944 67.9263C255.47 68.1139 255.992 68.2331 256.511 68.284C256.609 68.2936 256.729 68.3027 256.869 68.3112C257.01 68.3146 257.144 68.3042 257.272 68.2801C257.406 68.2514 257.521 68.2024 257.617 68.1333C257.712 68.0642 257.767 67.9571 257.782 67.812C257.791 67.7135 257.768 67.6275 257.713 67.554C257.658 67.4753 257.583 67.4104 257.488 67.3593C257.394 67.303 257.286 67.2584 257.164 67.2255C257.042 67.1873 256.922 67.1573 256.804 67.1352C256.686 67.1131 256.575 67.097 256.471 67.0869C256.367 67.0767 256.284 67.0686 256.222 67.0625C255.776 67.0188 255.376 66.9089 255.022 66.7329C254.673 66.5573 254.379 66.3296 254.139 66.0497C253.905 65.7651 253.734 65.4343 253.624 65.0572C253.515 64.675 253.482 64.261 253.526 63.8152C253.586 63.2035 253.762 62.6686 254.052 62.2104C254.349 61.7476 254.719 61.3678 255.161 61.071C255.609 60.7695 256.109 60.5543 256.661 60.4252C257.213 60.2961 257.774 60.2595 258.344 60.3154C258.598 60.3403 258.859 60.3764 259.126 60.4235C259.394 60.4655 259.658 60.5228 259.918 60.5953C260.183 60.6684 260.439 60.7537 260.685 60.8512C260.932 60.9486 261.164 61.063 261.382 61.1942L260.777 64.322C260.436 64.1682 260.075 64.0334 259.694 63.9175C259.319 63.7969 258.947 63.7186 258.579 63.6825C258.511 63.6759 258.423 63.6699 258.314 63.6644C258.21 63.6542 258.098 63.6511 257.977 63.655C257.862 63.6541 257.744 63.6608 257.622 63.6751C257.5 63.6893 257.39 63.7152 257.292 63.7527C257.195 63.785 257.114 63.8346 257.05 63.9016C256.986 63.9686 256.952 64.0516 256.947 64.1506C256.941 64.2651 256.974 64.3573 257.046 64.4271C257.123 64.4975 257.222 64.5543 257.343 64.5976C257.47 64.6362 257.609 64.6629 257.759 64.6776C257.915 64.6929 258.068 64.7053 258.219 64.7148C258.37 64.7192 258.511 64.7251 258.641 64.7327C258.771 64.735 258.878 64.7428 258.96 64.7561C259.372 64.8227 259.737 64.9474 260.054 65.1303C260.371 65.3131 260.631 65.5401 260.835 65.8113C261.044 66.083 261.191 66.3983 261.276 66.7573C261.367 67.1116 261.392 67.4961 261.351 67.9108ZM270.696 72.8461L266.79 72.6515L267.111 69.0563L265.323 68.881L264.88 72.2759L261.397 71.9344L262.764 61.0314L266.448 61.5653L265.667 67.125L267.394 67.2942L267.998 61.2933L271.534 61.7342L270.696 72.8461ZM281.304 73.211L277.399 73.3306L277.105 71.5276L275.332 71.3538L274.771 73.0729L270.844 72.2954L274.954 62.2422L279.298 62.4483L281.304 73.211ZM277.058 69.121L276.733 66.3573L275.892 69.0066L277.058 69.121ZM291.25 67.2938C291.21 67.6981 291.138 68.0626 291.032 68.3872C290.933 68.7072 290.795 68.9971 290.617 69.2571C290.44 69.5171 290.221 69.7521 289.96 69.9619C289.698 70.1718 289.389 70.3665 289.031 70.546L290.558 74.0241L286.992 74.3653L286.12 70.9357L285.153 70.8722L284.696 74.093L281.352 73.7652C281.494 72.5859 281.633 71.4116 281.768 70.2421C281.909 69.0732 282.053 67.8994 282.2 66.7206C282.269 66.1255 282.337 65.5356 282.405 64.9509C282.473 64.3661 282.551 63.7773 282.641 63.1842C283.017 63.085 283.385 63.0086 283.746 62.9551C284.108 62.9015 284.467 62.8687 284.824 62.8566C285.186 62.8398 285.55 62.8414 285.914 62.8615C286.284 62.8768 286.661 62.9033 287.045 62.9409C287.636 62.9988 288.198 63.1377 288.731 63.3574C289.27 63.5725 289.736 63.8641 290.129 64.2324C290.522 64.6006 290.822 65.0408 291.028 65.5529C291.239 66.0656 291.313 66.6459 291.25 67.2938ZM287.742 67.2011C287.763 66.9834 287.752 66.7808 287.707 66.5933C287.668 66.4063 287.595 66.2421 287.489 66.1008C287.388 65.9549 287.253 65.837 287.084 65.7471C286.92 65.6526 286.722 65.5939 286.489 65.5711C286.385 65.5609 286.283 65.5588 286.183 65.5647C286.084 65.5654 285.986 65.5741 285.89 65.5909L285.482 68.4711L285.669 68.4894C285.892 68.5112 286.12 68.5048 286.354 68.4702C286.592 68.436 286.808 68.3682 287.002 68.2668C287.2 68.1659 287.365 68.0277 287.497 67.8523C287.635 67.6773 287.716 67.4603 287.742 67.2011ZM299.521 64.3525C299.442 64.8367 299.367 65.316 299.294 65.7903C299.221 66.2647 299.14 66.7434 299.051 67.2266L295.738 67.0744L295.564 68.0465L297.881 68.2737L297.474 70.6672L295.133 70.5163L294.944 71.6438L296.873 71.8329L298.241 71.967C298.154 72.5342 298.065 73.0985 297.973 73.6599C297.887 74.2167 297.803 74.7763 297.722 75.3387L291.005 74.8372L292.353 63.6497L299.521 64.3525Z" fill="white"/>
<g clip-path="url(#clip0_229_631)">
<path d="M312.156 72.0681C312.007 71.7251 311.748 71.4413 311.421 71.2612C311.093 71.0811 310.715 71.0149 310.346 71.0729C309.977 71.131 309.637 71.31 309.38 71.5819C309.124 71.8539 308.965 72.2033 308.928 72.5753C308.892 72.9474 308.98 73.321 309.179 73.6376C309.378 73.9541 309.676 74.1957 310.027 74.3244C310.378 74.453 310.762 74.4615 311.118 74.3485C311.475 74.2354 311.783 74.0072 311.996 73.6997M312.156 72.0681C312.266 72.3231 312.316 72.6083 312.287 72.9046C312.258 73.2009 312.154 73.4718 311.996 73.6997M312.156 72.0681L319.685 68.8016M311.996 73.6997L318.747 78.3663M319.685 68.8016C319.77 69.009 319.896 69.1974 320.055 69.3556C320.214 69.5138 320.403 69.6387 320.611 69.7231C320.819 69.8074 321.041 69.8495 321.266 69.8468C321.49 69.8441 321.711 69.7968 321.917 69.7075C322.123 69.6182 322.309 69.4888 322.464 69.3268C322.619 69.1649 322.741 68.9736 322.821 68.7642C322.901 68.5548 322.939 68.3315 322.932 68.1073C322.925 67.8831 322.874 67.6625 322.781 67.4585C322.597 67.0564 322.263 66.7424 321.85 66.584C321.438 66.4256 320.979 66.4354 320.574 66.6114C320.168 66.7873 319.848 67.1153 319.682 67.5249C319.516 67.9344 319.517 68.3929 319.685 68.8016ZM318.747 78.3663C318.621 78.5486 318.532 78.754 318.486 78.9707C318.439 79.1874 318.435 79.4112 318.475 79.6293C318.515 79.8473 318.597 80.0554 318.718 80.2417C318.838 80.4279 318.994 80.5886 319.176 80.7147C319.358 80.8407 319.564 80.9296 319.78 80.9763C319.997 81.0229 320.221 81.0265 320.439 80.9867C320.657 80.9468 320.865 80.8645 321.051 80.7442C321.238 80.624 321.398 80.4682 321.524 80.2859C321.779 79.9176 321.877 79.4633 321.796 79.0229C321.716 78.5825 321.464 78.192 321.096 77.9375C320.727 77.6829 320.273 77.5851 319.833 77.6655C319.392 77.7459 319.002 77.998 318.747 78.3663Z" stroke="white" stroke-width="1.5" stroke-linecap="round" stroke-linejoin="round"/>
</g>
<mask id="path-18-inside-2_229_631" fill="white">
<path d="M342.193 223.731C335.115 225.012 328.338 220.313 327.057 213.235L317.32 159.456C316.039 152.378 320.738 145.602 327.816 144.32V144.32C334.894 143.039 341.67 147.738 342.952 154.816L352.688 208.595C353.97 215.673 349.271 222.449 342.193 223.731V223.731Z"/>
</mask>
<path d="M342.193 223.731C335.115 225.012 328.338 220.313 327.057 213.235L317.32 159.456C316.039 152.378 320.738 145.602 327.816 144.32V144.32C334.894 143.039 341.67 147.738 342.952 154.816L352.688 208.595C353.97 215.673 349.271 222.449 342.193 223.731V223.731Z" fill="#F986D1"/>
<path d="M329.377 226.051L315 146.64L329.377 226.051ZM327.816 144.32C335.981 142.842 343.798 148.263 345.276 156.428L354.3 206.27C355.778 214.435 350.358 222.252 342.193 223.731C348.184 222.646 352.002 216.029 350.72 208.951L340.984 155.172C339.702 148.094 333.807 143.236 327.816 144.32ZM355.008 221.41L329.377 226.051L355.008 221.41ZM315 146.64L340.632 142L315 146.64Z" fill="white" mask="url(#path-18-inside-2_229_631)"/>
<path d="M334.395 195.004C334.794 194.931 335.165 194.901 335.506 194.914C335.841 194.922 336.157 194.976 336.456 195.075C336.755 195.175 337.04 195.321 337.314 195.515C337.587 195.709 337.859 195.954 338.129 196.249L341.058 193.829L342.36 197.166L339.3 198.943L339.503 199.891L342.726 199.45L343.325 202.756C342.152 202.942 340.984 203.129 339.822 203.318C338.659 203.502 337.491 203.685 336.317 203.866C335.725 203.962 335.139 204.058 334.558 204.152C333.977 204.247 333.389 204.332 332.794 204.408C332.596 204.073 332.422 203.74 332.272 203.407C332.122 203.074 331.992 202.738 331.883 202.398C331.767 202.053 331.67 201.703 331.589 201.347C331.503 200.987 331.425 200.617 331.357 200.238C331.251 199.654 331.231 199.075 331.296 198.502C331.356 197.925 331.509 197.397 331.756 196.919C332.003 196.44 332.344 196.031 332.781 195.693C333.216 195.35 333.754 195.12 334.395 195.004ZM335.264 198.403C335.049 198.442 334.857 198.509 334.689 198.603C334.52 198.692 334.382 198.807 334.275 198.948C334.162 199.084 334.086 199.247 334.045 199.434C333.999 199.617 333.997 199.824 334.039 200.054C334.057 200.157 334.083 200.255 334.116 200.35C334.144 200.445 334.179 200.537 334.221 200.625L337.103 200.23L337.07 200.045C337.03 199.825 336.962 199.607 336.864 199.392C336.766 199.171 336.642 198.982 336.492 198.824C336.34 198.661 336.162 198.54 335.957 198.46C335.751 198.376 335.52 198.357 335.264 198.403ZM339.292 183.55L340.474 187.274L338.82 188.049L339.138 189.802L340.945 189.872L341.27 193.862L330.476 192.656L329.487 188.421L339.292 183.55ZM336.518 188.752L333.949 189.821L336.727 189.905L336.518 188.752ZM334.307 174.433C334.886 174.328 335.461 174.232 336.033 174.144C336.598 174.052 337.171 173.967 337.749 173.889L338.474 178.331C337.539 178.341 336.61 178.372 335.688 178.422C334.76 178.474 333.835 178.583 332.913 178.75C332.846 178.762 332.739 178.784 332.591 178.816C332.444 178.848 332.279 178.889 332.097 178.937C331.91 178.987 331.722 179.045 331.533 179.111C331.338 179.173 331.163 179.244 331.008 179.325C330.853 179.401 330.73 179.484 330.641 179.574C330.545 179.66 330.506 179.752 330.524 179.849C330.555 180.024 330.633 180.163 330.758 180.267C330.882 180.367 331.033 180.443 331.212 180.495C331.385 180.543 331.575 180.572 331.784 180.582C331.992 180.592 332.198 180.592 332.403 180.581C332.606 180.565 332.799 180.546 332.98 180.524C333.155 180.498 333.299 180.474 333.412 180.454C334.324 180.315 335.229 180.173 336.129 180.026C337.024 179.879 337.929 179.737 338.846 179.597L339.725 183.487C337.897 183.712 336.081 183.94 334.276 184.172C332.469 184.398 330.657 184.647 328.837 184.918L327.996 181.323L329.231 181.131C329.031 181.019 328.839 180.895 328.656 180.759C328.471 180.618 328.308 180.462 328.166 180.292C328.019 180.123 327.896 179.939 327.796 179.74C327.691 179.537 327.617 179.317 327.574 179.081C327.495 178.646 327.498 178.251 327.582 177.897C327.666 177.543 327.81 177.226 328.013 176.946C328.216 176.665 328.473 176.415 328.782 176.195C329.087 175.976 329.42 175.783 329.781 175.617C330.143 175.451 330.527 175.305 330.932 175.178C331.333 175.053 331.732 174.946 332.129 174.859C332.525 174.766 332.91 174.685 333.284 174.618C333.658 174.55 333.999 174.488 334.307 174.433ZM326.422 165.348L331.08 168.014L335.804 163.935L337.08 167.388L334.336 170.299L337.372 169.876L338.074 173.052L327.021 174.799L326.572 171.18L329.79 170.884L326.173 169.236L326.422 165.348Z" fill="white"/>
<path d="M143.416 87.1043L141.581 98.4482L138.021 98.2561L138.642 92.2412L136.564 96.9359L135.196 96.8017L134.393 92.3427L133.883 97.3795L130.281 97.1362L131.49 86.4061L135.501 86.6424L136.583 91.9451L139.233 86.6942L143.416 87.1043ZM153.903 88.9489L149.041 94.501L148.362 99.3485L144.676 98.9872L145.244 94.1601L143.586 88.1729L147.6 88.064L147.893 91.4839L150.197 88.3187L153.903 88.9489ZM164.121 89.8565L163.519 93.1102C163.373 93.054 163.228 93.011 163.085 92.9812C162.941 92.9514 162.794 92.9292 162.644 92.9144C162.276 92.8784 161.919 92.8905 161.573 92.9507C161.232 93.0115 160.922 93.1251 160.644 93.2915C160.372 93.4583 160.143 93.6819 159.958 93.9621C159.78 94.2376 159.671 94.575 159.632 94.9741C159.603 95.2644 159.62 95.5224 159.681 95.7483C159.749 95.9694 159.853 96.1602 159.994 96.3206C160.141 96.4763 160.322 96.6014 160.538 96.6958C160.759 96.7907 161.007 96.8516 161.282 96.8786C161.474 96.8974 161.672 96.8986 161.878 96.8821C162.084 96.8604 162.292 96.8258 162.5 96.7783C162.709 96.7307 162.911 96.672 163.106 96.6022C163.302 96.5324 163.484 96.4561 163.655 96.3733L163.172 100.016C162.96 100.099 162.733 100.171 162.492 100.231C162.251 100.286 162.003 100.33 161.749 100.363C161.499 100.401 161.248 100.423 160.996 100.43C160.75 100.437 160.515 100.43 160.292 100.408C159.556 100.336 158.898 100.133 158.319 99.7987C157.744 99.465 157.262 99.041 156.873 98.5266C156.49 98.0076 156.21 97.4227 156.033 96.7722C155.856 96.1216 155.802 95.4412 155.872 94.7311C155.955 93.881 156.152 93.0996 156.463 92.3869C156.778 91.6748 157.196 91.072 157.715 90.5787C158.24 90.0806 158.863 89.7125 159.582 89.4743C160.307 89.2314 161.118 89.1539 162.015 89.2418C162.372 89.2769 162.732 89.3409 163.095 89.434C163.457 89.5271 163.799 89.668 164.121 89.8565ZM173.88 95.5233C173.834 95.995 173.735 96.4458 173.583 96.8757C173.431 97.3004 173.233 97.6944 172.988 98.0577C172.748 98.4214 172.465 98.7495 172.138 99.0419C171.817 99.3297 171.461 99.5695 171.071 99.7615C170.685 99.954 170.271 100.094 169.828 100.181C169.386 100.264 168.924 100.281 168.442 100.234C167.975 100.188 167.535 100.085 167.122 99.9239C166.714 99.7635 166.336 99.559 165.989 99.3104C165.642 99.0566 165.333 98.7647 165.062 98.4345C164.797 98.0998 164.576 97.7379 164.399 97.3491C164.228 96.9555 164.104 96.5404 164.027 96.1037C163.954 95.6674 163.941 95.2186 163.986 94.7573C164.03 94.3064 164.128 93.8711 164.279 93.4515C164.43 93.0268 164.626 92.6326 164.866 92.2688C165.111 91.9055 165.394 91.5775 165.716 91.2845C166.038 90.9916 166.389 90.7461 166.769 90.5479C167.155 90.3502 167.564 90.2071 167.997 90.1187C168.429 90.0303 168.879 90.009 169.345 90.0547C170.097 90.1284 170.77 90.3121 171.364 90.6058C171.963 90.9001 172.459 91.2862 172.852 91.7643C173.25 92.2378 173.538 92.7946 173.716 93.4348C173.9 94.0703 173.955 94.7665 173.88 95.5233ZM170.408 95.387C170.43 95.1641 170.418 94.9457 170.37 94.7317C170.329 94.5131 170.254 94.3173 170.145 94.1445C170.037 93.9664 169.895 93.819 169.718 93.7022C169.547 93.5807 169.342 93.5083 169.103 93.4849C168.86 93.4611 168.638 93.4838 168.437 93.5531C168.237 93.6224 168.059 93.7279 167.904 93.8697C167.754 94.0068 167.633 94.1755 167.54 94.3757C167.448 94.5708 167.39 94.7823 167.368 95.0104C167.347 95.2281 167.356 95.4489 167.397 95.6727C167.438 95.8965 167.512 96.1026 167.619 96.291C167.726 96.4795 167.865 96.637 168.036 96.7636C168.212 96.8908 168.422 96.9663 168.665 96.9902C168.909 97.0141 169.131 96.9888 169.332 96.9143C169.539 96.8351 169.717 96.7218 169.868 96.5743C170.019 96.4216 170.141 96.2426 170.235 96.0372C170.328 95.8318 170.386 95.615 170.408 95.387ZM184.035 96.5188C183.989 96.9905 183.889 97.4413 183.737 97.8713C183.586 98.296 183.388 98.69 183.143 99.0532C182.903 99.417 182.619 99.7451 182.292 100.037C181.971 100.325 181.615 100.565 181.225 100.757C180.84 100.95 180.426 101.09 179.983 101.177C179.54 101.259 179.078 101.277 178.596 101.229C178.13 101.184 177.69 101.08 177.276 100.919C176.868 100.759 176.49 100.555 176.143 100.306C175.797 100.052 175.488 99.7602 175.216 99.4301C174.951 99.0953 174.73 98.7335 174.554 98.3446C174.383 97.9511 174.259 97.5359 174.181 97.0992C174.109 96.663 174.095 96.2142 174.14 95.7529C174.185 95.3019 174.282 94.8666 174.433 94.4471C174.585 94.0224 174.78 93.6281 175.02 93.2643C175.265 92.9011 175.549 92.573 175.87 92.2801C176.192 91.9872 176.543 91.7416 176.924 91.5434C177.31 91.3457 177.719 91.2027 178.151 91.1143C178.584 91.0258 179.033 91.0045 179.5 91.0502C180.251 91.1239 180.924 91.3076 181.518 91.6014C182.117 91.8956 182.613 92.2818 183.006 92.7599C183.404 93.2333 183.693 93.7901 183.871 94.4303C184.054 95.0659 184.109 95.762 184.035 96.5188ZM180.563 96.3825C180.585 96.1596 180.572 95.9412 180.525 95.7273C180.484 95.5086 180.409 95.3129 180.3 95.14C180.192 94.9619 180.049 94.8145 179.872 94.6977C179.701 94.5763 179.496 94.5039 179.258 94.4805C179.014 94.4566 178.792 94.4793 178.592 94.5486C178.391 94.6179 178.213 94.7235 178.058 94.8653C177.909 95.0024 177.788 95.1711 177.695 95.3713C177.602 95.5663 177.545 95.7779 177.522 96.006C177.501 96.2237 177.511 96.4444 177.552 96.6682C177.593 96.892 177.667 97.0981 177.774 97.2866C177.881 97.475 178.02 97.6325 178.191 97.7592C178.366 97.8863 178.576 97.9619 178.82 97.9857C179.063 98.0096 179.286 97.9843 179.487 97.9098C179.693 97.8306 179.872 97.7173 180.022 97.5698C180.173 97.4172 180.296 97.2382 180.389 97.0327C180.483 96.8273 180.54 96.6106 180.563 96.3825ZM191.218 99.0757L190.553 102.496L183.956 102.367L185.293 91.2885L189.336 91.6849L188.061 98.7662L191.218 99.0757ZM202.752 93.0473C202.673 93.5315 202.597 94.0108 202.525 94.4851C202.452 94.9594 202.371 95.4382 202.282 95.9214L198.968 95.7692L198.872 96.7489L201.733 97.0294L201.342 99.4245L198.613 99.2354L198.177 103.84L194.235 103.532L195.583 92.3445L202.752 93.0473ZM211.897 97.6961C211.857 98.1004 211.785 98.4649 211.679 98.7895C211.58 99.1095 211.442 99.3995 211.265 99.6594C211.087 99.9194 210.868 100.154 210.607 100.364C210.345 100.574 210.036 100.769 209.678 100.948L211.205 104.426L207.639 104.768L206.767 101.338L205.8 101.275L205.343 104.495L201.999 104.168C202.141 102.988 202.28 101.814 202.415 100.644C202.556 99.4755 202.7 98.3017 202.847 97.1229C202.916 96.5278 202.984 95.9379 203.052 95.3532C203.12 94.7685 203.198 94.1796 203.288 93.5865C203.664 93.4873 204.032 93.411 204.394 93.3574C204.755 93.3038 205.114 93.271 205.471 93.2589C205.833 93.2421 206.197 93.2438 206.561 93.2638C206.931 93.2791 207.308 93.3056 207.692 93.3432C208.283 93.4011 208.845 93.54 209.378 93.7597C209.917 93.9748 210.383 94.2664 210.776 94.6347C211.169 95.0029 211.469 95.4431 211.675 95.9552C211.886 96.4679 211.96 97.0482 211.897 97.6961ZM208.389 97.6034C208.41 97.3857 208.399 97.1831 208.354 96.9956C208.315 96.8086 208.242 96.6444 208.136 96.5032C208.035 96.3572 207.9 96.2393 207.731 96.1495C207.567 96.0549 207.369 95.9962 207.136 95.9734C207.032 95.9632 206.93 95.9611 206.83 95.967C206.731 95.9677 206.633 95.9764 206.537 95.9932L206.129 98.8734L206.316 98.8917C206.539 98.9135 206.767 98.9071 207.001 98.8725C207.239 98.8383 207.455 98.7705 207.649 98.6691C207.847 98.5682 208.012 98.43 208.145 98.2546C208.282 98.0796 208.363 97.8626 208.389 97.6034ZM216.838 94.6952L215.255 105.232L211.958 105.081L212.68 94.5074L216.838 94.6952ZM225.695 100.274C225.651 100.725 225.576 101.172 225.469 101.617C224.577 101.587 223.687 101.594 222.798 101.638C221.91 101.677 221.022 101.715 220.134 101.754C220.232 102.14 220.413 102.459 220.676 102.709C220.944 102.961 221.278 103.106 221.677 103.145C221.885 103.166 222.114 103.149 222.365 103.095C222.622 103.042 222.877 102.97 223.132 102.88C223.387 102.784 223.633 102.68 223.869 102.567C224.105 102.454 224.309 102.351 224.48 102.258L223.761 105.752C223.544 105.887 223.31 105.998 223.061 106.083C222.817 106.169 222.565 106.234 222.304 106.276C222.044 106.319 221.782 106.343 221.52 106.348C221.258 106.354 221.002 106.345 220.754 106.32C220.24 106.27 219.778 106.154 219.367 105.972C218.956 105.791 218.588 105.558 218.266 105.276C217.948 104.988 217.677 104.661 217.451 104.293C217.226 103.926 217.047 103.531 216.916 103.11C216.784 102.689 216.697 102.249 216.653 101.789C216.609 101.33 216.609 100.869 216.655 100.408C216.702 99.9256 216.793 99.4479 216.929 98.9745C217.064 98.501 217.242 98.0501 217.462 97.6216C217.687 97.1936 217.953 96.8036 218.259 96.4516C218.572 96.095 218.923 95.7919 219.314 95.5424C219.705 95.2929 220.136 95.1101 220.608 94.9942C221.085 94.8787 221.601 94.8482 222.156 94.9026C222.617 94.9478 223.03 95.0537 223.396 95.2204C223.768 95.3824 224.09 95.592 224.363 95.849C224.642 96.1014 224.875 96.3937 225.062 96.7261C225.254 97.0589 225.402 97.4188 225.506 97.8058C225.615 98.188 225.682 98.5898 225.709 99.0111C225.742 99.4277 225.737 99.8485 225.695 100.274ZM222.625 99.5643C222.639 99.4192 222.638 99.2699 222.622 99.1166C222.606 98.958 222.568 98.813 222.507 98.6815C222.452 98.5505 222.371 98.4405 222.265 98.3516C222.159 98.2574 222.021 98.202 221.849 98.1852C221.642 98.1649 221.453 98.2039 221.281 98.3022C221.114 98.3958 220.966 98.5225 220.835 98.6824C220.705 98.8371 220.594 99.0093 220.502 99.1992C220.41 99.3891 220.338 99.5651 220.285 99.7275L222.608 99.7354L222.625 99.5643ZM235.627 103.618C235.57 104.204 235.505 104.784 235.433 105.357C235.367 105.927 235.292 106.5 235.21 107.078L230.739 106.561C230.984 105.659 231.209 104.757 231.412 103.856C231.616 102.95 231.764 102.03 231.855 101.097C231.862 101.03 231.87 100.921 231.88 100.77C231.889 100.619 231.895 100.45 231.898 100.262C231.901 100.068 231.897 99.8715 231.885 99.6715C231.879 99.4668 231.858 99.279 231.823 99.108C231.792 98.9376 231.746 98.797 231.683 98.6862C231.627 98.5707 231.549 98.5082 231.451 98.4985C231.274 98.4813 231.119 98.5184 230.984 98.6098C230.855 98.7018 230.741 98.8267 230.642 98.9844C230.548 99.1375 230.468 99.3128 230.402 99.5104C230.335 99.708 230.279 99.9066 230.233 100.106C230.193 100.306 230.158 100.497 230.13 100.677C230.108 100.853 230.091 100.998 230.08 101.112C229.964 102.027 229.854 102.937 229.749 103.842C229.645 104.743 229.535 105.653 229.419 106.573L225.437 106.355C225.72 104.536 225.997 102.726 226.267 100.926C226.543 99.1268 226.799 97.3151 227.036 95.4909L230.724 95.6641L230.571 96.9051C230.733 96.7431 230.905 96.5924 231.086 96.4532C231.272 96.3145 231.467 96.2001 231.669 96.11C231.872 96.0148 232.083 95.9465 232.302 95.9051C232.526 95.8591 232.757 95.8477 232.996 95.8711C233.436 95.9143 233.815 96.0247 234.133 96.2024C234.45 96.3801 234.716 96.605 234.93 96.8772C235.144 97.1494 235.315 97.4644 235.442 97.8222C235.57 98.1749 235.664 98.5479 235.725 98.9411C235.786 99.3344 235.821 99.7434 235.832 100.168C235.843 100.588 235.837 101.001 235.813 101.407C235.794 101.813 235.766 102.205 235.729 102.584C235.692 102.962 235.658 103.307 235.627 103.618ZM245.395 102.315C245.324 103.041 245.167 103.682 244.924 104.239C244.681 104.796 244.369 105.281 243.988 105.694C243.613 106.102 243.18 106.439 242.688 106.704C242.196 106.97 241.666 107.177 241.096 107.326C240.528 107.469 239.928 107.556 239.296 107.589C238.67 107.622 238.031 107.606 237.378 107.542C237.134 107.518 236.896 107.489 236.664 107.456C236.432 107.418 236.196 107.374 235.955 107.324L237.165 97.2219C237.753 97.0964 238.351 97.0268 238.96 97.0132C239.574 96.9949 240.179 97.015 240.775 97.0734C241.516 97.1461 242.188 97.3166 242.789 97.5849C243.391 97.8532 243.897 98.2116 244.309 98.6602C244.721 99.1035 245.022 99.6328 245.213 100.248C245.409 100.859 245.47 101.548 245.395 102.315ZM239.815 104.782C240.131 104.766 240.422 104.7 240.69 104.585C240.963 104.466 241.203 104.311 241.41 104.122C241.618 103.928 241.784 103.703 241.908 103.449C242.038 103.189 242.118 102.909 242.148 102.609C242.176 102.313 242.172 102.036 242.135 101.775C242.098 101.51 242.019 101.277 241.897 101.077C241.776 100.872 241.607 100.703 241.39 100.572C241.173 100.436 240.899 100.346 240.568 100.303L239.815 104.782ZM253.639 105.337C253.57 106.047 253.385 106.649 253.085 107.143C252.791 107.632 252.413 108.024 251.95 108.319C251.492 108.609 250.968 108.806 250.377 108.911C249.791 109.01 249.169 109.028 248.511 108.963C248.257 108.938 247.98 108.877 247.681 108.78C247.387 108.683 247.089 108.57 246.788 108.441C246.487 108.307 246.197 108.168 245.918 108.026C245.645 107.879 245.402 107.742 245.189 107.617L245.83 104.603C246.245 104.91 246.712 105.16 247.232 105.352C247.758 105.54 248.28 105.659 248.799 105.71C248.897 105.72 249.017 105.729 249.157 105.737C249.298 105.741 249.432 105.73 249.56 105.706C249.694 105.677 249.809 105.628 249.904 105.559C250 105.49 250.055 105.383 250.069 105.238C250.079 105.14 250.056 105.054 250.001 104.98C249.945 104.901 249.871 104.836 249.776 104.785C249.682 104.729 249.574 104.684 249.452 104.652C249.33 104.613 249.21 104.583 249.092 104.561C248.974 104.539 248.863 104.523 248.759 104.513C248.655 104.503 248.572 104.495 248.51 104.489C248.064 104.445 247.664 104.335 247.31 104.159C246.961 103.983 246.667 103.756 246.427 103.476C246.193 103.191 246.022 102.86 245.912 102.483C245.803 102.101 245.77 101.687 245.814 101.241C245.874 100.63 246.049 100.095 246.34 99.6365C246.637 99.1736 247.006 98.7938 247.449 98.497C247.897 98.1956 248.397 97.9803 248.949 97.8512C249.501 97.7222 250.061 97.6856 250.632 97.7415C250.886 97.7664 251.146 97.8024 251.414 97.8496C251.682 97.8915 251.946 97.9488 252.206 98.0214C252.471 98.0945 252.727 98.1797 252.973 98.2772C253.22 98.3747 253.452 98.489 253.67 98.6202L253.065 101.748C252.724 101.594 252.363 101.459 251.982 101.344C251.607 101.223 251.235 101.145 250.867 101.109C250.799 101.102 250.711 101.096 250.602 101.09C250.498 101.08 250.386 101.077 250.265 101.081C250.15 101.08 250.032 101.087 249.91 101.101C249.788 101.115 249.678 101.141 249.58 101.179C249.483 101.211 249.402 101.261 249.338 101.328C249.274 101.395 249.24 101.478 249.235 101.577C249.229 101.691 249.262 101.783 249.334 101.853C249.411 101.924 249.51 101.98 249.631 102.024C249.758 102.062 249.897 102.089 250.047 102.104C250.203 102.119 250.356 102.131 250.507 102.141C250.658 102.145 250.799 102.151 250.929 102.159C251.059 102.161 251.166 102.169 251.248 102.182C251.66 102.249 252.025 102.373 252.342 102.556C252.659 102.739 252.919 102.966 253.123 103.237C253.332 103.509 253.479 103.824 253.564 104.183C253.655 104.538 253.68 104.922 253.639 105.337Z" fill="white"/>
<path d="M87.8024 114.214L87.0453 117.452C86.8991 117.396 86.7515 117.353 86.6027 117.323C86.4539 117.292 86.3044 117.27 86.1541 117.255C85.7705 117.217 85.4 117.233 85.0425 117.303C84.6856 117.367 84.3621 117.49 84.0723 117.671C83.7876 117.852 83.5497 118.091 83.3585 118.386C83.1725 118.682 83.0589 119.04 83.0177 119.459C82.9913 119.729 83.0099 119.966 83.0735 120.171C83.1423 120.377 83.2482 120.552 83.3909 120.697C83.5337 120.842 83.7084 120.956 83.9148 121.039C84.1212 121.122 84.3514 121.176 84.6054 121.201C84.7972 121.22 84.9988 121.218 85.2102 121.197C85.4216 121.176 85.6317 121.142 85.8404 121.094C86.0492 121.047 86.2538 120.988 86.4542 120.919C86.6547 120.85 86.8398 120.776 87.0096 120.699L86.3403 124.323C86.128 124.406 85.8986 124.478 85.652 124.538C85.4111 124.593 85.1632 124.639 84.9083 124.677C84.6539 124.709 84.4008 124.729 84.149 124.736C83.8971 124.742 83.6571 124.735 83.4291 124.712C82.7708 124.648 82.1685 124.466 81.6222 124.166C81.0759 123.867 80.6136 123.484 80.2354 123.017C79.8572 122.551 79.5745 122.019 79.3873 121.419C79.2058 120.815 79.1478 120.179 79.2134 119.51C79.3003 118.624 79.5091 117.802 79.8398 117.044C80.171 116.281 80.6118 115.628 81.1622 115.086C81.7126 114.543 82.3674 114.136 83.1266 113.865C83.891 113.595 84.7475 113.506 85.6961 113.599C86.0537 113.634 86.4164 113.699 86.784 113.792C87.1568 113.886 87.4963 114.027 87.8024 114.214ZM97.0906 125.486L93.1853 125.606L92.891 123.803L91.1183 123.629L90.5573 125.348L86.63 124.571L90.7399 114.518L95.0843 114.724L97.0906 125.486ZM92.8444 121.396L92.5188 118.633L91.6781 121.282L92.8444 121.396ZM105.533 115.921L105.132 119.21L102.806 119.076L101.819 126.264L98.5206 126.113L98.9326 118.869L96.6033 118.766L97.0564 115.105L105.533 115.921ZM114.039 121.48C113.995 121.931 113.919 122.379 113.813 122.824C112.921 122.794 112.031 122.801 111.142 122.845C110.254 122.883 109.366 122.922 108.477 122.96C108.576 123.347 108.756 123.665 109.019 123.916C109.288 124.168 109.622 124.313 110.021 124.352C110.228 124.372 110.457 124.356 110.709 124.302C110.965 124.248 111.221 124.177 111.476 124.086C111.731 123.991 111.977 123.887 112.213 123.774C112.449 123.661 112.652 123.558 112.824 123.465L112.105 126.958C111.887 127.094 111.654 127.205 111.405 127.29C111.161 127.376 110.909 127.44 110.648 127.483C110.387 127.525 110.126 127.549 109.864 127.555C109.602 127.561 109.346 127.551 109.097 127.527C108.584 127.477 108.122 127.361 107.71 127.179C107.299 126.997 106.932 126.765 106.609 126.482C106.292 126.195 106.02 125.867 105.795 125.5C105.569 125.132 105.391 124.738 105.259 124.317C105.128 123.896 105.04 123.455 104.996 122.996C104.952 122.536 104.953 122.076 104.998 121.614C105.046 121.132 105.137 120.655 105.272 120.181C105.408 119.708 105.585 119.257 105.805 118.828C106.03 118.4 106.296 118.01 106.603 117.658C106.915 117.302 107.267 116.999 107.658 116.749C108.048 116.5 108.48 116.317 108.952 116.201C109.429 116.085 109.945 116.055 110.499 116.109C110.961 116.155 111.374 116.261 111.74 116.427C112.111 116.589 112.433 116.799 112.706 117.056C112.985 117.308 113.218 117.6 113.405 117.933C113.598 118.266 113.746 118.626 113.849 119.013C113.958 119.395 114.026 119.797 114.053 120.218C114.085 120.634 114.081 121.055 114.039 121.48ZM110.968 120.771C110.983 120.626 110.982 120.477 110.965 120.323C110.949 120.165 110.911 120.02 110.851 119.888C110.796 119.757 110.715 119.647 110.608 119.558C110.503 119.464 110.364 119.409 110.193 119.392C109.986 119.372 109.796 119.411 109.624 119.509C109.458 119.603 109.31 119.729 109.179 119.889C109.048 120.044 108.937 120.216 108.846 120.406C108.754 120.596 108.681 120.772 108.629 120.934L110.952 120.942L110.968 120.771ZM123.6 127.002C123.327 127.284 123 127.522 122.62 127.715C122.24 127.908 121.838 128.059 121.414 128.169C120.989 128.279 120.558 128.352 120.12 128.388C119.683 128.418 119.27 128.414 118.881 128.376C118.13 128.303 117.45 128.108 116.843 127.792C116.235 127.476 115.723 127.07 115.306 126.574C114.894 126.073 114.59 125.496 114.392 124.843C114.194 124.191 114.132 123.494 114.205 122.753C114.26 122.188 114.379 121.644 114.561 121.123C114.743 120.602 114.976 120.12 115.26 119.677C115.549 119.234 115.887 118.835 116.272 118.481C116.657 118.126 117.084 117.83 117.552 117.594C118.02 117.357 118.523 117.189 119.062 117.09C119.606 116.986 120.173 116.964 120.764 117.021C120.987 117.043 121.224 117.077 121.476 117.123C121.729 117.163 121.977 117.219 122.221 117.29C122.471 117.356 122.711 117.44 122.942 117.541C123.173 117.642 123.381 117.76 123.567 117.893L123.058 120.842C122.779 120.704 122.485 120.602 122.178 120.536C121.876 120.464 121.577 120.414 121.282 120.385C120.867 120.344 120.473 120.363 120.099 120.442C119.731 120.515 119.401 120.648 119.11 120.839C118.824 121.031 118.588 121.283 118.4 121.594C118.213 121.905 118.098 122.276 118.056 122.706C118.029 122.976 118.04 123.241 118.087 123.502C118.136 123.758 118.223 123.992 118.348 124.203C118.48 124.409 118.649 124.583 118.855 124.724C119.066 124.865 119.317 124.949 119.607 124.978C119.804 124.997 120.009 124.991 120.221 124.96C120.439 124.929 120.629 124.858 120.791 124.749L120.882 124.145L119.019 123.931L119.341 121.608C120.116 121.657 120.89 121.712 121.664 121.773C122.438 121.828 123.218 121.878 124.004 121.924L123.6 127.002ZM134.222 123.789C134.176 124.261 134.077 124.711 133.925 125.141C133.773 125.566 133.575 125.96 133.33 126.323C133.091 126.687 132.807 127.015 132.48 127.308C132.159 127.595 131.803 127.835 131.413 128.027C131.027 128.22 130.613 128.36 130.17 128.447C129.728 128.529 129.266 128.547 128.784 128.499C128.317 128.454 127.877 128.35 127.464 128.189C127.056 128.029 126.678 127.825 126.331 127.576C125.984 127.322 125.675 127.03 125.404 126.7C125.139 126.365 124.918 126.003 124.741 125.615C124.571 125.221 124.446 124.806 124.369 124.369C124.296 123.933 124.283 123.484 124.328 123.023C124.372 122.572 124.47 122.137 124.621 121.717C124.773 121.292 124.968 120.898 125.208 120.534C125.453 120.171 125.736 119.843 126.058 119.55C126.38 119.257 126.731 119.012 127.111 118.813C127.497 118.616 127.906 118.473 128.339 118.384C128.771 118.296 129.221 118.275 129.688 118.32C130.439 118.394 131.112 118.578 131.706 118.871C132.305 119.166 132.801 119.552 133.194 120.03C133.592 120.503 133.88 121.06 134.058 121.7C134.242 122.336 134.297 123.032 134.222 123.789ZM130.75 123.653C130.772 123.43 130.76 123.211 130.713 122.997C130.671 122.779 130.596 122.583 130.488 122.41C130.379 122.232 130.237 122.085 130.06 121.968C129.889 121.846 129.684 121.774 129.445 121.751C129.202 121.727 128.98 121.749 128.779 121.819C128.579 121.888 128.401 121.994 128.246 122.135C128.096 122.272 127.975 122.441 127.882 122.641C127.79 122.836 127.733 123.048 127.71 123.276C127.689 123.494 127.699 123.714 127.739 123.938C127.78 124.162 127.854 124.368 127.961 124.557C128.069 124.745 128.207 124.903 128.378 125.029C128.554 125.156 128.764 125.232 129.008 125.256C129.251 125.28 129.473 125.254 129.674 125.18C129.881 125.101 130.06 124.987 130.21 124.84C130.361 124.687 130.483 124.508 130.577 124.303C130.67 124.097 130.728 123.881 130.75 123.653ZM144.03 123.196C143.991 123.6 143.918 123.965 143.813 124.29C143.714 124.609 143.575 124.899 143.398 125.159C143.221 125.419 143.002 125.654 142.74 125.864C142.479 126.074 142.169 126.269 141.812 126.448L143.339 129.926L139.773 130.268L138.9 126.838L137.933 126.775L137.476 129.995L134.133 129.668C134.275 128.488 134.413 127.314 134.549 126.144C134.69 124.976 134.833 123.802 134.98 122.623C135.049 122.028 135.118 121.438 135.185 120.853C135.253 120.268 135.332 119.68 135.421 119.087C135.797 118.987 136.166 118.911 136.527 118.857C136.888 118.804 137.247 118.771 137.604 118.759C137.967 118.742 138.331 118.744 138.695 118.764C139.065 118.779 139.442 118.806 139.826 118.843C140.416 118.901 140.978 119.04 141.512 119.26C142.051 119.475 142.516 119.766 142.91 120.135C143.303 120.503 143.602 120.943 143.808 121.455C144.02 121.968 144.094 122.548 144.03 123.196ZM140.523 123.103C140.544 122.886 140.532 122.683 140.488 122.496C140.449 122.309 140.376 122.144 140.269 122.003C140.168 121.857 140.033 121.739 139.864 121.649C139.701 121.555 139.503 121.496 139.269 121.473C139.166 121.463 139.064 121.461 138.964 121.467C138.864 121.468 138.767 121.476 138.671 121.493L138.263 124.373L138.449 124.392C138.672 124.414 138.901 124.407 139.134 124.372C139.373 124.338 139.589 124.271 139.782 124.169C139.98 124.068 140.146 123.93 140.278 123.755C140.416 123.58 140.497 123.363 140.523 123.103ZM154.288 121.14L150.048 126.753L149.725 131.165L145.729 130.773L146.25 126.412L143.97 120.364L147.984 120.255L148.899 123.736L150.581 120.51L154.288 121.14ZM163.648 121.665C163.111 121.911 162.633 122.225 162.213 122.608C161.794 122.991 161.436 123.411 161.14 123.869C160.844 124.326 160.609 124.803 160.435 125.299C160.261 125.79 160.151 126.268 160.105 126.735C160.06 127.201 160.061 127.698 160.108 128.226C160.156 128.754 160.256 129.282 160.408 129.81C160.561 130.333 160.768 130.842 161.028 131.339C161.294 131.831 161.619 132.279 162.003 132.683L159.108 133.545C158.754 133.264 158.445 132.941 158.183 132.575C157.92 132.209 157.697 131.821 157.512 131.41C157.328 130.994 157.179 130.564 157.065 130.118C156.957 129.673 156.875 129.233 156.818 128.799C156.767 128.359 156.738 127.933 156.732 127.519C156.731 127.1 156.748 126.709 156.784 126.346C156.839 125.781 156.974 125.203 157.189 124.612C157.405 124.015 157.691 123.442 158.049 122.891C158.412 122.335 158.844 121.823 159.346 121.354C159.847 120.885 160.414 120.495 161.046 120.186L163.648 121.665ZM169.156 121.939L167.621 132.951L164.246 132.463L165.154 125.126L163.826 125.859L162.92 123.086L165.641 121.437L169.156 121.939ZM176.755 123.296C175.743 125.023 174.79 126.788 173.897 128.589C173.009 130.386 172.165 132.208 171.367 134.056L168.375 132.538C168.846 131.637 169.316 130.738 169.786 129.842C170.256 128.941 170.734 128.049 171.218 127.165C171.708 126.276 172.213 125.397 172.733 124.526C173.252 123.656 173.799 122.802 174.373 121.963L176.755 123.296ZM184.367 130.762C184.3 131.451 184.13 132.039 183.857 132.525C183.59 133.007 183.243 133.396 182.816 133.695C182.389 133.988 181.893 134.19 181.328 134.302C180.768 134.41 180.161 134.431 179.508 134.367C179.212 134.338 178.912 134.28 178.607 134.193C178.301 134.105 178 133.997 177.704 133.869C177.408 133.74 177.121 133.594 176.844 133.431C176.573 133.268 176.32 133.097 176.086 132.917L176.688 129.821C176.872 129.975 177.079 130.126 177.311 130.274C177.543 130.417 177.784 130.551 178.033 130.675C178.288 130.794 178.545 130.895 178.804 130.978C179.068 131.061 179.324 131.115 179.573 131.14C179.718 131.154 179.867 131.158 180.019 131.152C180.177 131.141 180.322 131.111 180.452 131.061C180.583 131.011 180.692 130.933 180.781 130.826C180.876 130.72 180.931 130.577 180.949 130.395C180.96 130.281 180.919 130.17 180.825 130.061C180.731 129.953 180.615 129.857 180.476 129.776C180.338 129.689 180.193 129.62 180.041 129.568C179.89 129.512 179.762 129.478 179.659 129.468C179.586 129.461 179.497 129.457 179.393 129.458C179.294 129.453 179.192 129.454 179.086 129.459C178.981 129.464 178.878 129.478 178.776 129.499C178.68 129.516 178.605 129.543 178.549 129.579L178.813 127.36C178.9 127.379 178.983 127.395 179.06 127.408C179.137 127.42 179.22 127.431 179.308 127.44C179.489 127.458 179.688 127.461 179.903 127.451C180.119 127.436 180.322 127.395 180.512 127.33C180.702 127.26 180.864 127.155 180.998 127.017C181.137 126.879 181.218 126.69 181.242 126.452C181.258 126.281 181.225 126.139 181.142 126.026C181.059 125.908 180.951 125.814 180.817 125.743C180.687 125.673 180.544 125.619 180.385 125.583C180.226 125.546 180.082 125.522 179.953 125.509C179.533 125.468 179.111 125.5 178.687 125.605C178.269 125.71 177.89 125.888 177.552 126.137L177.176 123.243C177.691 122.901 178.262 122.659 178.888 122.516C179.52 122.369 180.144 122.325 180.761 122.386C181.326 122.441 181.857 122.577 182.354 122.793C182.857 123.004 183.289 123.29 183.652 123.65C184.014 124.005 184.29 124.427 184.477 124.916C184.665 125.406 184.729 125.956 184.669 126.568C184.651 126.744 184.608 126.921 184.538 127.097C184.469 127.273 184.381 127.443 184.276 127.605C184.172 127.767 184.052 127.918 183.918 128.057C183.785 128.19 183.645 128.305 183.5 128.4C183.708 128.52 183.874 128.67 183.997 128.849C184.121 129.029 184.215 129.224 184.278 129.434C184.341 129.644 184.377 129.865 184.385 130.096C184.395 130.322 184.389 130.544 184.367 130.762ZM190.233 130.018C190.196 130.397 190.122 130.782 190.01 131.174C189.904 131.566 189.763 131.958 189.589 132.349C189.415 132.735 189.205 133.115 188.959 133.488C188.719 133.857 188.446 134.207 188.142 134.539C187.837 134.87 187.501 135.175 187.134 135.453C186.772 135.731 186.379 135.972 185.956 136.177L183.369 134.699C183.901 134.447 184.375 134.13 184.789 133.747C185.203 133.364 185.553 132.945 185.838 132.492C186.129 132.034 186.359 131.559 186.527 131.068C186.696 130.571 186.804 130.09 186.85 129.624C186.896 129.152 186.895 128.652 186.847 128.124C186.805 127.597 186.71 127.072 186.562 126.55C186.415 126.022 186.211 125.513 185.951 125.022C185.696 124.526 185.379 124.073 185 123.665L187.878 122.816C188.232 123.102 188.54 123.431 188.802 123.802C189.07 124.168 189.295 124.559 189.48 124.975C189.665 125.386 189.814 125.814 189.927 126.259C190.046 126.7 190.134 127.14 190.19 127.58C190.247 128.015 190.276 128.442 190.276 128.861C190.283 129.275 190.269 129.66 190.233 130.018ZM193.688 134.015C193.666 134.243 193.601 134.451 193.493 134.639C193.386 134.828 193.25 134.99 193.085 135.125C192.925 135.256 192.743 135.356 192.537 135.425C192.332 135.489 192.118 135.509 191.895 135.488C191.667 135.465 191.459 135.403 191.27 135.301C191.082 135.193 190.919 135.06 190.783 134.9C190.653 134.735 190.553 134.55 190.484 134.344C190.421 134.139 190.4 133.923 190.423 133.695C190.444 133.472 190.507 133.263 190.609 133.069C190.717 132.876 190.851 132.714 191.01 132.583C191.175 132.447 191.361 132.345 191.566 132.276C191.772 132.207 191.989 132.184 192.217 132.206C192.44 132.228 192.645 132.293 192.834 132.4C193.022 132.508 193.181 132.644 193.312 132.808C193.448 132.968 193.55 133.154 193.618 133.364C193.687 133.575 193.71 133.792 193.688 134.015ZM194.176 129.039C194.154 129.267 194.089 129.475 193.981 129.663C193.874 129.852 193.738 130.014 193.573 130.149C193.413 130.28 193.231 130.38 193.025 130.449C192.82 130.512 192.606 130.533 192.383 130.511C192.155 130.489 191.947 130.427 191.758 130.325C191.569 130.217 191.407 130.083 191.271 129.924C191.141 129.759 191.041 129.574 190.972 129.368C190.909 129.163 190.888 128.947 190.91 128.719C190.932 128.496 190.995 128.287 191.097 128.093C191.205 127.9 191.339 127.737 191.498 127.607C191.663 127.471 191.849 127.369 192.054 127.3C192.26 127.231 192.477 127.208 192.705 127.23C192.928 127.252 193.133 127.317 193.322 127.424C193.51 127.532 193.669 127.668 193.8 127.832C193.936 127.992 194.038 128.177 194.106 128.388C194.175 128.599 194.198 128.816 194.176 129.039Z" fill="white"/>
<rect x="206.776" y="117.824" width="92" height="26" rx="6" transform="rotate(5.59943 206.776 117.824)" fill="#FFD155"/>
<path d="M236.622 128.119L236.02 131.373C235.874 131.316 235.729 131.273 235.586 131.244C235.442 131.214 235.295 131.192 235.145 131.177C234.777 131.141 234.42 131.153 234.074 131.213C233.733 131.274 233.423 131.387 233.145 131.554C232.873 131.721 232.644 131.944 232.459 132.224C232.281 132.5 232.172 132.837 232.133 133.236C232.104 133.527 232.121 133.785 232.182 134.011C232.25 134.232 232.354 134.423 232.495 134.583C232.642 134.739 232.823 134.864 233.039 134.958C233.26 135.053 233.508 135.114 233.783 135.141C233.974 135.16 234.173 135.161 234.379 135.144C234.585 135.123 234.793 135.088 235.001 135.041C235.21 134.993 235.412 134.934 235.607 134.865C235.803 134.795 235.985 134.718 236.156 134.636L235.673 138.278C235.461 138.362 235.234 138.434 234.993 138.494C234.752 138.549 234.504 138.592 234.25 138.625C234 138.663 233.749 138.686 233.497 138.693C233.251 138.7 233.016 138.692 232.793 138.671C232.057 138.598 231.399 138.395 230.82 138.061C230.245 137.727 229.763 137.303 229.374 136.789C228.991 136.27 228.711 135.685 228.534 135.035C228.357 134.384 228.303 133.704 228.373 132.993C228.456 132.143 228.653 131.362 228.964 130.649C229.279 129.937 229.697 129.334 230.216 128.841C230.741 128.343 231.364 127.975 232.083 127.737C232.808 127.494 233.619 127.416 234.516 127.504C234.873 127.539 235.233 127.603 235.596 127.696C235.958 127.79 236.3 127.93 236.622 128.119ZM245.556 139.718L241.65 139.523L241.972 135.928L240.183 135.753L239.741 139.148L236.257 138.806L237.624 127.903L241.309 128.437L240.528 133.997L242.254 134.166L242.858 128.165L246.395 128.606L245.556 139.718ZM254.757 129.3C254.679 129.784 254.603 130.264 254.53 130.738C254.457 131.212 254.376 131.691 254.287 132.174L250.974 132.022L250.8 132.994L253.117 133.221L252.71 135.615L250.369 135.464L250.18 136.592L252.109 136.781L253.477 136.915C253.39 137.482 253.301 138.046 253.209 138.608C253.123 139.164 253.039 139.724 252.958 140.287L246.241 139.785L247.589 128.597L254.757 129.3ZM263.8 140.831L259.895 140.951L259.601 139.148L257.828 138.974L257.267 140.693L253.34 139.916L257.45 129.863L261.794 130.069L263.8 140.831ZM259.554 136.741L259.229 133.978L258.388 136.627L259.554 136.741ZM273.69 134.924C273.64 135.427 273.521 135.866 273.333 136.24C273.145 136.614 272.904 136.933 272.611 137.197C272.323 137.462 271.994 137.678 271.621 137.846C271.249 138.013 270.854 138.142 270.437 138.232C270.026 138.317 269.602 138.37 269.166 138.39C268.73 138.405 268.304 138.395 267.889 138.359L267.534 141.982L263.911 141.627C264.027 140.44 264.146 139.259 264.266 138.082C264.387 136.906 264.511 135.72 264.639 134.524C264.711 133.892 264.776 133.26 264.832 132.627C264.889 131.994 264.965 131.358 265.059 130.718C265.742 130.587 266.42 130.504 267.093 130.47C267.766 130.437 268.455 130.455 269.16 130.524C269.559 130.563 269.955 130.636 270.347 130.742C270.74 130.844 271.111 130.982 271.461 131.158C271.815 131.334 272.137 131.543 272.427 131.786C272.723 132.025 272.971 132.3 273.17 132.613C273.37 132.925 273.516 133.275 273.609 133.661C273.708 134.042 273.735 134.463 273.69 134.924ZM270.211 134.85C270.244 134.513 270.166 134.241 269.977 134.035C269.794 133.823 269.539 133.701 269.213 133.669C269.104 133.658 268.989 133.658 268.867 133.667C268.752 133.671 268.641 133.681 268.535 133.697L268.219 135.958C268.29 135.976 268.36 135.988 268.427 135.994C268.495 136.001 268.565 136.008 268.637 136.015C268.824 136.033 269.006 136.019 269.183 135.974C269.365 135.929 269.529 135.856 269.675 135.755C269.822 135.649 269.941 135.522 270.034 135.375C270.133 135.222 270.192 135.047 270.211 134.85Z" fill="black"/>
<g clip-path="url(#clip1_229_631)">
<path d="M88.3357 85.4472L87.5367 84.9428C87.5215 84.9326 87.5053 84.9306 87.4881 84.9235L75.3403 77.5973C74.4587 77.0355 73.2627 77.2744 72.6619 78.1321L72.3536 78.8577C71.7554 79.715 72.2248 80.8122 73.1059 81.3714L80.2585 85.6531L50.8523 91.5253L44.9488 61.9619L51.6486 66.919C52.5034 67.5177 53.6993 67.5292 54.258 66.6456L54.81 66.0848C55.3687 65.2012 55.1299 64.0052 54.2747 63.4039L43.3519 55.3772C43.0465 54.9824 42.6366 54.6848 42.1664 54.5204L42.0316 54.4261C41.6055 54.1265 41.1023 54.0346 40.6366 54.1303C40.1699 54.2209 39.7406 54.4989 39.4571 54.9402L38.9496 55.7372C38.9395 55.7524 38.9425 55.7676 38.9304 55.7859L31.8029 67.7279C31.2436 68.609 31.4825 69.805 32.3377 70.4063L33.0628 70.7121C33.9175 71.3108 35.0173 70.8409 35.5765 69.9598L39.8329 62.7596L45.7779 92.5307L15.9814 98.4807L20.9385 91.7809C21.5367 90.9236 21.5487 89.7302 20.6676 89.171L20.1068 88.619C19.2227 88.0577 18.0242 88.2971 17.4259 89.1543L9.39922 100.077C9.00386 100.38 8.70678 100.792 8.54195 101.26L8.44765 101.395C8.14803 101.821 8.05667 102.327 8.1523 102.792C8.24287 103.259 8.51842 103.689 8.96225 103.972L9.76176 104.479C9.77696 104.489 9.79267 104.488 9.80787 104.499L21.75 111.626C22.631 112.185 23.8271 111.947 24.4309 111.091L24.7366 110.366C25.3354 109.511 24.8649 108.409 23.9839 107.849L16.7836 103.593L46.7954 97.6L52.7561 127.45L46.0609 122.436C45.2036 121.838 44.0102 121.826 43.451 122.707L42.899 123.268C42.3403 124.152 42.5791 125.348 43.4338 125.946L54.6012 134.235C54.6169 134.248 54.6225 134.263 54.6377 134.273L55.4129 134.816C55.844 135.115 56.3472 135.207 56.8129 135.111C57.2772 135.021 57.709 134.742 57.9873 134.302L58.4943 133.503C58.5045 133.487 58.5065 133.471 58.5161 133.453L65.8424 121.306C66.4016 120.425 66.1627 119.229 65.3075 118.627L64.5819 118.319C63.7272 117.72 62.6274 118.19 62.0682 119.071L57.7865 126.224L51.8673 96.582L81.4813 90.6683L76.468 97.3636C75.8693 98.2183 75.8583 99.4168 76.7394 99.976L77.3002 100.528C78.1838 101.087 79.3798 100.848 79.9786 99.9932L88.2673 88.8258C88.2795 88.8075 88.2947 88.8045 88.3053 88.7918L88.8488 88.0166C89.1479 87.588 89.2398 87.0848 89.1437 86.6166C89.0536 86.1524 88.775 85.7205 88.3347 85.4422L88.3357 85.4472Z" fill="#A6A6A6"/>
</g>
<defs>
<clipPath id="clip0_229_631">
<rect width="18" height="18" fill="white" transform="translate(307.567 63.3987) rotate(5.59943)"/>
</clipPath>
<clipPath id="clip1_229_631">
<rect width="82.6865" height="82.6865" fill="white" transform="translate(0 62.1921) rotate(-11.2929)"/>
</clipPath>
</defs>
</svg>
