<svg width="37" height="37" viewBox="0 0 37 37" fill="none" xmlns="http://www.w3.org/2000/svg">
<g clip-path="url(#clip0_189_66)">
<path d="M28.8703 10.0106C28.4654 10.0166 28.0637 10.0824 27.678 10.2058C27.4828 8.9314 26.085 7.96529 24.3172 7.96529C23.7813 7.94757 23.2471 8.03485 22.7447 8.22223C22.4252 7.65959 21.9545 7.1977 21.3859 6.88889C20.8174 6.58008 20.1736 6.4367 19.5278 6.47501C18.9636 6.44991 18.4016 6.55992 17.8885 6.7959C17.3754 7.03187 16.9261 7.38699 16.578 7.83168C15.9903 7.48334 15.3187 7.3021 14.6355 7.30751C13.817 7.25334 13.0099 7.5222 12.3873 8.05637C11.7647 8.59054 11.3764 9.34747 11.3055 10.1647V11.1C10.2161 11.5111 7.08137 12.95 6.25915 16.0745C5.43693 19.1989 6.6086 24.2967 9.02387 28.1817C10.6475 30.713 12.6995 32.9423 15.0878 34.7697C15.2463 34.8841 15.437 34.9452 15.6325 34.9445H26.2597C26.4643 34.9422 26.6626 34.8737 26.825 34.7492C28.6706 33.0483 30.0053 30.8665 30.6791 28.4489C31.8446 25.2656 32.3889 21.8883 32.2825 18.5V12.8472C32.1991 12.0215 31.7948 11.2615 31.1566 10.731C30.5184 10.2004 29.6973 9.9417 28.8703 10.0106ZM30.4325 18.5C30.5446 21.7031 30.0314 24.8974 28.9216 27.9042C28.3401 29.8493 27.3044 31.6283 25.9 33.0945H15.8997C13.8091 31.4398 12.0037 29.4539 10.5553 27.2156C8.11943 23.2483 7.47193 18.757 8.00637 16.537C8.28658 15.7676 8.72495 15.0655 9.29321 14.476C9.86146 13.8865 10.547 13.4227 11.3055 13.1145V20.977C11.3055 21.2223 11.403 21.4576 11.5765 21.631C11.7499 21.8045 11.9852 21.902 12.2305 21.902C12.4759 21.902 12.7111 21.8045 12.8846 21.631C13.0581 21.4576 13.1555 21.2223 13.1555 20.977V10.1647C13.1555 9.68168 13.7619 9.13695 14.6561 9.13695C15.5503 9.13695 16.1875 9.6714 16.1875 10.1647V16.0436H18.0375V9.05473C18.0375 8.76695 18.6336 8.32501 19.538 8.32501C20.4425 8.32501 21.1105 8.81834 21.1105 9.09584V16.1772H22.9605V10.2778L23.1353 10.1545C23.498 9.92697 23.9201 9.81248 24.348 9.82557C25.3039 9.82557 25.8897 10.2778 25.8897 10.5245V17.205H27.75V12.1997C28.0889 11.9693 28.4914 11.8507 28.9011 11.8606C29.785 11.8606 30.4633 12.3847 30.4633 12.8267L30.4325 18.5Z" fill="#D0F2FF"/>
</g>
<defs>
<clipPath id="clip0_189_66">
<rect width="37" height="37" fill="white"/>
</clipPath>
</defs>
</svg>
