<svg width="400" height="255" viewBox="0 0 400 255" fill="none" xmlns="http://www.w3.org/2000/svg">
<path d="M168.844 41.6437L168.795 44.6433L168.795 44.6433L168.844 41.6437ZM399.078 67.1167L385.669 35.1762L364.712 62.7592L399.078 67.1167ZM-5.12449 254.075L-2.15114 254.474C1.0846 230.362 4.6873 177.224 27.1967 130.298C38.4209 106.898 54.2851 85.2011 77.0258 69.5065C99.7378 53.8316 129.506 44.0066 168.795 44.6433L168.844 41.6437L168.892 38.6441C128.49 37.9893 97.4665 48.109 73.6177 64.5684C49.7977 81.0079 33.3316 103.635 21.7869 127.703C-1.24142 175.711 -4.93138 230.08 -8.09784 253.676L-5.12449 254.075ZM168.844 41.6437L168.795 44.6433C218.144 45.4431 240.196 61.2506 247.108 80.088C254.15 99.2835 246.214 123.367 231.665 142.146C224.448 151.461 215.763 159.242 206.873 164.249C197.955 169.271 189.089 171.366 181.346 169.797C173.741 168.256 166.664 163.067 161.392 152.323C156.073 141.486 152.664 125.101 152.636 101.621L149.636 101.624L146.636 101.628C146.665 125.574 150.125 142.984 156.005 154.967C161.931 167.042 170.383 173.697 180.154 175.677C189.787 177.63 200.146 174.924 209.817 169.477C219.516 164.014 228.786 155.658 236.408 145.821C251.535 126.295 260.81 100.016 252.74 78.0214C244.54 55.6687 219.157 39.4587 168.892 38.6441L168.844 41.6437ZM149.636 101.624L152.636 101.621C152.589 62.9594 162.884 38.8775 178.659 24.6796C194.471 10.4477 216.376 5.61583 240.676 6.74877C289.372 9.01915 345.892 35.1758 376.035 53.3556L377.584 50.7867L379.134 48.2178C348.679 29.8502 291.131 3.09466 240.955 0.755283C215.819 -0.416654 192.086 4.52215 174.645 20.2199C157.166 35.9517 146.588 61.9585 146.636 101.628L149.636 101.624Z" fill="white"/>
</svg>
